<svg width="16" height="20" viewBox="0 0 16 20" fill="none" xmlns="http://www.w3.org/2000/svg">
<g clip-path="url(#clip0)">
<path d="M7.76709 0C6.10891 0 0.26709 0.681818 0.26709 7.5V9.54545V10.2273C0.26709 11.7007 1.11984 12.4851 1.78121 12.7987C2.13711 13.6769 2.86676 14.842 3.99312 15.7298L4.61368 14.4886C3.458 13.4666 2.98974 12.1463 2.95974 12.057L2.84122 11.7014L2.47767 11.6109C2.46881 11.6082 1.63073 11.3857 1.63073 10.2273V9.54545H2.31254C2.31254 4.77273 9.13073 8.86364 11.1762 4.09091C11.1762 4.09091 13.2216 5.29091 13.2216 9.54545H13.9035V10.2273C13.9035 11.3134 13.1895 11.5727 13.0565 11.6109L12.6943 11.7028L12.5758 12.0557C12.5451 12.1457 12.0762 13.4679 10.9205 14.49L11.5411 15.7298C12.6674 14.8413 13.3964 13.6776 13.753 12.8001C14.4143 12.4858 15.2671 11.7007 15.2671 10.2273V8.86364V7.5C15.2671 4.77273 13.9035 1.36364 11.1762 1.36364C11.1762 1.36364 10.4944 0 7.76709 0ZM6.05189 10.2273L4.358 11.9212C4.57482 12.138 4.87358 12.2727 5.20495 12.2727C5.86631 12.2727 6.40345 11.7356 6.40345 11.0742C6.40345 10.7435 6.26871 10.4441 6.05189 10.2273ZM9.48229 10.2273C9.26547 10.4441 9.13073 10.7435 9.13073 11.0742C9.13073 11.7356 9.66787 12.2727 10.3292 12.2727C10.6606 12.2727 10.9594 12.138 11.1762 11.9212L9.48229 10.2273ZM7.76709 13.6364C7.40543 13.6364 7.05859 13.7441 6.80285 13.9359C6.54712 14.1277 6.40345 14.3878 6.40345 14.6591C6.40345 14.9303 6.54712 15.1905 6.80285 15.3823C7.05859 15.5741 7.40543 15.6818 7.76709 15.6818C8.12875 15.6818 8.47559 15.5741 8.73133 15.3823C8.98706 15.1905 9.13073 14.9303 9.13073 14.6591C9.13073 14.3878 8.98706 14.1277 8.73133 13.9359C8.47559 13.7441 8.12875 13.6364 7.76709 13.6364Z" fill="#5AAA4E"/>
<path fill-rule="evenodd" clip-rule="evenodd" d="M9.50791 16.4358C9.84471 16.2674 10.2543 16.4039 10.4227 16.7407L11.1045 18.1043C11.2729 18.4411 11.1364 18.8507 10.7996 19.0191C10.4628 19.1875 10.0532 19.051 9.88481 18.7142L9.20299 17.3505C9.03459 17.0137 9.17111 16.6042 9.50791 16.4358Z" fill="#6EBE62"/>
<path fill-rule="evenodd" clip-rule="evenodd" d="M6.02676 16.4358C5.68996 16.2674 5.28041 16.4039 5.112 16.7407L4.43019 18.1043C4.26178 18.4411 4.3983 18.8507 4.7351 19.0191C5.07191 19.1875 5.48146 19.051 5.64986 18.7142L6.33168 17.3505C6.50008 17.0137 6.36356 16.6042 6.02676 16.4358Z" fill="#6EBE62"/>
<path fill-rule="evenodd" clip-rule="evenodd" d="M7.76727 17.7273C8.14383 17.7273 8.44909 18.0326 8.44909 18.4091V19.0909C8.44909 19.4675 8.14383 19.7728 7.76727 19.7728C7.39071 19.7728 7.08545 19.4675 7.08545 19.0909V18.4091C7.08545 18.0326 7.39071 17.7273 7.76727 17.7273Z" fill="#6EBE62"/>
</g>
<defs>
<clipPath id="clip0">
<rect x="0.26709" width="15" height="19.7727" fill="white"/>
</clipPath>
</defs>
</svg>
