<svg width="17" height="18" viewBox="0 0 17 18" fill="none" xmlns="http://www.w3.org/2000/svg">
<path d="M15.9134 3.97141C15.4865 3.48037 14.7645 3.34238 14.1873 3.64261C13.709 3.89138 13.44 4.35599 13.4148 4.83919L12.7498 5.29965C12.4507 5.50681 12.0474 5.49482 11.7685 5.26106C11.147 4.74023 10.4113 4.35123 9.60434 4.13729C9.25073 4.04354 9.00392 3.72455 9.00392 3.35873V2.55715C9.38687 2.26134 9.61565 1.77562 9.54788 1.24084C9.46606 0.595343 8.94164 0.0803891 8.29491 0.00898439C7.43397 -0.0860538 6.70525 0.585486 6.70525 1.42722C6.70525 1.88724 6.92311 2.29617 7.26103 2.55715V3.3738C7.26103 3.73541 7.02033 4.0539 6.67154 4.14939C5.81983 4.38265 5.04894 4.81119 4.40983 5.38388C4.13748 5.62794 3.7356 5.65908 3.42988 5.45848L2.59414 4.91014C2.5318 4.54819 2.31479 4.21391 1.96477 4.01498C1.4114 3.70047 0.695836 3.84972 0.314396 4.35929C-0.131337 4.95472 0.0225046 5.79293 0.634848 6.1947C0.94298 6.39687 1.30616 6.44829 1.63804 6.36742L2.48476 6.92292C2.78589 7.1205 2.92221 7.49494 2.81121 7.83757C2.63429 8.3836 2.53858 8.96627 2.53858 9.57127C2.53858 10.718 2.88205 11.7844 3.47166 12.6735C3.67389 12.9785 3.64566 13.3813 3.40221 13.6545L3.01416 14.09C2.65456 14.108 2.30292 14.2807 2.06849 14.603C1.72765 15.0717 1.76131 15.7278 2.14908 16.1584C2.65367 16.7187 3.51612 16.7042 4.00364 16.1571C4.2342 15.8984 4.33635 15.57 4.31541 15.2495L4.71572 14.8002C4.95766 14.5287 5.35064 14.4548 5.6768 14.6157C6.42563 14.9851 7.26859 15.1928 8.16006 15.1928C8.66784 15.1928 9.15984 15.1253 9.62775 14.999C9.97099 14.9063 10.3337 15.0578 10.5178 15.3621L10.8999 15.9938C10.7921 16.355 10.8413 16.7615 11.0749 17.1015C11.4425 17.6365 12.1667 17.8165 12.742 17.5156C13.4114 17.1655 13.6378 16.3301 13.2528 15.6936C13.0556 15.3676 12.7377 15.1595 12.3911 15.0918L12.0384 14.5086C11.8471 14.1924 11.8962 13.7873 12.1561 13.5246C13.1608 12.5092 13.7814 11.1128 13.7814 9.57144C13.7814 8.90108 13.6639 8.25821 13.4486 7.66217C13.3247 7.31925 13.4483 6.93608 13.748 6.72853L14.407 6.27221C14.814 6.40147 15.2741 6.34776 15.6523 6.08589C16.3444 5.60655 16.4816 4.62514 15.9134 3.97141V3.97141Z" fill="white"/>
<path d="M3.32134 15.9048C2.95894 15.4739 2.93817 14.8405 3.26848 14.3846C3.42081 14.1744 3.62292 14.0276 3.84458 13.9456C4.12751 13.841 4.38564 13.6788 4.58635 13.4536L4.60349 13.4343C4.84694 13.1611 4.87522 12.7583 4.67299 12.4533C4.08338 11.5642 3.73991 10.4978 3.73991 9.35107C3.73991 8.74607 3.83557 8.16346 4.01254 7.61743C4.1236 7.2748 3.98728 6.90036 3.68609 6.70278L3.35607 6.48627C3.08792 6.31036 2.7799 6.20054 2.45973 6.18161C2.24445 6.1689 2.02945 6.10141 1.83618 5.97456C1.22378 5.57279 1.06994 4.73459 1.51573 4.13916C1.57985 4.05347 1.65451 3.97837 1.73521 3.91357C1.22602 3.74713 0.644761 3.91811 0.314396 4.35942C-0.131337 4.95485 0.0225046 5.79305 0.634848 6.19482C0.94298 6.397 1.30616 6.44835 1.63804 6.36754L2.48476 6.92304C2.78595 7.12062 2.92221 7.49506 2.81121 7.83769C2.63429 8.38373 2.53858 8.96633 2.53858 9.57134C2.53858 10.7181 2.88205 11.7845 3.47166 12.6736C3.67389 12.9786 3.64566 13.3813 3.40216 13.6546L3.01411 14.09C2.65451 14.108 2.30292 14.2807 2.06849 14.603C1.72378 15.077 1.76299 15.7416 2.16112 16.1717C2.62399 16.6718 3.37673 16.6992 3.87197 16.2852C3.667 16.2144 3.47552 16.0881 3.32134 15.9048V15.9048Z" fill="white"/>
<path d="M10.3172 5.93778C10.2463 5.93778 10.1746 5.91986 10.1087 5.88211C9.90747 5.7668 9.8378 5.51013 9.95311 5.30886L11.1835 3.16129L11.7476 2.1474C11.8604 1.94466 12.1161 1.8718 12.3188 1.98459C12.5215 2.09739 12.5944 2.35315 12.4816 2.55583L11.915 3.57431L10.682 5.72648C10.6044 5.86189 10.4628 5.93778 10.3172 5.93778Z" fill="#F2F2F2"/>
<path d="M11.998 3.26741C12.4602 3.26741 12.8348 2.89274 12.8348 2.43055C12.8348 1.96836 12.4602 1.59369 11.998 1.59369C11.5358 1.59369 11.1611 1.96836 11.1611 2.43055C11.1611 2.89274 11.5358 3.26741 11.998 3.26741Z" fill="white"/>
<path d="M5.89862 5.8904C5.7543 5.8904 5.61379 5.81591 5.53566 5.68234L4.54603 3.9898L3.94841 2.98672C3.82968 2.78745 3.89498 2.52961 4.09424 2.41089C4.29351 2.29216 4.55135 2.3574 4.67007 2.55678L5.26942 3.56283L6.2608 5.25828C6.3779 5.45855 6.31047 5.71578 6.11026 5.83288C6.04362 5.87186 5.9707 5.8904 5.89862 5.8904V5.8904Z" fill="#F2F2F2"/>
<path d="M4.31733 3.75752C4.77952 3.75752 5.1542 3.38285 5.1542 2.92066C5.1542 2.45848 4.77952 2.0838 4.31733 2.0838C3.85515 2.0838 3.48047 2.45848 3.48047 2.92066C3.48047 3.38285 3.85515 3.75752 4.31733 3.75752Z" fill="white"/>
<path d="M7.92589 17.6738C7.69386 17.6738 7.50586 17.4857 7.50586 17.2538V15.1878C7.50586 14.9558 7.69386 14.7678 7.92589 14.7678C8.15791 14.7678 8.34592 14.9558 8.34592 15.1878V17.2538C8.34592 17.4857 8.15786 17.6738 7.92589 17.6738Z" fill="#F2F2F2"/>
<path d="M7.92594 18C8.33808 18 8.67218 17.6659 8.67218 17.2538C8.67218 16.8416 8.33808 16.5075 7.92594 16.5075C7.51379 16.5075 7.17969 16.8416 7.17969 17.2538C7.17969 17.6659 7.51379 18 7.92594 18Z" fill="white"/>
<path d="M15.4697 12.1447C15.434 12.1447 15.3978 12.1401 15.3616 12.1306L14.3211 11.8541C14.318 11.8532 14.3149 11.8524 14.3119 11.8515L11.9793 11.1743C11.7565 11.1096 11.6283 10.8766 11.6931 10.6538C11.7577 10.431 11.991 10.303 12.2135 10.3676L14.5415 11.0434L15.5773 11.3187C15.8015 11.3782 15.935 11.6083 15.8754 11.8324C15.8254 12.0205 15.6555 12.1447 15.4697 12.1447V12.1447Z" fill="#F2F2F2"/>
<path d="M15.3727 12.4337C15.7643 12.4337 16.0818 12.1162 16.0818 11.7246C16.0818 11.3329 15.7643 11.0154 15.3727 11.0154C14.9811 11.0154 14.6636 11.3329 14.6636 11.7246C14.6636 12.1162 14.9811 12.4337 15.3727 12.4337Z" fill="white"/>
<path d="M0.570027 11.5296C0.372838 11.5296 0.19693 11.3901 0.158119 11.1893C0.114044 10.9615 0.262958 10.7412 0.490669 10.6971L1.43848 10.5138C1.44632 10.5122 1.4541 10.511 1.462 10.5099L2.60946 10.3547C2.83941 10.3235 3.05082 10.4847 3.08202 10.7146C3.1131 10.9445 2.95198 11.1561 2.72202 11.1872L1.58638 11.3408L0.65028 11.5219C0.623286 11.5271 0.59646 11.5296 0.570027 11.5296V11.5296Z" fill="#F2F2F2"/>
<path d="M0.707101 11.8877C1.09762 11.8877 1.4142 11.5711 1.4142 11.1806C1.4142 10.7901 1.09762 10.4735 0.707101 10.4735C0.31658 10.4735 0 10.7901 0 11.1806C0 11.5711 0.31658 11.8877 0.707101 11.8877Z" fill="white"/>
<path d="M5.26849 9.69049C5.79755 9.69049 6.22643 9.2616 6.22643 8.73254C6.22643 8.20348 5.79755 7.7746 5.26849 7.7746C4.73943 7.7746 4.31055 8.20348 4.31055 8.73254C4.31055 9.2616 4.73943 9.69049 5.26849 9.69049Z" fill="#F2F2F2"/>
<path d="M8.74521 7.94247C9.17081 7.94247 9.51582 7.59745 9.51582 7.17185C9.51582 6.74626 9.17081 6.40125 8.74521 6.40125C8.31962 6.40125 7.97461 6.74626 7.97461 7.17185C7.97461 7.59745 8.31962 7.94247 8.74521 7.94247Z" fill="#F2F2F2"/>
<path d="M8.22747 13.7579C8.95877 13.7579 9.55161 13.165 9.55161 12.4337C9.55161 11.7024 8.95877 11.1096 8.22747 11.1096C7.49616 11.1096 6.90332 11.7024 6.90332 12.4337C6.90332 13.165 7.49616 13.7579 8.22747 13.7579Z" fill="#F2F2F2"/>
</svg>
