<svg width="18" height="18" viewBox="0 0 18 18" fill="none" xmlns="http://www.w3.org/2000/svg">
<rect x="1.26709" y="1" width="16" height="16" rx="4" stroke="white"/>
<path d="M14.2667 7.54973V10.4503C14.2667 10.7177 14.0501 10.9347 13.7822 10.9347H11.2019V13.5155C11.2019 13.783 10.9848 14 10.7174 14H7.81687C7.54944 14 7.33239 13.783 7.33239 13.5155V10.9347H4.75156C4.48365 10.9347 4.26709 10.7177 4.26709 10.4503V7.54973C4.26709 7.2823 4.48365 7.06526 4.75156 7.06526H7.33239V4.48447C7.33239 4.21704 7.54944 4 7.81687 4H10.7174C10.9849 4 11.2019 4.21704 11.2019 4.48447V7.06526H13.7823C14.0501 7.06526 14.2667 7.2823 14.2667 7.54973Z" fill="#F2F2F2"/>
<path d="M14.2669 7.54973V10.4503C14.2669 10.7177 14.0503 10.9347 13.7824 10.9347H11.2021V13.5155C11.2021 13.783 10.985 14 10.7176 14H9.26709V4H10.7176C10.985 4 11.2021 4.21704 11.2021 4.48447V7.06526H13.7824C14.0503 7.06526 14.2669 7.2823 14.2669 7.54973Z" fill="white"/>
</svg>
