<svg width="150" height="148" viewBox="0 0 150 148" fill="none" xmlns="http://www.w3.org/2000/svg">
<g clip-path="url(#clip0)">
<path d="M68.7685 0.0127299C49.6428 0.349971 20.0518 7.60874 11.5341 26.2625C8.55932 32.7776 8.76074 42.3555 9.16346 61.5113C9.28179 67.1416 9.47816 75.3481 10.8568 85.5304C13.7206 106.682 15.6702 121.082 23.0487 129.466C41.5369 150.475 108.321 149.868 136.84 112.045C152.397 91.4121 154.79 62.0612 140.565 37.8041C124.904 11.0976 94.3732 -0.438722 68.7685 0.0127299Z" fill="#F4F7FA"/>
<path d="M84.2469 161.54L94.4436 167.101C94.4436 167.101 99.2208 162.927 98.7388 157.879C97.7553 147.581 106.86 147.44 110.664 146.811C116.402 145.863 120.393 142.772 117.001 137.505C113.162 131.545 122.32 126.249 131.807 126.051C141.091 125.858 146.103 109.273 125.971 107.85C113.948 107 109.884 118 106.508 123.068C103.132 128.135 94.9644 124.252 94.1201 132.231C93.3988 139.047 95.5863 145.496 90.1369 147.481C84.6875 149.465 81.9974 153.555 84.2469 161.54Z" fill="#006430"/>
<g style="mix-blend-mode:soft-light" opacity="0.5">
<g style="mix-blend-mode:soft-light" opacity="0.5">
<path d="M88.1428 164.891L88.3758 164.968C88.4234 164.824 93.2422 150.423 102.332 137.584C110.706 125.756 124.523 112.873 142.797 118.665L142.871 118.432C134.737 115.853 126.794 116.697 119.264 120.94C113.248 124.329 107.483 129.882 102.128 137.447C93.019 150.315 88.1906 164.747 88.1428 164.891Z" fill="#E6F6EC"/>
</g>
<g style="mix-blend-mode:soft-light" opacity="0.5">
<path d="M116.194 122.848L116.422 122.938C119.421 115.358 127.648 106.754 127.73 106.668L127.553 106.499C127.47 106.585 119.21 115.224 116.194 122.848Z" fill="#E6F6EC"/>
</g>
<g style="mix-blend-mode:soft-light" opacity="0.5">
<path d="M121.289 120.158C131.002 119.604 136.589 125.458 136.644 125.517L136.823 125.351C136.767 125.29 131.107 119.352 121.275 119.914L121.289 120.158Z" fill="#E6F6EC"/>
</g>
<g style="mix-blend-mode:soft-light" opacity="0.5">
<path d="M96.8473 146.301C104.799 137.483 119.962 142.526 120.106 142.587L120.217 142.369C120.082 142.296 104.687 137.241 96.665 146.137L96.8473 146.301Z" fill="#E6F6EC"/>
</g>
<g style="mix-blend-mode:soft-light" opacity="0.5">
<path d="M99.1305 141.972L99.3653 142.043C101.57 134.799 96.9515 126.469 96.9045 126.385L96.6907 126.505C96.7371 126.588 101.305 134.829 99.1305 141.972Z" fill="#E6F6EC"/>
</g>
<g style="mix-blend-mode:soft-light" opacity="0.5">
<path d="M90.2792 159.293L90.5112 159.373C91.6712 156.002 88.8827 150.022 87.9663 148.057C87.8368 147.78 87.7251 147.54 87.7136 147.493L87.4746 147.549C87.49 147.615 87.5637 147.774 87.7439 148.161C88.6499 150.104 91.407 156.016 90.2792 159.293Z" fill="#E6F6EC"/>
</g>
</g>
<path d="M105.614 121.95C106.93 124.221 105.986 126.585 105.034 128.189C104.782 128.2 104.639 128.271 104.388 128.339C102.122 128.952 101.024 128.731 98.695 128.983C98.1937 129.037 96.6736 128.75 96.0601 128.592L94.9209 128.281C94.9209 128.281 92.5567 122.721 95.5588 121.038C98.5609 119.354 96.9864 113.79 96.5163 110.74C96.2276 108.866 96.6967 107.917 96.7015 107.212C96.7504 99.7462 94.3869 97.659 95.8969 95.241C97.5638 92.5716 100.921 94.3513 102.888 91.5431C105.109 88.3721 102.319 83.974 105.093 81.4421C105.569 81.008 106.069 80.5749 106.88 80.2909C108.882 79.59 110.596 80.6863 111.959 78.9411C114.7 75.4329 119.439 74.0223 122.553 77.3925C125.626 80.7186 122.647 87.708 114.453 93.5604C109.101 98.3856 109.107 99.7651 109.782 103.098C110.255 105.432 113.087 111.448 109.82 114.028C106.553 116.608 104.109 119.353 105.614 121.95Z" fill="#008444"/>
<g style="mix-blend-mode:soft-light" opacity="0.5">
<g style="mix-blend-mode:soft-light" opacity="0.5">
<path d="M99.9195 129.021L99.7473 129.008C99.8095 128.059 99.885 127.102 99.9716 126.165C100.613 119.226 101.931 112.606 103.89 106.49C105.55 101.307 107.692 96.4129 110.257 91.9423C112.319 88.347 114.665 85.0051 117.228 82.0094C118.958 79.9768 120.836 78.0749 122.847 76.3194C123.183 76.0284 123.544 75.7485 123.894 75.4778C124.359 75.1172 124.84 74.7443 125.265 74.3422L125.389 74.4551C124.959 74.8628 124.474 75.2382 124.006 75.6013C123.658 75.8707 123.299 76.1492 122.967 76.4372C120.961 78.1874 119.089 80.0835 117.364 82.1101C114.807 85.0983 112.467 88.4323 110.409 92.0193C107.85 96.4807 105.712 101.366 104.056 106.538C102.1 112.644 100.784 119.253 100.143 126.181C100.057 127.117 99.9816 128.073 99.9195 129.021Z" fill="#FCFDFE"/>
</g>
<g style="mix-blend-mode:soft-light" opacity="0.5">
<path d="M107.535 97.582L107.374 97.5204C110.088 91.187 106.547 79.8323 106.511 79.7184L106.677 79.6761C106.713 79.7908 110.27 91.1979 107.535 97.582Z" fill="#FCFDFE"/>
</g>
<g style="mix-blend-mode:soft-light" opacity="0.5">
<path d="M101.632 115.947L101.465 115.903C102.762 111.389 111.505 107.591 111.594 107.553L111.669 107.698C111.581 107.736 102.908 111.503 101.632 115.947Z" fill="#FCFDFE"/>
</g>
<g style="mix-blend-mode:soft-light" opacity="0.5">
<path d="M101.136 118.572L100.965 118.555C101.232 115.506 99.836 111.183 97.0331 106.382C96.8922 106.141 96.8922 106.141 96.8942 106.11L97.0663 106.124L96.9803 106.117L97.062 106.094C97.0694 106.111 97.1225 106.202 97.1843 106.308C100.003 111.136 101.407 115.491 101.136 118.572Z" fill="#FCFDFE"/>
</g>
<g style="mix-blend-mode:soft-light" opacity="0.5">
<path d="M100.059 127.29L99.8987 127.229C101.22 124.108 106.37 122.689 106.422 122.675L106.473 122.829C106.422 122.843 101.351 124.241 100.059 127.29Z" fill="#FCFDFE"/>
</g>
<g style="mix-blend-mode:soft-light" opacity="0.5">
<path d="M99.66 129.044C98.8297 126.418 97.1633 123.913 94.5654 121.384L94.6893 121.275C97.307 123.823 98.9871 126.351 99.8255 129.002L99.66 129.044Z" fill="#FCFDFE"/>
</g>
<g style="mix-blend-mode:soft-light" opacity="0.5">
<path d="M115.886 83.8985L115.729 83.8289C117.452 80.3895 118.393 76.3902 118.702 75.0761C118.777 74.7577 118.804 74.646 118.82 74.6088L118.98 74.6724C118.968 74.701 118.925 74.8829 118.871 75.1131C118.56 76.4315 117.616 80.4434 115.886 83.8985Z" fill="#FCFDFE"/>
</g>
<g style="mix-blend-mode:soft-light" opacity="0.5">
<path d="M112.184 89.0901L112.056 88.9811C114.634 86.3585 122.356 86.1264 122.683 86.1178L122.692 86.2776C122.612 86.2798 114.714 86.5165 112.184 89.0901Z" fill="#FCFDFE"/>
</g>
</g>
<path d="M99.7961 146.406C99.2164 146.263 100.262 143.313 99.001 139.234C98.686 138.216 97.354 132.54 93.0126 131.881L90.4845 131.497C89.9768 129.515 89.8661 127.553 92.518 127.124C96.6364 126.457 97.4116 119.814 96.5541 117.333C95.4929 114.262 93.1753 107.068 99.5226 105.941C104.806 105.003 108.447 105.426 109.441 99.229C110.436 93.0315 114.437 89.5568 120.386 90.6225C126.647 91.744 132.622 84.4171 137.514 87.6671C146.038 93.3302 136.487 106.134 125.143 108.849C113.798 111.563 119.693 116.016 119.468 121.156C119.398 121.856 119.245 122.544 119.012 123.208C117.19 128.39 111.518 128.663 107.031 132.56C100.913 137.874 100.773 146.646 99.7961 146.406Z" fill="#16A75C"/>
<g style="mix-blend-mode:soft-light" opacity="0.5">
<g style="mix-blend-mode:soft-light" opacity="0.5">
<path d="M98.284 131.906L97.9983 131.816C104.419 112.186 120.946 95.8565 141.129 89.1989L141.233 89.4667C121.136 96.0964 104.679 112.358 98.284 131.906Z" fill="#FCFDFE"/>
</g>
<g style="mix-blend-mode:soft-light" opacity="0.5">
<path d="M102.76 121.512L102.463 121.477C103.316 113.402 96.6652 106.235 96.5979 106.164L96.8186 105.978C96.8868 106.051 103.626 113.31 102.76 121.512Z" fill="#FCFDFE"/>
</g>
<g style="mix-blend-mode:soft-light" opacity="0.5">
<path d="M99.5699 128.328L99.3223 128.164C104.197 121.45 120.045 122.308 120.205 122.318L120.194 122.601C120.036 122.591 104.352 121.742 99.5699 128.328Z" fill="#FCFDFE"/>
</g>
<g style="mix-blend-mode:soft-light" opacity="0.5">
<path d="M115.17 105.282L114.909 105.138C118.274 99.5066 115.127 89.8479 115.094 89.751L115.379 89.6724C115.412 89.7706 118.597 99.5469 115.17 105.282Z" fill="#FCFDFE"/>
</g>
<g style="mix-blend-mode:soft-light" opacity="0.5">
<path d="M125.659 96.9312L125.528 96.6731C132.609 93.5944 142.716 96.9679 142.817 97.0025L142.723 97.2689C142.623 97.2347 132.629 93.9003 125.659 96.9312Z" fill="#FCFDFE"/>
</g>
</g>
<path d="M61.7716 143.211L51.5748 148.772C51.5748 148.772 46.7976 144.597 47.2796 139.55C48.2631 129.252 39.1585 129.111 35.3539 128.482C29.6164 127.534 25.625 124.443 29.0178 119.176C32.8566 113.216 23.6988 107.92 14.2114 107.722C4.9276 107.529 -0.0848904 90.9437 20.0473 89.5208C32.0704 88.6711 36.1346 99.6708 39.5103 104.738C42.8859 109.806 51.054 105.923 51.8983 113.902C52.6196 120.718 50.4321 127.167 55.8815 129.152C61.331 131.136 64.021 135.226 61.7716 143.211Z" fill="#006430"/>
<g style="mix-blend-mode:soft-light" opacity="0.5">
<g style="mix-blend-mode:soft-light" opacity="0.5">
<path d="M57.8756 146.562L57.6426 146.639C57.5951 146.495 52.7763 132.093 43.6867 119.255C35.3129 107.427 21.495 94.5432 3.22145 100.336L3.14722 100.103C11.2817 97.5239 19.2243 98.3675 26.7547 102.61C32.7701 106 38.5352 111.553 43.8899 119.117C52.9994 131.986 57.8279 146.418 57.8756 146.562Z" fill="#E6F6EC"/>
</g>
<g style="mix-blend-mode:soft-light" opacity="0.5">
<path d="M29.8246 104.519L29.5963 104.609C26.597 97.0291 18.3707 88.4252 18.2881 88.3391L18.465 88.1697C18.5481 88.256 26.8078 96.8948 29.8246 104.519Z" fill="#E6F6EC"/>
</g>
<g style="mix-blend-mode:soft-light" opacity="0.5">
<path d="M24.7296 101.829C15.0165 101.275 9.43001 107.129 9.37476 107.188L9.19531 107.022C9.25139 106.961 14.9116 101.023 24.7436 101.585L24.7296 101.829Z" fill="#E6F6EC"/>
</g>
<g style="mix-blend-mode:soft-light" opacity="0.5">
<path d="M49.171 127.972C41.2194 119.154 26.0561 124.197 25.9126 124.258L25.8015 124.04C25.9367 123.967 41.3311 118.911 49.3533 127.808L49.171 127.972Z" fill="#E6F6EC"/>
</g>
<g style="mix-blend-mode:soft-light" opacity="0.5">
<path d="M46.888 123.643L46.6531 123.714C44.4483 116.47 49.0671 108.14 49.114 108.056L49.3279 108.176C49.2814 108.259 44.7137 116.5 46.888 123.643Z" fill="#E6F6EC"/>
</g>
<g style="mix-blend-mode:soft-light" opacity="0.5">
<path d="M56.8342 144.39C54.3657 140.616 47.017 140.569 46.9431 140.569V140.324C47.2503 140.324 54.4982 140.371 57.0395 144.256L56.8342 144.39Z" fill="#E6F6EC"/>
</g>
<g style="mix-blend-mode:soft-light" opacity="0.5">
<path d="M55.7392 140.964L55.5071 141.043C54.3472 137.673 57.1357 131.693 58.052 129.728C58.1815 129.451 58.2932 129.211 58.3047 129.164L58.5437 129.219C58.5283 129.285 58.4546 129.445 58.2743 129.832C57.3684 131.774 54.6115 137.687 55.7392 140.964Z" fill="#E6F6EC"/>
</g>
</g>
<path d="M40.4049 103.62C39.0891 105.892 40.0331 108.256 40.9847 109.859C41.2368 109.871 41.3792 109.942 41.6303 110.01C43.8966 110.622 44.9942 110.402 47.3236 110.654C47.8249 110.708 49.345 110.42 49.9586 110.263L51.0977 109.951C51.0977 109.951 53.4619 104.392 50.4598 102.708C47.4576 101.025 49.0322 95.4605 49.5023 92.4101C49.791 90.5369 49.3219 89.5879 49.3171 88.8826C49.2682 81.4167 51.6317 79.3295 50.1217 76.9115C48.4548 74.2422 45.0975 76.0218 43.1305 73.2137C40.9094 70.0427 43.6991 65.6445 40.9255 63.1126C40.45 62.6785 39.9495 62.2454 39.1384 61.9614C37.1363 61.2606 35.4224 62.3569 34.0592 60.6116C31.3189 57.1035 26.5791 55.6929 23.4656 59.063C20.3927 62.3891 23.3715 69.3785 31.5655 75.231C36.9174 80.0562 36.9118 81.4356 36.2365 84.7682C35.7635 87.1024 32.932 93.1183 36.1985 95.6985C39.465 98.2788 41.9094 101.023 40.4049 103.62Z" fill="#008444"/>
<g style="mix-blend-mode:soft-light" opacity="0.5">
<g style="mix-blend-mode:soft-light" opacity="0.5">
<path d="M46.0991 110.692L46.2712 110.679C46.209 109.729 46.1335 108.773 46.047 107.836C45.4056 100.897 44.0872 94.2771 42.1283 88.1608C40.4683 82.9782 38.3264 78.0836 35.7619 73.613C33.6996 70.0177 31.3541 66.6758 28.7905 63.6802C27.0608 61.6475 25.1826 59.7457 23.1713 57.9902C22.8356 57.6991 22.4744 57.4193 22.1251 57.1486C21.6596 56.788 21.1784 56.4151 20.7538 56.0129L20.6294 56.1259C21.0597 56.5336 21.5442 56.909 22.0128 57.2721C22.3604 57.5414 22.7198 57.8199 23.052 58.108C25.0574 59.8581 26.93 61.7543 28.6545 63.7808C31.2119 66.769 33.5518 70.103 35.6094 73.69C38.1685 78.1514 40.3061 83.0364 41.963 88.2088C43.9187 94.3148 45.235 100.924 45.8753 107.852C45.9616 108.788 46.037 109.743 46.0991 110.692Z" fill="#FCFDFE"/>
</g>
<g style="mix-blend-mode:soft-light" opacity="0.5">
<path d="M38.4835 79.2526L38.6441 79.1909C35.93 72.8575 39.471 61.5028 39.5071 61.3889L39.3417 61.3467C39.3054 61.4614 35.7478 72.8685 38.4835 79.2526Z" fill="#FCFDFE"/>
</g>
<g style="mix-blend-mode:soft-light" opacity="0.5">
<path d="M44.3864 97.6176L44.5532 97.5737C43.2567 93.0597 34.5131 89.2614 34.4249 89.2235L34.3499 89.3688C34.4373 89.4064 43.11 93.1739 44.3864 97.6176Z" fill="#FCFDFE"/>
</g>
<g style="mix-blend-mode:soft-light" opacity="0.5">
<path d="M44.8818 100.242L45.0537 100.226C44.7862 97.1766 46.1822 92.8532 48.985 88.0524C49.1259 87.811 49.126 87.811 49.1239 87.7808L48.9518 87.7949L49.0379 87.7878L48.9562 87.7646C48.9488 87.7816 48.8956 87.8729 48.8338 87.9785C46.0148 92.8067 44.6114 97.1619 44.8818 100.242Z" fill="#FCFDFE"/>
</g>
<g style="mix-blend-mode:soft-light" opacity="0.5">
<path d="M45.9591 108.961L46.1198 108.9C44.7983 105.779 39.6484 104.36 39.5964 104.346L39.5449 104.5C39.5965 104.514 44.6678 105.912 45.9591 108.961Z" fill="#FCFDFE"/>
</g>
<g style="mix-blend-mode:soft-light" opacity="0.5">
<path d="M46.3586 110.715C47.1889 108.089 48.8553 105.583 51.4531 103.055L51.3292 102.945C48.7115 105.494 47.0315 108.021 46.1931 110.673L46.3586 110.715Z" fill="#FCFDFE"/>
</g>
<g style="mix-blend-mode:soft-light" opacity="0.5">
<path d="M30.1325 65.5695L30.2892 65.4998C28.5668 62.0603 27.6256 58.0611 27.3164 56.7469C27.2415 56.4287 27.2148 56.3169 27.1981 56.2795L27.0386 56.3432C27.0509 56.3718 27.0937 56.5537 27.1478 56.7839C27.458 58.1023 28.4023 62.1143 30.1325 65.5695Z" fill="#FCFDFE"/>
</g>
<g style="mix-blend-mode:soft-light" opacity="0.5">
<path d="M33.8341 70.7609L33.9627 70.6519C31.3846 68.0293 23.6626 67.7972 23.3351 67.7886L23.3269 67.9484C23.4062 67.9505 31.3042 68.1872 33.8341 70.7609Z" fill="#FCFDFE"/>
</g>
</g>
<path d="M46.2224 128.077C46.8021 127.934 45.7566 124.984 47.0175 120.905C47.3325 119.886 48.6645 114.21 53.0059 113.551L55.5339 113.168C56.0416 111.186 56.1523 109.224 53.5004 108.795C49.3821 108.128 48.6069 101.485 49.4643 99.0042C50.5256 95.9332 52.8431 88.7386 46.4959 87.6118C41.2119 86.6737 37.5716 87.0973 36.5766 80.8998C35.5817 74.7024 31.5812 71.2277 25.6318 72.2934C19.3707 73.4148 13.3961 66.088 8.50424 69.338C-0.0196333 75.0012 9.53076 87.8054 20.8757 90.5197C32.2206 93.2339 26.3253 97.687 26.5506 102.827C26.6206 103.527 26.7734 104.215 27.0059 104.879C28.8286 110.061 34.5005 110.334 38.9871 114.231C45.1059 119.545 45.2457 128.317 46.2224 128.077Z" fill="#16A75C"/>
<g style="mix-blend-mode:soft-light" opacity="0.5">
<g style="mix-blend-mode:soft-light" opacity="0.5">
<path d="M47.7348 113.577L48.0205 113.487C41.5993 93.8578 25.0727 77.5272 4.89009 70.8699L4.7854 71.1377C24.883 77.7673 41.3403 94.0293 47.7348 113.577Z" fill="#FCFDFE"/>
</g>
<g style="mix-blend-mode:soft-light" opacity="0.5">
<path d="M43.2585 103.184L43.556 103.148C42.7031 95.0735 49.3536 87.9065 49.4209 87.8351L49.2002 87.6495C49.132 87.7217 42.3923 94.9815 43.2585 103.184Z" fill="#FCFDFE"/>
</g>
<g style="mix-blend-mode:soft-light" opacity="0.5">
<path d="M46.4488 109.999L46.6964 109.835C41.8219 103.121 25.9737 103.979 25.814 103.989L25.8249 104.272C25.9827 104.262 41.667 103.413 46.4488 109.999Z" fill="#FCFDFE"/>
</g>
<g style="mix-blend-mode:soft-light" opacity="0.5">
<path d="M30.8484 86.9533L31.1096 86.809C27.7453 81.1775 30.8921 71.5188 30.9244 71.4219L30.6396 71.3431C30.6067 71.4412 27.4221 81.2178 30.8484 86.9533Z" fill="#FCFDFE"/>
</g>
<g style="mix-blend-mode:soft-light" opacity="0.5">
<path d="M20.36 78.6023L20.4906 78.3442C13.4098 75.2652 3.30282 78.639 3.20142 78.6736L3.29577 78.94C3.39583 78.9058 13.3896 75.5712 20.36 78.6023Z" fill="#FCFDFE"/>
</g>
</g>
<path d="M98.6416 52.8184L99.2707 51.4353C99.5065 50.9166 99.3666 50.2943 98.9575 50.0436L97.3288 49.0447C97.778 47.7721 98.0817 46.4529 98.2342 45.1122L100.052 44.9849C100.521 44.9522 100.9 44.4632 100.9 43.8927V42.3753C100.9 41.8048 100.521 41.3639 100.052 41.3907L98.282 41.492C98.1665 40.1598 97.8906 38.8463 97.4604 37.5799L98.9575 36.4715C99.0052 36.4356 99.0493 36.3953 99.0893 36.3511L99.2809 36.8482L101.74 33.8297L98.5298 33.5563C98.467 33.471 98.3876 33.3991 98.2964 33.345C98.2053 33.2908 98.1041 33.2554 97.999 33.241C97.8084 33.2203 97.617 33.273 97.464 33.3885L95.9852 34.4613C95.3135 33.3782 94.4918 32.3952 93.5446 31.5415L93.656 31.3093L95.9162 31.7702L96.2033 28.035L92.7706 27.4695C92.3759 27.3176 91.9295 27.51 91.7124 27.9571L90.8592 29.7134C89.7629 29.1694 90.6714 28.5966 89.4254 28.4307L90.7286 26.5152C90.7286 25.9183 86.9113 25.5205 86.3957 25.5205H85.0154C84.4929 25.5205 84.068 26.0111 84.068 26.6162V28.6675C82.7781 28.8677 81.5287 29.2726 80.3669 29.8668L82.7246 28.1376C82.7246 28.1376 78.5718 27.3524 78.0993 27.6639L76.8356 28.4974C76.3576 28.8127 76.1935 29.5025 76.47 30.0365L77.4258 31.8828C76.3796 32.8128 75.9344 33.3494 75.1425 34.5771L72.9222 34.0767C72.4317 33.776 71.8023 33.98 71.5172 34.5343L70.7566 36.0133C70.4696 36.5714 70.6399 37.266 71.1362 37.5629L72.9265 38.6341C72.4197 40.0413 72.0914 41.5064 71.949 42.995L69.8013 43.1176C69.2232 43.1506 68.7529 43.6936 68.7529 44.3302V46.0234C68.7529 46.6006 69.14 47.0504 69.643 47.0992L69.6427 47.1L72.0835 47.4898C72.2773 48.7196 72.6123 49.923 73.0819 51.0763L71.1362 52.4878C70.6399 52.8477 70.4696 53.564 70.7566 54.0856L71.5172 55.4681C71.8023 55.9862 76.3259 56.3013 76.3259 56.3013L74.8897 54.2905C75.6552 55.3233 76.5699 56.2372 77.6038 57.0024L76.47 59.3366C76.1935 59.9057 76.3576 60.5747 76.8356 60.8292L78.0993 61.5019C78.1771 61.543 78.261 61.5714 78.3478 61.5858L78.3427 61.6094L82.2851 62.0943L82.671 59.1241C83.1336 59.1952 83.6002 59.2373 84.0681 59.2503V61.7911C84.0681 62.2431 84.305 62.6004 84.6424 62.7252L84.6251 62.7994L88.531 63.2862L88.6092 58.4686C89.3249 58.1965 90.0149 57.8614 90.6711 57.4672L91.7124 59.4786C91.7663 59.5914 91.8463 59.6897 91.9459 59.7654C92.0456 59.8411 92.1618 59.8919 92.2851 59.9137V59.9145L96.06 60.4244L94.767 56.8729L94.2453 57.0328L93.3851 55.3489C94.3027 54.4351 95.1067 53.4141 95.7795 52.3082L97.4641 53.3162C97.8774 53.5636 98.4044 53.3401 98.6416 52.8184ZM85.7071 51.517C82.0114 51.8456 78.9462 48.6087 78.9462 44.2798C78.9462 39.9509 82.0114 36.3296 85.7071 36.1946C89.3117 36.0631 92.1691 39.313 92.1691 43.4506C92.1691 47.5882 89.3117 51.1965 85.7071 51.517ZM101.491 43.2047L104.048 41.9965L101.491 41.6867V43.2047ZM98.3517 53.5172L101.277 53.9111L101.704 52.9154L99.2807 51.4449L98.3517 53.5172Z" fill="#BFC8D6"/>
<path d="M103.822 41.9518L102.062 42.0533C101.947 40.7251 101.673 39.4155 101.245 38.1526L102.733 37.0468C103.14 36.7446 103.279 36.106 103.045 35.6192L102.419 34.3199C102.183 33.8298 101.659 33.674 101.248 33.9732L99.778 35.0436C99.1104 33.9642 98.2933 32.9845 97.3511 32.1333L98.1972 30.3643C98.4399 29.8567 98.2959 29.2142 97.8748 28.9275L96.7488 28.161C96.323 27.8712 95.7767 28.0491 95.5295 28.5598L94.6813 30.3115C93.5786 29.7615 92.3922 29.3978 91.1703 29.2352V27.2125C91.1703 26.6158 90.756 26.1322 90.2432 26.1324L88.8708 26.1331C88.3512 26.1331 87.9289 26.6227 87.9289 27.2261V29.2715C86.6461 29.4718 85.4037 29.8761 84.249 30.4689L83.3321 28.6695C83.0627 28.1405 82.4642 27.9625 81.9945 28.2734L80.7381 29.1051C80.2628 29.4196 80.0997 30.1075 80.3745 30.6398L81.3249 32.4805C80.2628 33.4333 79.3351 34.5254 78.567 35.727L76.8473 34.67C76.3596 34.3703 75.7338 34.5741 75.4504 35.1271L74.6942 36.6023C74.4088 37.1589 74.5783 37.8514 75.0716 38.1473L76.8516 39.2145C76.3477 40.6181 76.0212 42.079 75.8798 43.5632L73.7445 43.6865C73.1697 43.7197 72.7021 44.2612 72.7021 44.896V46.5842C72.7021 47.219 73.1697 47.7006 73.7445 47.6601L75.9364 47.5053C76.1118 48.9178 76.4714 50.3014 77.0062 51.6208L75.0718 53.029C74.5785 53.3881 74.4091 54.1022 74.6944 54.6223L75.4507 56.0005C75.7341 56.517 76.3599 56.6404 76.8475 56.2782L78.8037 54.8248C79.5644 55.854 80.4737 56.7649 81.5021 57.5279L80.3748 59.8557C80.1 60.4233 80.2631 61.0903 80.7383 61.3439L81.9947 62.0143C82.4645 62.265 83.063 62.0101 83.3324 61.4467L84.4499 59.1101C85.5669 59.5139 86.7416 59.7357 87.9291 59.767V62.3006C87.9291 62.904 88.3515 63.3392 88.871 63.2728L90.2434 63.0973C90.7562 63.0318 91.1705 62.4951 91.1705 61.8984V59.3929C92.3405 59.0864 93.46 58.6127 94.4944 57.9867L95.5297 59.9918C95.777 60.4708 96.3233 60.5786 96.749 60.2342L97.875 59.3233C98.2961 58.9826 98.4401 58.3216 98.1974 57.8452L97.1927 55.8732C98.1053 54.9612 98.9047 53.9429 99.5735 52.8402L101.249 53.8447C101.66 54.0912 102.184 53.8681 102.42 53.3478L103.045 51.9684C103.279 51.4513 103.14 50.8306 102.734 50.5807L101.114 49.5853C101.561 48.3159 101.863 47.0004 102.014 45.6636L103.822 45.536C104.288 45.503 104.665 45.0153 104.665 44.4464V42.9335C104.664 42.3644 104.288 41.925 103.822 41.9518ZM89.5585 52.0551C85.8841 52.3842 82.8365 49.1579 82.8365 44.8414C82.8365 40.5249 85.8841 36.9128 89.5585 36.7767C93.1424 36.6439 95.9836 39.8833 95.9836 44.0092C95.9836 48.135 93.1424 51.7341 89.5585 52.0551Z" fill="#D8DEE8"/>
<path d="M58.8196 43.9407L59.6612 42.0902C59.9767 41.3966 59.7895 40.5637 59.2423 40.2281L57.0631 38.8917C57.6642 37.1891 58.0706 35.4241 58.2748 33.6304L60.7071 33.4601C61.3341 33.4163 61.8407 32.762 61.8407 31.9987V29.9689C61.8407 29.2056 61.3341 28.6158 60.7071 28.6516L58.3385 28.7868C58.1839 27.0044 57.8148 25.247 57.2393 23.5527L59.2423 22.0698C59.306 22.0218 59.365 21.9679 59.4185 21.9087L59.6749 22.5738L62.9649 18.5354L58.6698 18.1696C58.5857 18.0555 58.4796 17.9594 58.3576 17.8869C58.2357 17.8144 58.1004 17.7671 57.9598 17.7478C57.7048 17.7201 57.4488 17.7907 57.2442 17.9451L55.2658 19.3804C54.367 17.9313 53.2677 16.6162 52.0004 15.474L52.1496 15.1633L55.1737 15.78L55.5572 10.7824L50.9647 10.0259C50.4366 9.82265 49.8394 10.08 49.5489 10.678L48.4075 13.0278C46.9407 12.3 48.1562 11.5334 46.4891 11.3117L48.2327 8.74868C48.2327 7.95008 43.1256 7.41785 42.4356 7.41785H40.5887C39.8898 7.41785 39.3213 8.0742 39.3213 8.88379V11.6282C37.5956 11.8961 35.9239 12.4378 34.3696 13.2327L37.5239 10.9193C37.5239 10.9193 31.9677 9.86866 31.3358 10.2856L29.645 11.4006C29.0055 11.8224 28.7859 12.7453 29.1558 13.4599L30.4347 15.9301C29.035 17.1743 28.4392 17.8922 27.3799 19.5348L24.4094 18.8655C23.7532 18.463 22.9111 18.7361 22.5297 19.4777L21.512 21.4566C21.128 22.2033 21.3559 23.1326 22.0199 23.5299L24.415 24.963C23.7369 26.8458 23.2976 28.8058 23.1072 30.7975L20.2337 30.9615C19.4602 31.0056 18.8311 31.732 18.8311 32.5839V34.8491C18.8311 35.6214 19.3489 36.2231 20.022 36.2885L20.0218 36.2895L23.2873 36.811C23.5466 38.4564 23.9948 40.0664 24.6231 41.6094L22.0199 43.4978C21.3562 43.9795 21.128 44.9377 21.512 45.6356L22.5297 47.4853C22.9111 48.1785 28.9633 48.6 28.9633 48.6L27.0417 45.9097C28.0659 47.2915 29.2896 48.5143 30.6729 49.538L29.1559 52.6611C28.786 53.4225 29.0056 54.3175 29.645 54.658L31.3358 55.5582C31.4399 55.6133 31.5521 55.6512 31.6683 55.6705L31.6615 55.7021L36.9362 56.3509L37.4522 52.377C38.0711 52.4722 38.6954 52.5285 39.3213 52.5457V55.9453C39.3213 56.5497 39.6383 57.0281 40.0897 57.195L40.0666 57.2943L45.2923 57.9456L45.3969 51.5002C46.3544 51.1361 47.2776 50.6878 48.1556 50.1605L49.5488 52.8514C49.7218 53.1857 50.0038 53.3839 50.3149 53.4336V53.4347L55.3653 54.1169L53.6356 49.3654L52.9376 49.5793L51.7867 47.3264C53.0144 46.1037 54.09 44.7378 54.9902 43.2582L57.2441 44.6069C57.7972 44.9378 58.5022 44.6386 58.8196 43.9407ZM41.5144 42.1998C36.57 42.6394 32.4691 38.3088 32.4691 32.517C32.4691 26.7253 36.57 21.8805 41.5144 21.7C46.337 21.5239 50.16 25.872 50.16 31.4077C50.16 36.9434 46.337 41.7708 41.5144 42.1996V42.1998ZM62.6317 31.0787L66.0529 29.4622L62.6317 29.0478V31.0787ZM58.4321 44.8758L62.346 45.4028L62.9173 44.0707L59.6749 42.1034L58.4321 44.8758Z" fill="#BFC8D6"/>
<path d="M65.7505 29.4024L63.3953 29.5381C63.2416 27.7611 62.8746 26.009 62.3023 24.3193L64.2939 22.8398C64.8381 22.4355 65.0244 21.5813 64.7106 20.9295L63.8738 19.1914C63.5581 18.5357 62.8571 18.3272 62.3071 18.7275L60.3398 20.1597C59.4466 18.7156 58.3535 17.4048 57.0929 16.2659L58.2248 13.8992C58.5495 13.2201 58.3569 12.3605 57.7935 11.977L56.2869 10.9515C55.7173 10.5638 54.9865 10.8017 54.6555 11.4851L53.5206 13.8287C52.0454 13.0928 50.4582 12.6062 48.8236 12.3886V9.68225C48.8236 8.8839 48.2692 8.237 47.5832 8.2373L45.747 8.23813C45.0521 8.23843 44.4869 8.89314 44.4869 9.70043V12.437C42.7705 12.705 41.1083 13.246 39.5634 14.0392L38.3367 11.6316C37.9763 10.9241 37.1755 10.6859 36.5471 11.1018L34.8661 12.2145C34.2303 12.6356 34.012 13.5557 34.3797 14.2678L35.6512 16.7304C34.2303 18.0052 32.989 19.4664 31.9613 21.074L29.6605 19.66C29.0082 19.259 28.1709 19.5316 27.7917 20.2711L26.7799 22.2448C26.3981 22.9894 26.6248 23.916 27.2848 24.3118L29.6661 25.7398C28.9919 27.6176 28.5551 29.5721 28.3658 31.5579L25.509 31.7226C24.74 31.767 24.1145 32.4916 24.1145 33.3409V35.5995C24.1145 36.4488 24.74 37.0932 25.509 37.0389L28.4415 36.8318C28.676 38.7216 29.1572 40.5727 29.8727 42.3379L27.2846 44.2219C26.6246 44.7024 26.3979 45.658 26.7797 46.3537L27.7915 48.1976C28.1707 48.8885 29.0079 49.0537 29.6603 48.5691L32.2774 46.6248C33.2952 48.0017 34.5119 49.2204 35.8877 50.2412L34.3795 53.3557C34.0118 54.115 34.2303 55.0074 34.8658 55.3467L36.5468 56.2437C37.1753 56.5791 37.976 56.2381 38.3365 55.4843L39.8317 52.3579C41.3262 52.8982 42.898 53.1949 44.4869 53.2367V56.6265C44.4869 57.4337 45.0521 58.0159 45.7471 57.9271L47.5833 57.6924C48.2693 57.6047 48.8236 56.8867 48.8236 56.0883V52.7362C50.389 52.3261 51.8868 51.6924 53.2706 50.8548L54.6558 53.5375C54.9867 54.1784 55.7176 54.3226 56.2872 53.8618L57.7937 52.643C58.3571 52.1873 58.55 51.3027 58.225 50.6655L56.8809 48.0273C58.1019 46.8072 59.1714 45.4448 60.0661 43.9695L62.3072 45.3134C62.8572 45.6432 63.5582 45.3448 63.8739 44.6486L64.7106 42.8033C65.0244 42.1115 64.8382 41.2811 64.2939 40.9466L62.1272 39.6148C62.7249 37.9166 63.129 36.1566 63.3319 34.368L65.7505 34.1972C66.3738 34.1532 66.8776 33.5007 66.8776 32.7395V30.7154C66.8776 29.9543 66.3738 29.3664 65.7505 29.4024ZM46.6671 42.9197C41.751 43.36 37.6737 39.0436 37.6737 33.2686C37.6737 27.4935 41.751 22.6609 46.6671 22.4788C51.4619 22.3011 55.2633 26.6351 55.2633 32.1551C55.2633 37.6751 51.4621 42.4901 46.6671 42.9197Z" fill="#D8DEE8"/>
<path d="M150 138.727L36.4338 137.747V140.646C36.4338 141.433 36.9292 142.102 37.6 142.222L69.7129 147.931C70.0931 147.999 70.4805 148.017 70.8653 147.984L148.766 141.475C149.461 141.417 150 140.746 150 139.937L150 138.727Z" fill="#BFC8D6"/>
<path d="M108.207 134.081L36.0269 139.385C34.7355 139.48 33.6851 138.471 33.6851 137.132V83.4782C33.6851 82.139 34.7353 81.0533 36.0269 81.0533H108.207C109.271 81.0533 110.131 82.0347 110.131 83.2453V131.747C110.131 132.958 109.271 134.003 108.207 134.081Z" fill="#BFC8D6"/>
<path d="M109.358 134.081L37.1778 139.385C35.8861 139.48 34.8359 138.471 34.8359 137.132V83.4782C34.8359 82.139 35.8861 81.0533 37.1778 81.0533H109.358C110.422 81.0533 111.283 82.0347 111.283 83.2453V131.747C111.283 132.958 110.422 134.003 109.358 134.081Z" fill="white"/>
<path d="M107.11 130.661L39.8811 135.269C38.83 135.34 37.9758 134.513 37.9758 133.42V86.4457C37.9758 85.3524 38.8298 84.4624 39.8811 84.4579L107.11 84.1686C107.987 84.1648 108.697 84.969 108.697 85.9646V128.75C108.697 129.745 107.987 130.601 107.11 130.661Z" fill="#FFB900"/>
<path d="M75.817 82.5208C75.817 83.0194 75.4456 83.4247 74.9868 83.4261C74.5281 83.4276 74.1548 83.0237 74.1548 82.524C74.1548 82.0243 74.5275 81.619 74.9868 81.6187C75.4462 81.6183 75.817 82.0222 75.817 82.5208Z" fill="white"/>
<g style="mix-blend-mode:soft-light" opacity="0.48">
<path d="M37.1773 139.385L108.992 134.108L109.358 134.081C109.846 134.045 110.29 133.804 110.629 133.439C105.461 133.156 102.251 131.326 100.181 129.434C96.0224 125.635 96.7436 121.889 92.2595 119.392C86.6665 116.277 82.2688 120.224 78.0247 116.329C75.4518 113.968 76.7149 112.207 73.5488 108.679C70.0422 104.771 67.7591 106.084 64.235 102.567C59.779 98.1197 62.0073 94.6593 58.1694 91.4661C53.513 87.5923 48.4912 91.1777 44.0586 87.4627C42.1468 85.8604 41.0978 83.5309 40.55 81.0537H37.1775C35.8859 81.0537 34.8357 82.1394 34.8357 83.4786V137.132C34.8358 138.471 35.8858 139.48 37.1773 139.385Z" fill="white"/>
</g>
<path d="M112.759 133.787L36.4338 139.369L69.713 145.286C70.0932 145.354 70.4806 145.372 70.8654 145.339L150 138.727L113.973 133.824C113.571 133.77 113.164 133.757 112.759 133.787Z" fill="url(#paint0_linear)"/>
<path d="M47.5706 139.417L111.113 134.7L130.779 137.355L67.784 142.397L47.5706 139.417Z" fill="#D8DEE8"/>
<path d="M114.896 95.6506C114.896 95.6506 116.014 94.3168 118.11 94.2537C120.207 94.1907 123.064 92.9489 124.29 92.8397C124.586 92.8133 124.733 92.7285 124.758 92.6207C124.81 92.3987 123.448 92.0749 122.24 92.0347C120.098 91.9636 118.849 92.784 118.56 92.3623C118.237 91.8908 119.62 90.6039 119.366 90.3157C119.17 90.0923 118.23 90.8095 117.223 91.2469C116.509 91.5574 113.716 94.8917 113.716 94.8917L114.896 95.6506Z" fill="#FFD6E0"/>
<path d="M114.965 93.2295L116.524 96.3708C115.796 100.39 114.481 104.28 112.619 107.916C110.098 112.827 104.35 124.02 94.229 125.036C86.5106 125.81 80.0354 120.294 77.5843 118.183C75.3173 116.231 73.2838 114.509 72.2964 111.763C70.7389 107.431 72.3114 102.09 76.0836 97.0599C77.9408 94.5839 81.805 95.1171 82.9027 98.0096C84.6345 102.573 87.5551 105.742 90.9104 106.362C94.6832 107.058 98.8847 104.507 100.673 103.424C103.332 101.812 104.01 100.573 107.317 98.0204C109.704 96.178 112.265 94.5733 114.965 93.2295Z" fill="#16A75C"/>
<g style="mix-blend-mode:multiply" opacity="0.3">
<g style="mix-blend-mode:multiply" opacity="0.3">
<path d="M84.2401 116.709C87.1307 116.059 88.2217 113.38 92.1842 113.14C97.1946 112.836 99.3473 116.884 102.552 115.816C105.168 114.945 105.603 111.626 107.427 107.353C108.841 104.039 111.295 99.6791 115.868 95.05L116.524 96.3713C115.796 100.39 114.481 104.28 112.619 107.917C110.098 112.827 104.35 124.02 94.2291 125.036C86.5107 125.81 80.0355 120.294 77.5844 118.183C75.3175 116.231 73.2839 114.509 72.2965 111.763C72.0236 110.998 71.844 110.204 71.7615 109.397C77.7381 116.208 81.6453 117.292 84.2401 116.709Z" fill="#008444"/>
</g>
</g>
<path d="M47.6185 135.896C47.5574 132.912 47.3973 116.446 55.3837 104.604C57.2144 101.89 60.4534 97.0878 66.672 93.9105C68.6104 92.9222 70.6629 92.175 72.7835 91.6857L78.1041 92.4752C80.4727 94.6274 82.5081 97.1186 84.1437 99.8675C85.433 102.037 87.5665 105.628 88.0607 110.263C88.6366 115.665 86.4856 117.794 84.7189 126.207C83.9642 129.8 83.5073 133.449 83.3528 137.116L64.9464 138.695C64.8388 135.476 64.5508 132.265 64.0836 129.078C63.6014 125.789 62.9293 122.529 62.0704 119.317C60.4532 125.744 59.7036 132.358 59.8415 138.982C59.0962 139.276 54.8993 140.846 50.8541 138.695C49.5822 138.012 48.4774 137.056 47.6185 135.896Z" fill="#16A75C"/>
<path d="M75.4203 81.8896C79.5168 78.5572 81.5651 76.8911 82.328 74.7617C83.9949 70.1093 81.7506 64.8401 79.0687 61.8033C75.305 57.5414 69.8138 56.6951 66.3387 56.1595C61.8735 55.4713 61.5902 56.5205 59.5092 55.6254C53.7581 53.1513 55.6958 45.0395 50.3507 38.8134C44.4532 31.9437 33.8652 32.2335 31.1915 32.4119C16.9449 33.3622 9.63214 45.6743 8.90448 46.9482C2.16216 58.7513 5.37237 72.992 12.2419 81.1922C14.2062 83.5369 19.2314 89.5355 25.0483 88.9396C30.6497 88.3658 32.2294 82.1642 40.0184 81.1474C41.1067 81.0053 44.4043 80.5748 48.0223 81.9669C52.1081 83.539 52.7455 85.9515 57.1032 87.4676C60.6365 88.6969 63.7074 88.3249 64.3214 88.2424C68.1829 87.7232 70.6487 85.7711 75.4203 81.8896Z" fill="#212121"/>
<g style="mix-blend-mode:multiply" opacity="0.3">
<path style="mix-blend-mode:multiply" opacity="0.3" d="M7.5311 49.6932C6.07223 62.9152 7.5417 67.6789 9.94821 68.6479C13.3153 70.0037 17.712 63.6081 22.9738 65.3645C27.7066 66.9444 27.0819 73.0971 31.4275 74.4482C36.9204 76.156 40.6179 67.1645 47.1831 67.7286C54.997 68.4 55.9822 81.6716 64.6822 84.0141C67.3173 84.7236 70.9436 84.5033 75.9247 81.4794C75.7597 81.6137 75.5925 81.7498 75.4205 81.8898C70.649 85.7713 68.1834 87.7236 64.3216 88.2428C63.7076 88.3254 60.6368 88.6974 57.1034 87.4681C52.7459 85.952 52.1083 83.5395 48.0225 81.9673C44.4046 80.5753 41.1069 81.0057 40.0186 81.1478C32.2296 82.1646 30.6502 88.3663 25.0485 88.9401C19.2316 89.5358 14.2063 83.5376 12.2421 81.1926C5.89721 73.6187 2.6748 60.8926 7.5311 49.6932Z" fill="url(#paint1_linear)"/>
</g>
<path d="M77.2254 83.6968C77.2254 83.6968 77.3746 87.5322 77.2254 90.1068C77.1162 91.9915 78.749 93.0653 78.749 93.0653C78.749 93.0653 79.6456 94.5989 74.7969 94.8551C69.9482 95.1114 65.23 94.8551 65.23 94.8551C65.23 94.8551 69.9706 91.7077 71.0537 90.8714C72.1369 90.035 72.7178 83.7819 72.0243 79.8214L77.2254 83.6968Z" fill="#FFD6E0"/>
<path d="M78.4667 71.3207C78.4667 71.3207 80.9343 77.26 80.9213 80.8485C80.9084 84.437 78.3945 86.4967 76.4878 85.6104C74.5812 84.7241 71.7084 80.992 71.7084 80.992C71.7084 80.992 71.3226 81.9968 69.8601 80.992C68.3976 79.9872 67.3116 74.345 70.1555 75.946C70.1555 75.946 69.7054 74.3643 70.4065 72.0706C71.1075 69.7769 77.635 67.3007 78.4667 71.3207Z" fill="#FFE6EC"/>
<g style="mix-blend-mode:multiply" opacity="0.3">
<g style="mix-blend-mode:multiply" opacity="0.3">
<path d="M57.9721 128.274C60.1109 124.924 56.8499 122.019 58.2352 116.716C59.4174 112.192 63.2673 108.659 64.6823 109.23C66.6373 110.019 62.7957 118.178 66.6558 121.97C69.2183 124.487 72.5585 122.51 75.9975 124.728C78.2653 126.191 80.5442 129.46 80.7221 137.342L64.9466 138.696C64.839 135.476 64.551 132.266 64.0838 129.078C63.6016 125.789 62.9295 122.53 62.0707 119.318C60.4534 125.744 59.7038 132.358 59.8417 138.983C59.0964 139.276 54.8995 140.846 50.854 138.696C50.6282 138.576 50.4147 138.449 50.2109 138.319C50.3144 136.58 50.7612 134.594 52.0513 132.871C54.1481 130.07 56.4248 130.698 57.9721 128.274Z" fill="#008444"/>
</g>
</g>
<path d="M74.3956 83.9772C70.9416 83.9772 69.6408 79.037 69.6271 78.983C69.6119 78.9215 69.6217 78.8565 69.6543 78.8022C69.687 78.7479 69.7398 78.7087 69.8012 78.6931C69.8627 78.6775 69.9279 78.6867 69.9825 78.7189C70.0372 78.751 70.0769 78.8034 70.093 78.8646C70.1068 78.9184 71.5071 84.2289 75.1598 83.4091C75.2216 83.3961 75.2861 83.408 75.3393 83.4421C75.3925 83.4762 75.43 83.5299 75.4439 83.5914C75.4577 83.653 75.4467 83.7175 75.4133 83.771C75.3798 83.8246 75.3266 83.8628 75.2652 83.8775C74.9799 83.9426 74.6882 83.9761 74.3956 83.9772Z" fill="white"/>
<path d="M76.4155 84.1559C77.0796 83.9833 77.5411 83.5487 77.4463 83.1852C77.3515 82.8217 76.7363 82.667 76.0722 82.8395C75.4082 83.0121 74.9467 83.4467 75.0415 83.8102C75.1363 84.1737 75.7515 84.3285 76.4155 84.1559Z" fill="white"/>
<path d="M69.9017 79.9685C70.5221 79.8073 70.8155 78.8729 70.5569 77.8815C70.2984 76.8902 69.5858 76.2172 68.9654 76.3784C68.345 76.5396 68.0516 77.474 68.3102 78.4654C68.5688 79.4568 69.2813 80.1298 69.9017 79.9685Z" fill="white"/>
<path d="M68.8467 77.1909L68.7633 76.9911C68.7121 76.8615 68.6403 76.6711 68.5575 76.4266C68.3315 75.7511 68.1605 75.0585 68.0463 74.3555C67.876 73.3584 67.8549 72.3416 67.9836 71.3383C68.0582 70.7697 68.2004 70.212 68.4071 69.677C68.6211 69.1237 68.9066 68.6008 69.2565 68.1214C69.6038 67.6359 70.0358 67.2189 70.4853 66.8484C70.6007 66.759 70.7156 66.67 70.83 66.5814C70.9506 66.5019 71.0705 66.4229 71.1898 66.3443L71.3683 66.2274L71.5532 66.1243C71.6762 66.0564 71.7984 65.989 71.9196 65.9221C72.0505 65.8522 72.1668 65.804 72.2905 65.7455C72.4207 65.6964 72.5488 65.6401 72.6772 65.5993C72.9266 65.5147 73.182 65.4489 73.4412 65.4025C73.9155 65.3158 74.3993 65.2937 74.8795 65.3369C74.9884 65.3444 75.0968 65.3579 75.2043 65.3771C75.3091 65.3906 75.4131 65.4104 75.5155 65.4365C75.6148 65.4622 75.713 65.4806 75.8054 65.5109C75.8975 65.5426 75.9868 65.5734 76.0735 65.6033C76.1569 65.6336 76.2384 65.6689 76.3175 65.7092C76.3943 65.7473 76.4719 65.7769 76.5399 65.8184C76.6737 65.9045 76.8038 65.9731 76.9077 66.0546L77.1818 66.2764C77.2564 66.3464 77.3136 66.4126 77.3631 66.4629L77.5119 66.6203C77.5347 66.6449 77.547 66.6774 77.546 66.7109C77.545 66.7445 77.5309 66.7762 77.5066 66.7994C77.4823 66.8226 77.4499 66.8353 77.4163 66.8348C77.3827 66.8343 77.3506 66.8207 77.3271 66.7968L77.3151 66.7846L77.1756 66.6408C77.1293 66.5946 77.0763 66.5339 77.0068 66.47C76.9326 66.4113 76.8473 66.3439 76.752 66.2683C76.6557 66.1942 76.5343 66.1328 76.4107 66.054C76.3479 66.0162 76.2751 65.99 76.2038 65.9554C76.1302 65.9187 76.0544 65.8866 75.9767 65.8595C75.8958 65.8326 75.8124 65.8048 75.7265 65.7761C75.6402 65.7486 75.5475 65.7327 75.4546 65.7093C75.3598 65.6861 75.2635 65.6687 75.1665 65.6573C75.0641 65.6396 74.9608 65.6278 74.8571 65.622C74.4023 65.5856 73.9447 65.6112 73.4968 65.6979C73.2527 65.7442 73.0125 65.8087 72.7781 65.891C72.6573 65.9306 72.5434 65.9829 72.4237 66.0284C72.3067 66.0853 72.1743 66.143 72.0662 66.203L71.7148 66.4019L71.5374 66.503L71.3672 66.6173L71.0241 66.8484C70.9157 66.9343 70.8069 67.0206 70.6975 67.1074C70.2719 67.466 69.8654 67.8659 69.5419 68.3289C69.216 68.7856 68.9511 69.2828 68.7541 69.8079C68.563 70.318 68.4336 70.8489 68.3686 71.3896C68.2554 72.3545 68.2861 73.3309 68.4599 74.2868C68.5774 74.9655 68.7496 75.6335 68.975 76.2845C69.0573 76.5195 69.1282 76.7013 69.1781 76.8237L69.257 77.0075L69.2608 77.0163C69.2834 77.0708 69.2836 77.132 69.2614 77.1866C69.2391 77.2413 69.1961 77.2849 69.1418 77.3082C69.0875 77.3314 69.0262 77.3323 68.9712 77.3107C68.9162 77.2891 68.8719 77.2467 68.8481 77.1927L68.8467 77.1909Z" fill="white"/>
<path d="M141.95 42.209V72.2588C141.95 74.0418 140.516 75.5376 138.729 75.5526L86.4707 76.1307H86.4689L86.1843 75.7525C86.0382 75.5777 85.9536 75.3599 85.9434 75.1325C85.9333 74.905 85.9982 74.6806 86.1281 74.4935L92.897 64.9761C93.8505 63.6414 94.3673 62.045 94.3764 60.4057V40.6036C94.3764 39.4037 95.0035 38.3627 95.9696 37.8057C96.4971 37.4961 97.1033 37.3461 97.7145 37.374L98.5428 37.4058L138.845 38.9645C139.682 39.0009 140.472 39.3589 141.051 39.9635C141.63 40.5682 141.952 41.3727 141.95 42.209Z" fill="#156BB7"/>
<path d="M143.403 42.2089V72.2588C143.404 73.1146 143.066 73.9361 142.463 74.5443C141.86 75.1524 141.04 75.4979 140.183 75.5053L86.458 76.0492L86.4689 76.0361L94.3497 64.9641C95.2952 63.6316 95.8289 62.0391 95.8289 60.4056V40.6036C95.8289 39.8692 96.0487 39.1925 96.4625 38.6505C96.9676 37.9787 97.7168 37.5317 98.5487 37.4057C98.7517 37.3753 98.9572 37.3647 99.1622 37.374L140.298 38.9645C141.135 39.0012 141.925 39.3593 142.504 39.9639C143.082 40.5685 143.404 41.3729 143.403 42.2089Z" fill="#1E88E5"/>
<path d="M104.545 60.9775V60.8524L106.356 59.2881C107.506 58.2788 108.348 57.5013 108.801 56.9555C109.256 56.4098 109.61 55.8791 109.827 55.3594C110.048 54.8299 110.16 54.262 110.159 53.6885C110.159 53.0064 109.989 52.397 109.636 51.8625C109.283 51.328 108.789 50.9093 108.15 50.6066C107.508 50.3036 106.77 50.1468 105.931 50.1355C105.35 50.1206 104.769 50.1739 104.2 50.2944C103.704 50.401 103.223 50.5693 102.77 50.7954C102.331 51.0159 101.778 51.3947 101.111 51.9317L102.667 53.7203C103.142 53.3383 103.661 53.0128 104.211 52.7503C104.686 52.5275 105.205 52.4151 105.73 52.4216C106.226 52.4253 106.623 52.558 106.919 52.814C107.217 53.072 107.365 53.4608 107.365 53.9803C107.365 54.3262 107.296 54.6687 107.162 54.9877C107.028 55.3113 106.809 55.6624 106.501 56.04C106.196 56.4193 105.516 57.0997 104.516 58.0828L101.095 61.3704V63.4433H110.719V60.9906L104.545 60.9775Z" fill="white" fill-opacity="0.6"/>
<path d="M119.798 58.5391V50.5061L117.241 50.4724L111.445 58.7185V60.6155L117.074 60.6305V63.4436H119.797V60.638L121.25 60.6417V58.5465L119.798 58.5391ZM117.128 54.8163C117.098 55.506 117.074 55.9898 117.074 56.3523V58.5259L113.911 58.511L116.332 55.0107C116.643 54.5565 116.915 54.0185 117.136 53.656H117.209C117.191 53.656 117.158 54.1267 117.128 54.8163H117.128Z" fill="white" fill-opacity="0.6"/>
<path d="M126.601 50.5959L124.823 55.3527L121.776 63.4438H124.235L125.853 59.0982L129.034 50.667L126.601 50.5959Z" fill="white" fill-opacity="0.6"/>
<path d="M129.603 50.6542V52.9025L135.872 53.0503L131.107 63.444H133.924L138.682 52.4371V50.7737L129.603 50.6542Z" fill="white" fill-opacity="0.6"/>
<g style="mix-blend-mode:soft-light" opacity="0.48">
<g style="mix-blend-mode:soft-light" opacity="0.48">
<path d="M143.403 71.4783V72.2595C143.404 73.1153 143.066 73.9368 142.463 74.545C141.86 75.1531 141.04 75.4986 140.183 75.5061L86.458 76.0973L86.4704 76.1314H86.4686L86.184 75.7533C86.0379 75.5785 85.9533 75.3607 85.9432 75.1332C85.933 74.9058 85.9979 74.6814 86.1279 74.4943L92.8969 64.9769C93.8505 63.6422 94.3672 62.0458 94.3763 60.4064V40.6044C94.3763 39.4045 95.0034 38.3635 95.9695 37.8065C96.1268 38.1056 96.2782 38.3859 96.4506 38.6513C96.6481 38.9662 96.8628 39.2701 97.0936 39.5615C102.889 46.8506 113.562 41.6829 121.373 49.4953C123.364 51.4857 124.236 53.3884 124.824 55.2742C125.214 56.5227 125.475 57.7656 125.853 59.0197C126.509 61.2008 127.512 63.4231 130.128 65.7874C134.355 69.6076 137.985 69.4637 141.954 70.8842C142.434 71.0559 143.04 71.2503 143.403 71.4783Z" fill="white"/>
</g>
</g>
</g>
<defs>
<linearGradient id="paint0_linear" x1="36.4338" y1="139.563" x2="150" y2="139.563" gradientUnits="userSpaceOnUse">
<stop offset="0.494" stop-color="#EBEFF2"/>
<stop offset="1" stop-color="white"/>
</linearGradient>
<linearGradient id="paint1_linear" x1="-146.767" y1="69.3373" x2="-69.0228" y2="69.3373" gradientUnits="userSpaceOnUse">
<stop stop-color="#311944"/>
<stop offset="1" stop-color="#6B3976"/>
</linearGradient>
<clipPath id="clip0">
<rect width="150" height="148" fill="white"/>
</clipPath>
</defs>
</svg>
