<svg width="150" height="148" viewBox="0 0 150 148" fill="none" xmlns="http://www.w3.org/2000/svg">
<g clip-path="url(#clip0)">
<path d="M130.842 126.752C126.971 130.732 123.506 133.071 120.854 134.837C94.9876 152.061 65.4192 147.097 56.2772 145.4C41.528 142.662 29.0776 140.731 18.3804 131.093C-5.92665 109.193 -4.74418 63.5082 13.8291 35.208C16.0314 31.8524 34.5768 4.43795 64.2093 0.574974C64.934 0.480505 65.4748 0.426718 65.9484 0.376533C70.5325 -0.107455 98.939 -2.66202 122.102 16.6905C125.417 19.4607 130.753 24.4575 135.701 32.0783C153.794 59.9435 153.851 103.1 130.842 126.752Z" fill="#F4F7FA"/>
<path d="M137.409 70.6134C137.409 101.232 112.529 127.187 80.7867 128.634C47.8193 130.137 20.1458 104.816 20.1458 72.0248C20.1458 39.2336 47.8193 13.2464 80.7867 13.9557C112.529 14.6387 137.409 39.995 137.409 70.6134Z" fill="#006430"/>
<path d="M140.02 70.6134C140.02 101.232 115.14 127.187 83.3968 128.634C50.4295 130.137 22.7559 104.816 22.7559 72.0248C22.7559 39.2336 50.4295 13.2464 83.3968 13.9557C115.14 14.6387 140.02 39.995 140.02 70.6134Z" fill="#FFD026"/>
<path d="M136.748 70.6528C136.748 99.5022 113.28 123.912 83.3968 125.215C52.431 126.564 26.4924 102.75 26.4924 71.9798C26.4924 41.2091 52.431 16.7707 83.3968 17.375C113.28 17.9581 136.748 41.8033 136.748 70.6528Z" fill="#16A75C"/>
<path d="M61.3203 39.7776C62.6842 38.6284 64.1244 37.5724 65.631 36.6168C67.2264 35.6043 68.9121 34.7407 70.6666 34.0371C72.4624 33.3119 74.4068 32.7472 76.4997 32.3428C78.5863 31.9402 80.8382 31.7522 83.2552 31.7788C86.5286 31.8151 89.5005 32.2886 92.171 33.1993C94.8335 34.1065 97.1093 35.3823 98.9982 37.0268C100.874 38.6552 102.367 40.6752 103.372 42.9435C104.402 45.2448 104.917 47.8161 104.917 50.6574C104.917 53.4271 104.512 55.8246 103.703 57.8501C102.893 59.8783 101.87 61.6452 100.634 63.1509C99.4467 64.6095 98.0959 65.9279 96.608 67.0803C95.1595 68.1938 93.783 69.2441 92.4787 70.2311C91.1719 71.2198 90.0416 72.1891 89.0878 73.1389C88.1325 74.0899 87.561 75.1559 87.3732 76.337L86.0779 84.4256L76.4997 84.6148L75.5303 75.5695C75.4955 75.4145 75.4764 75.2564 75.4732 75.0976V74.6249C75.4732 72.9939 75.8914 71.571 76.7276 70.3563C77.5623 69.1438 78.605 68.004 79.8558 66.9368C81.1038 65.8718 82.4442 64.8353 83.8771 63.8274C85.2874 62.8371 86.625 61.7475 87.8794 60.567C89.1062 59.4133 90.1476 58.0782 90.967 56.6086C91.788 55.1374 92.1986 53.4104 92.199 51.4277C92.199 50.106 91.9471 48.9216 91.4432 47.8744C90.944 46.8329 90.227 45.9101 89.3404 45.1679C88.4416 44.4113 87.3635 43.8274 86.106 43.4165C84.8458 43.0057 83.4806 42.7967 82.0104 42.7895C79.8558 42.7795 78.0284 43.0026 76.5282 43.4588C75.0255 43.9166 73.7498 44.431 72.7012 45.0022C71.6504 45.5753 70.7617 46.093 70.0351 46.5554C69.3072 47.0193 68.6556 47.2505 68.0806 47.2488C66.6981 47.246 65.6988 46.6846 65.0825 45.5643L61.3203 39.7776ZM72.2145 105.537C72.2112 104.402 72.435 103.278 72.873 102.23C73.2915 101.208 73.914 100.28 74.7026 99.5048C75.5054 98.7258 76.4421 98.0971 77.468 97.6487C78.5426 97.1727 79.7015 96.9149 80.877 96.8902C82.0175 96.8535 83.1536 97.0488 84.216 97.4641C85.2691 97.8777 86.1713 98.4422 86.9228 99.1577C87.6891 99.8964 88.3008 100.779 88.7226 101.755C89.1724 102.774 89.402 103.876 89.3965 104.99C89.4049 106.126 89.1753 107.252 88.7226 108.294C88.293 109.292 87.6829 110.202 86.9228 110.979C86.1472 111.76 85.2282 112.384 84.216 112.818C83.1615 113.28 82.0282 113.537 80.877 113.576C79.6659 113.621 78.5296 113.45 77.468 113.063C76.4454 112.701 75.5053 112.139 74.7026 111.411C73.9161 110.69 73.2924 109.81 72.873 108.83C72.4338 107.824 72.2143 106.726 72.2145 105.537V105.537Z" fill="white"/>
<g style="mix-blend-mode:multiply" opacity="0.3">
<path d="M57.8463 46.4528C55.8967 40.1162 55.9862 30.4921 65.4925 16.2729C40.9688 23.3182 22.7559 45.4957 22.7559 72.0246C22.7559 104.816 50.4294 130.137 83.3968 128.634C95.5528 128.08 106.682 123.942 115.776 117.376C115.495 108.631 113.587 99.0586 108.222 90.2291C93.4697 65.9511 63.963 66.3334 57.8463 46.4528Z" fill="#16A75C"/>
</g>
<path d="M142.403 3.35643L101.064 1.47683C98.0421 1.39061 95.5841 3.699 95.5841 6.63312V22.7673L88.9773 29.045L95.5841 29.1275L100.919 29.194L144.094 29.7325C144.77 29.7441 145.442 29.6212 146.07 29.3708C146.699 29.1205 147.27 28.7478 147.753 28.2745C148.235 27.8012 148.617 27.2368 148.878 26.6144C149.139 25.9919 149.273 25.3238 149.272 24.6491V8.00017C149.272 5.15708 145.266 3.43816 142.403 3.35643Z" fill="url(#paint0_linear)"/>
<path d="M144.822 2.7045L101.792 1.47683C98.7698 1.39061 96.3119 3.699 96.3119 6.63312V22.7673L89.7053 29.045L96.3122 29.1275L101.647 29.194L144.822 29.7325C145.498 29.7441 146.17 29.6212 146.798 29.3708C147.427 29.1205 147.999 28.7478 148.481 28.2745C148.963 27.8012 149.345 27.2368 149.606 26.6143C149.867 25.9918 150.001 25.3238 150 24.6491V8.00017C150 5.15708 147.685 2.78622 144.822 2.7045Z" fill="#1E88E5"/>
<g opacity="0.6">
<path opacity="0.54" d="M101.669 11.3563L144.074 12.3233V10.3243L101.669 9.30688V11.3563Z" fill="white"/>
<path opacity="0.54" d="M101.669 15.3469L144.074 16.216V14.2169L101.669 13.2975V15.3469Z" fill="white"/>
<path opacity="0.54" d="M118.354 19.6411L144.074 20.1088V18.1094L118.354 17.6112V19.6411Z" fill="white"/>
</g>
<path d="M92.6505 137.594C100.109 136.69 101.649 138.438 109.237 138.096C116.701 137.758 117.213 135.977 123.31 136.341C128.792 136.669 135.851 138.556 135.876 140.602C135.904 142.853 127.419 146.019 119.29 144.862C114.766 144.219 115.078 142.909 110.745 142.356C102.895 141.355 100.587 145.489 92.6505 144.612C88.0585 144.104 83.2645 142.104 83.352 140.602C83.4624 138.708 91.3217 137.755 92.6505 137.594Z" fill="#D8DEE8"/>
<path d="M109.663 138.242C107.349 126.842 108.345 117.68 109.396 112.147C110.671 105.435 113.262 91.7908 124.139 84.1852C124.996 83.5859 133.505 77.7498 137.327 80.6484C139.298 82.1432 139.748 85.7534 138.886 88.6029C136.661 95.96 126.629 95.1439 123.296 103.517C122.186 106.306 121.98 109.708 122.754 110.029C123.707 110.424 126.425 106.263 126.684 105.867C129.108 102.157 129.13 100.057 130.978 99.4879C132.112 99.138 133.608 99.4664 134.276 100.36C135.8 102.395 132.791 107.031 131.95 108.327C129.749 111.717 127.912 112.487 127.465 115.374C127.273 116.616 127.307 118.453 128.047 118.74C129.046 119.127 130.954 116.531 132.178 114.865C135.47 110.387 135.82 107.783 137.457 107.597C138.983 107.422 140.704 109.457 141.145 110.697C142.351 114.081 137.504 121.283 109.663 138.242Z" fill="#006430"/>
<g style="mix-blend-mode:soft-light" opacity="0.28">
<path d="M110.011 136.287C109.665 125.693 111.385 117.295 112.942 111.784C114.945 104.7 118.711 91.3762 129.276 85.6105C130.027 85.2007 135.55 82.1863 137.094 83.8007C138.123 84.8769 137.211 87.831 135.698 89.7871C133.116 93.1253 130.142 91.8009 125.925 95.0775C122.142 98.0176 120.813 101.977 120.481 103.013C119.247 106.857 119.888 110.152 120.062 111.366C120.723 115.978 119.37 123.532 110.011 136.287Z" fill="white"/>
</g>
<g style="mix-blend-mode:soft-light" opacity="0.28">
<path d="M113.78 133.642C119.704 128.35 121.074 124.015 121.179 120.973C121.261 118.603 120.618 115.79 122.436 113.177C123.598 111.505 124.475 111.774 126.484 109.974C130.682 106.215 131.203 101.147 132.068 101.343C132.55 101.452 132.8 103.114 132.487 104.684C131.842 107.924 129.301 108.264 126.763 112.202C125.03 114.893 124.428 117.508 124.111 118.885C123.338 122.243 123.863 123.421 123.413 125.289C122.829 127.708 120.718 130.832 113.78 133.642Z" fill="white"/>
</g>
<path d="M113.222 140.084C123.492 140.671 126.545 141.285 131.385 139.64C135.932 138.095 140.597 135.051 140.187 133.654C139.893 132.652 137.038 132.665 135.333 132.674C130.757 132.695 126.983 134.093 124.335 135.444L131.186 130.807C132.781 130.238 135.479 129.031 137.87 126.479C139.366 124.882 142.805 120.557 141.513 118.478C140.162 116.307 133.748 116.745 130.051 119.825C128.277 121.302 128.275 122.433 125.897 125.012C124.164 126.884 122.154 128.479 119.937 129.743C122.02 127.154 123.711 124.275 124.956 121.197C127.316 115.34 129.097 106.074 126.096 104.39C124.105 103.273 120.158 105.575 118.184 108.303C116.583 110.516 116.74 112.371 115.639 119.48C115.16 122.57 114.69 125.059 114.385 126.603C111.331 119.921 110.445 114.3 110.266 110.168C110.036 104.86 110.917 100.7 108.881 99.5937C107.066 98.6075 103.825 100.532 102.182 102.337C95.5296 109.645 104.306 126.795 105.234 128.564C101.838 126.005 98.7912 123.015 96.1716 119.668C92.6877 115.21 91.2164 111.892 89.4453 112.189C87.6837 112.485 86.5228 116.224 86.655 119.119C87.0234 127.188 97.5902 131.926 98.718 132.414C97.335 132.641 95.9229 132.626 94.5452 132.369C90.6054 131.619 89.3768 129.237 85.3795 128.429C83.8507 128.119 80.725 127.799 80.3398 128.743C79.6486 130.437 87.5434 136.8 97.1229 139.226C100.634 140.116 99.7946 139.317 113.222 140.084Z" fill="#16A75C"/>
<g style="mix-blend-mode:soft-light" opacity="0.28">
<path d="M120 134.247C124.676 132.174 124.041 129.355 129.156 125.864C132.432 123.629 133.193 124.444 136.703 122.307C138.46 121.233 140.07 119.937 141.493 118.451C141.499 118.46 141.507 118.469 141.513 118.478C142.805 120.556 139.367 124.882 137.87 126.479C135.48 129.03 132.781 130.238 131.187 130.807L124.335 135.444C126.983 134.093 130.757 132.695 135.333 132.674C136.82 132.667 139.18 132.656 139.955 133.317C138.581 134.167 137.345 134.576 136.339 134.78C134.044 135.247 132.605 134.725 130.62 135.918C129.028 136.875 129.161 137.688 127.759 138.207C126.44 138.694 125.766 138.18 122.51 137.647C119.343 137.128 117.734 136.885 116.454 137.687C115.487 138.292 114.974 139.292 114.69 140.171C114.362 140.151 114.026 140.131 113.682 140.111C113.937 139.101 114.405 137.945 115.295 136.911C116.706 135.273 118.251 135.022 120 134.247Z" fill="white"/>
</g>
<g style="mix-blend-mode:soft-light" opacity="0.28">
<path d="M106.676 137.83C105.937 137.654 105.584 138.18 104.558 138.313C102.652 138.56 101.937 136.991 99.6955 136.246C97.0427 135.363 96.37 137.005 93.7278 136.189C91.6362 135.542 91.9055 134.467 89.173 132.897C86.2652 131.226 85.0338 131.911 82.8966 130.532C82.2097 130.089 81.4259 129.429 80.6797 128.402C81.6193 127.894 84.0777 128.165 85.3794 128.429C89.3765 129.237 90.6055 131.619 94.5452 132.369C95.9229 132.626 97.3349 132.641 98.7179 132.414C97.5901 131.926 87.0233 127.188 86.6549 119.119C86.5324 116.434 87.5227 113.024 89.0728 112.308C88.9169 113.873 88.8563 115.446 88.8912 117.018C88.9574 119.934 89.0093 121.417 89.9342 122.633C91.5388 124.743 93.4947 123.643 96.1619 125.837C98.5899 127.834 97.7438 129.382 100.277 131.383C102.463 133.108 103.758 132.48 105.815 133.879C107.105 134.757 108.672 136.419 109.613 139.899C109.185 139.879 108.775 139.862 108.384 139.846C108.012 138.859 107.473 138.02 106.676 137.83Z" fill="white"/>
</g>
<g style="mix-blend-mode:soft-light" opacity="0.28">
<path d="M108.983 126.834C107.704 123.358 105.482 123.715 104.555 120.654C103.633 117.611 105.65 116.665 105.136 112.259C104.751 108.958 103.501 108.472 103.418 106.215C103.356 104.552 103.944 102.285 106.663 99.476C107.488 99.2599 108.266 99.2593 108.881 99.5934C110.917 100.7 110.036 104.859 110.266 110.168C110.445 114.3 111.331 119.921 114.385 126.602C114.69 125.058 115.16 122.57 115.639 119.479C116.74 112.371 116.583 110.515 118.184 108.303C120.158 105.575 124.106 103.272 126.097 104.39C126.21 104.454 126.317 104.529 126.417 104.614C125.39 105.304 124.484 106.158 123.737 107.143C121.112 110.632 122.605 113.132 120.225 120.015C117.936 126.634 115.613 127.043 113.771 132.762C113.182 134.589 112.628 137.007 112.513 140.044C111.841 140.007 111.207 139.974 110.607 139.945C110.008 137.999 109.621 135.994 109.454 133.966C109.149 130.2 109.848 129.182 108.983 126.834Z" fill="white"/>
</g>
<path d="M31.2363 136.999C42.8368 137.101 54.8929 137.207 55.2686 139.723C55.6051 141.976 46.4284 145.199 41.0677 146.531C35.8102 147.838 26.8008 149.169 16.2162 146.259C12.3331 145.191 2.77327 142.05 3.10767 139.723C3.53377 136.756 19.7721 136.899 31.2363 136.999Z" fill="#D8DEE8"/>
<path d="M38.181 139.272C37.9121 139.559 37.7649 139.939 37.7699 140.332C37.7699 140.433 37.7929 140.532 37.8372 140.623C37.8814 140.713 37.9458 140.793 38.0254 140.855C38.385 141.137 39.18 141.695 40.4185 142.209C42.1704 142.937 42.7624 142.873 42.836 142.581C42.9097 142.29 42.0087 141.495 41.2367 140.801C40.4647 140.106 38.181 139.272 38.181 139.272Z" fill="url(#paint1_linear)"/>
<path d="M37.6228 136.552C37.6228 136.552 38.1774 139.2 38.1301 140.167C38.1301 140.167 38.831 140.786 39.8286 140.167C39.8286 140.167 39.3189 137.749 39.5698 136.746L37.6228 136.552Z" fill="#FFE6EC"/>
<path d="M18.5616 140.18C18.2555 140.428 18.057 140.783 18.0074 141.173C17.9934 141.273 18.0023 141.375 18.0336 141.471C18.0649 141.567 18.1176 141.654 18.1879 141.727C18.5048 142.056 19.2148 142.718 20.37 143.398C22.004 144.361 22.5993 144.379 22.7126 144.101C22.8259 143.822 22.0441 142.911 21.3757 142.116C20.7074 141.322 18.5616 140.18 18.5616 140.18Z" fill="url(#paint2_linear)"/>
<path d="M17.739 137.737C17.739 137.737 18.2936 140.385 18.2462 141.351C18.2462 141.351 18.9471 141.97 19.9447 141.351C19.9447 141.351 19.435 138.933 19.686 137.931L17.739 137.737Z" fill="#FFE6EC"/>
<path d="M44.53 81.2344C44.7001 89.1841 44.5882 97.7123 44.0648 106.746C43.4112 118.03 42.2091 128.486 40.716 138.009C39.5025 138.346 38.224 138.378 36.9951 138.102C36.7525 136.977 36.3745 135.266 35.8787 133.185C34.981 129.416 34.7642 128.914 34.4834 127.619C33.3189 122.247 34.8483 120.729 34.1113 115.188C33.9496 113.972 33.8807 114.08 32.2508 108.23C30.2187 100.936 29.1918 97.2916 28.7162 94.5004C27.4391 87.0096 26.8007 83.2641 28.9022 80.9562C31.6481 77.9402 38.0338 78.4101 44.53 81.2344Z" fill="#212121"/>
<path style="mix-blend-mode:multiply" opacity="0.3" d="M38.9488 133.463C38.0767 130.995 39.6074 129.74 39.5999 125.485C39.5934 121.814 38.452 121.356 38.1115 117.228C37.7994 113.444 38.6382 112.368 38.8557 108.879C39.2655 102.304 36.6609 100.097 36.158 95.0567C35.8118 91.5861 36.4416 86.5372 41.079 79.9535C35.8687 78.3547 31.1575 78.4789 28.9022 80.9559C26.8007 83.2641 27.4391 87.0093 28.7162 94.5002C29.192 97.2914 30.219 100.936 32.2508 108.23C33.8806 114.08 33.9496 113.972 34.1113 115.187C34.8482 120.729 33.3189 122.247 34.4834 127.618C34.7641 128.914 34.9809 129.415 35.8787 133.185C36.3745 135.266 36.7524 136.977 36.9951 138.101C38.224 138.378 39.5024 138.346 40.716 138.008C40.8071 137.427 40.8972 136.842 40.9862 136.253C40.1068 135.525 39.3545 134.612 38.9488 133.463Z" fill="url(#paint3_linear)"/>
<path d="M35.9717 80.6778C32.7731 89.3393 29.6512 98.9658 26.8761 109.499C24.1774 119.741 22.1873 129.394 20.7158 138.287C20.0598 138.589 19.3468 138.747 18.6244 138.752C17.902 138.757 17.187 138.607 16.5271 138.314C15.2446 135.073 14.3241 131.701 13.7822 128.259C13.3729 125.656 12.927 122.82 13.2739 119.177C13.7347 114.337 15.0711 113.572 15.6925 108.787C16.1568 105.21 15.5577 104.503 15.4134 99.3243C15.1896 91.292 15.0743 87.1525 17.0879 84.2958C21.4135 78.1587 33.9024 80.2998 35.9717 80.6778Z" fill="#212121"/>
<path d="M14.1419 44.8698C15.53 43.4209 20.264 38.8411 28.0378 37.6934C35.9516 36.525 41.9 39.6685 43.6215 40.6599C46.9543 48.0483 46.9018 53.3847 46.2044 56.9293C45.778 59.0965 45.2405 59.9336 44.9951 62.5881C44.5709 67.1763 45.7562 69.2241 46.7712 75.1232C47.0659 76.836 48.7588 86.6746 46.6695 87.4501C45.5375 87.8703 44.6378 85.1315 41.3672 84.4814C39.1096 84.0327 38.3437 85.1003 35.4137 84.8522C32.7281 84.6249 32.6146 83.6642 30.44 83.3321C26.9569 82.8002 25.6979 85.0283 19.0509 87.0585C15.7585 88.0641 13.2079 88.8109 12.0007 87.5991C11.2149 86.8105 11.2344 85.4286 11.8955 82.576C13.2317 76.8112 14.9934 74.5111 16.1702 71.0307C17.4846 67.1432 17.3034 64.0487 16.9949 58.7845C16.713 54.0345 15.7523 49.3489 14.1419 44.8698Z" fill="#FFB900"/>
<path style="mix-blend-mode:multiply" opacity="0.3" d="M47.6929 83.3394C45.323 83.2461 43.9662 82.506 43.1346 81.6984C40.7946 79.4254 42.192 76.2216 39.6462 74.1841C36.4834 71.653 32.2009 74.8961 30.0183 72.6534C27.9865 70.5659 31.1703 67.214 29.7392 61.1038C29.4649 59.9329 28.532 55.9495 25.2741 53.3112C21.3715 50.1507 17.743 51.8427 15.6461 49.2758C15.5667 49.1788 15.4899 49.0754 15.4156 48.9657C16.2701 52.1778 16.7991 55.4672 16.9947 58.7847C17.3032 64.0486 17.4845 67.1433 16.17 71.0309C14.9932 74.5113 13.2315 76.8114 11.8953 82.5761C11.2342 85.4288 11.2146 86.8105 12.0005 87.5993C13.2077 88.8111 15.7583 88.0641 19.0508 87.0587C25.6977 85.0285 26.9567 82.8004 30.4398 83.3323C32.6144 83.6644 32.7282 84.6251 35.4135 84.8524C38.3435 85.1002 39.1094 84.0325 41.367 84.4816C44.6376 85.1318 45.5374 87.8705 46.6694 87.4503C47.4957 87.1432 47.7293 85.4177 47.6929 83.3394Z" fill="url(#paint4_linear)"/>
<path d="M40.2509 41.5299C40.472 40.6036 40.6803 39.9098 41.2241 39.7133C43.4449 38.9107 49.6602 46.9867 51.0938 55.8938C51.2442 56.8279 52.5648 65.04 49.6127 66.362C47.2719 67.4103 43.2807 63.6086 41.2741 60.8255C36.9704 54.8561 38.7289 47.9053 40.2509 41.5299Z" fill="#FFD026"/>
<path d="M15.6229 71.1068C15.0553 71.0671 7.23684 70.4018 4.18106 64.3579C1.00909 58.0843 5.68102 51.3813 7.11127 49.3295C12.6089 41.4418 25.3928 36.691 27.5364 39.1017C29.0815 40.8395 24.4958 47.2362 22.3904 50.0948C18.5859 55.2605 14.5214 55.4994 13.5996 59.1395C13.1583 60.8825 13.3717 63.6645 16.9473 67.9061C16.5058 68.973 16.0643 70.0399 15.6229 71.1068Z" fill="#FFD026"/>
<path d="M28.71 32.645C28.9555 33.3217 29.2818 34.8149 28.5515 36.1616C27.9119 37.3407 26.7244 37.8588 26.2494 38.0709C25.1015 38.5843 24.411 38.4308 24.38 38.647C24.3114 39.1257 27.5839 40.671 30.9691 39.9925C32.9586 39.5939 34.8428 38.456 34.7176 37.8179C34.5772 37.1019 32.0211 37.5994 31.141 36.2125C30.5785 35.3262 30.9488 34.0618 31.4097 33.0494C30.7527 32.4977 29.3685 33.1978 28.71 32.645Z" fill="#FFD6E0"/>
<path d="M32.5182 32.7111C32.8041 32.0864 32.6696 31.122 32.1364 30.6006C31.6774 30.1519 31.0773 30.1928 30.7178 30.2172C29.6749 30.2881 28.4605 31.0104 28.1798 32.1334C28.0134 32.7995 28.7985 33.9598 28.9263 34.171C29.0709 34.4098 29.2707 34.4618 29.474 34.6234C29.7559 34.848 30.1981 35.2056 30.9223 35.8065C30.9366 35.5343 30.9724 35.2638 31.0296 34.9973C31.1027 34.6544 31.2162 34.3214 31.3678 34.0051C31.7827 33.1857 32.2471 33.3036 32.5182 32.7111Z" fill="url(#paint5_linear)"/>
<path d="M29.9585 35.3722C29.9585 35.3722 30.8296 36.4502 32.151 36.0858C33.3317 35.7602 33.0221 32.7778 32.1569 32.3038C31.8681 32.1457 31.3437 32.1599 30.9495 32.3699C30.7167 32.4941 30.6519 32.6225 30.2675 32.8172C29.9127 32.9971 29.8002 32.9726 29.7047 33.0987C29.5854 33.2566 29.5345 33.5958 29.9108 34.4127C29.6402 34.2038 29.3495 34.1608 29.1713 34.3006C29.1098 34.3552 29.0643 34.4252 29.0393 34.5034C28.9267 34.8745 29.2782 35.2498 29.9585 35.3722Z" fill="#FFE6EC"/>
<path d="M31.153 36.6881C30.6913 36.4461 30.7434 35.8775 30.8564 35.4664C30.8714 35.4135 30.8993 35.365 30.9376 35.3253C30.9758 35.2855 31.0232 35.2558 31.0756 35.2386C31.1281 35.2213 31.184 35.2172 31.2384 35.2265C31.2928 35.2359 31.3441 35.2583 31.3878 35.292C31.6815 35.5157 32.1084 35.7999 32.4831 35.8907C33.1318 36.048 33.6812 39.5808 33.6812 39.5808L33.1314 39.9548C33.1314 39.9548 32.5795 38.6531 31.986 37.6816C31.6987 37.2114 31.4017 36.8185 31.153 36.6881Z" fill="#FFE6EC"/>
<path d="M32.2279 39.1335L33.7629 38.4486C35.148 40.9172 36.6994 43.2892 38.4065 45.5484C40.3706 48.142 41.617 49.3549 44.8381 53.5553C46.6634 55.9356 47.3512 56.9648 48.0184 58.1351C49.2665 60.3246 51.4228 64.107 50.0184 65.8814C49.6771 66.3125 49.2385 66.4826 48.7967 66.6539C46.7678 67.4404 44.6295 66.4157 43.5532 65.8814C37.9512 63.1008 34.7236 57.2357 34.7236 57.2357C30.6275 49.7925 31.6563 42.1236 32.2279 39.1335Z" fill="#FFD026"/>
<path d="M16.4871 69.0184C16.4871 69.0184 17.7159 67.6279 18.7624 67.9061C19.8089 68.1842 21.1346 69.4367 21.1346 69.4367C21.1346 69.4367 21.1346 70.6891 20.1578 70.3412C19.181 69.9933 15.9143 70.4022 15.9143 70.4022L16.4871 69.0184Z" fill="#FFD6E0"/>
</g>
<defs>
<linearGradient id="paint0_linear" x1="88.9773" y1="15.6039" x2="149.272" y2="15.6039" gradientUnits="userSpaceOnUse">
<stop stop-color="#444B8C"/>
<stop offset="0.996" stop-color="#26264F"/>
</linearGradient>
<linearGradient id="paint1_linear" x1="-178.873" y1="141.029" x2="-173.802" y2="141.029" gradientUnits="userSpaceOnUse">
<stop stop-color="#444B8C"/>
<stop offset="0.996" stop-color="#26264F"/>
</linearGradient>
<linearGradient id="paint2_linear" x1="-198.631" y1="142.218" x2="-193.908" y2="142.218" gradientUnits="userSpaceOnUse">
<stop stop-color="#444B8C"/>
<stop offset="0.996" stop-color="#26264F"/>
</linearGradient>
<linearGradient id="paint3_linear" x1="-186.961" y1="147.255" x2="-164.204" y2="137.748" gradientUnits="userSpaceOnUse">
<stop stop-color="#444B8C"/>
<stop offset="0.996" stop-color="#3E4177"/>
</linearGradient>
<linearGradient id="paint4_linear" x1="-191.756" y1="77.7436" x2="-169.899" y2="49.2943" gradientUnits="userSpaceOnUse">
<stop offset="0.004" stop-color="#E38DDD"/>
<stop offset="1" stop-color="#9571F6"/>
</linearGradient>
<linearGradient id="paint5_linear" x1="0.170071" y1="-43.5955" x2="-3.91144" y2="-50.2955" gradientUnits="userSpaceOnUse">
<stop stop-color="#444B8C"/>
<stop offset="0.996" stop-color="#26264F"/>
</linearGradient>
<clipPath id="clip0">
<rect width="150" height="148" fill="white"/>
</clipPath>
</defs>
</svg>
