<svg width="359" height="186" viewBox="0 0 359 186" fill="none" xmlns="http://www.w3.org/2000/svg">
<g clip-path="url(#clip0)">
<g opacity="0.81">
<path opacity="0.58" d="M359 166.812H0V174.965H359V166.812Z" fill="#96AFCE"/>
<g opacity="0.65">
<path opacity="0.65" d="M324.922 17.0588H206.118C201.604 17.0588 197.945 20.7579 197.945 25.321V93.9781C197.945 98.5412 201.604 102.24 206.118 102.24H324.922C329.436 102.24 333.096 98.5412 333.096 93.9781V25.321C333.096 20.7579 329.436 17.0588 324.922 17.0588Z" fill="#7896B9"/>
<path opacity="0.65" d="M205.292 17.0588H317.507V102.24H206.604C204.307 102.24 202.105 101.318 200.481 99.6768C198.857 98.0354 197.945 95.8092 197.945 93.4878V24.4854C197.945 22.5157 198.719 20.6267 200.097 19.234C201.474 17.8412 203.343 17.0588 205.292 17.0588Z" fill="#96AFCE"/>
<g opacity="0.65">
<path opacity="0.65" d="M334.686 60.4529H197.415V62.596H334.686V60.4529Z" fill="#F2F7FF"/>
<path opacity="0.65" d="M243.407 62.7302H241.802V102.508H243.407V62.7302Z" fill="#C5D2E4"/>
<path opacity="0.65" d="M299.058 16.9251H297.453V60.7213H299.058V16.9251Z" fill="#F2F7FF"/>
<path opacity="0.65" d="M248.958 73.5787V88.4455" stroke="#C5D2E4" stroke-width="0.831" stroke-miterlimit="10" stroke-linecap="round"/>
<path opacity="0.65" d="M237.032 73.5787V88.4455" stroke="#C5D2E4" stroke-width="0.831" stroke-miterlimit="10" stroke-linecap="round"/>
<path opacity="0.65" d="M303.018 33.3987V48.2655" stroke="#C5D2E4" stroke-width="0.831" stroke-miterlimit="10" stroke-linecap="round"/>
<path opacity="0.65" d="M293.08 33.3987V48.2655" stroke="#C5D2E4" stroke-width="0.831" stroke-miterlimit="10" stroke-linecap="round"/>
</g>
<g opacity="0.65">
<g opacity="0.46">
<path opacity="0.46" d="M233.929 101.43H204.716C204.716 101.242 204.752 101.056 204.823 100.883C204.894 100.71 204.998 100.552 205.129 100.419C205.261 100.287 205.416 100.181 205.588 100.11C205.759 100.038 205.943 100.001 206.129 100.001H232.516C232.702 100.001 232.886 100.038 233.057 100.11C233.229 100.181 233.384 100.287 233.516 100.419C233.647 100.552 233.751 100.71 233.822 100.883C233.893 101.056 233.929 101.242 233.929 101.43Z" fill="#C5D2E4"/>
<g opacity="0.46">
<path opacity="0.46" d="M208.486 86.8416H211.519V96.5517C211.519 96.9582 211.359 97.3481 211.075 97.6355C210.791 97.923 210.405 98.0844 210.003 98.0844C209.804 98.0846 209.606 98.045 209.422 97.9681C209.238 97.8911 209.071 97.7782 208.93 97.6359C208.789 97.4935 208.677 97.3245 208.601 97.1385C208.525 96.9525 208.486 96.7531 208.486 96.5517V86.8416Z" fill="#C5D2E4"/>
<path opacity="0.46" d="M211.517 86.563H208.439C208.287 86.563 208.163 86.6882 208.163 86.8426V87.3057C208.163 87.46 208.287 87.5852 208.439 87.5852H211.517C211.67 87.5852 211.794 87.46 211.794 87.3057V86.8426C211.794 86.6882 211.67 86.563 211.517 86.563Z" fill="#C5D2E4"/>
</g>
<g opacity="0.46">
<path opacity="0.46" d="M214.978 86.8416H218.012V96.5517C218.012 96.9582 217.852 97.3481 217.568 97.6355C217.283 97.923 216.897 98.0844 216.495 98.0844C216.296 98.0846 216.099 98.045 215.915 97.9681C215.731 97.8911 215.563 97.7782 215.422 97.6359C215.282 97.4935 215.17 97.3245 215.094 97.1385C215.017 96.9525 214.978 96.7531 214.978 96.5517V86.8416Z" fill="#C5D2E4"/>
<path opacity="0.46" d="M218.009 86.563H214.931C214.779 86.563 214.655 86.6882 214.655 86.8426V87.3057C214.655 87.46 214.779 87.5852 214.931 87.5852H218.009C218.162 87.5852 218.285 87.46 218.285 87.3057V86.8426C218.285 86.6882 218.162 86.563 218.009 86.563Z" fill="#C5D2E4"/>
</g>
<g opacity="0.46">
<path opacity="0.46" d="M220.808 86.8416H223.842V96.5517C223.842 96.9582 223.682 97.3481 223.398 97.6355C223.113 97.923 222.728 98.0844 222.325 98.0844C222.126 98.0846 221.929 98.045 221.745 97.9681C221.561 97.8911 221.393 97.7782 221.253 97.6359C221.112 97.4935 221 97.3245 220.924 97.1385C220.847 96.9525 220.808 96.7531 220.808 96.5517V86.8416Z" fill="#C5D2E4"/>
<path opacity="0.46" d="M223.84 86.563H220.761C220.609 86.563 220.485 86.6882 220.485 86.8426V87.3057C220.485 87.46 220.609 87.5852 220.761 87.5852H223.84C223.992 87.5852 224.116 87.46 224.116 87.3057V86.8426C224.116 86.6882 223.992 86.563 223.84 86.563Z" fill="#C5D2E4"/>
</g>
<g opacity="0.46">
<path opacity="0.46" d="M227.036 86.8416H230.069V96.5517C230.069 96.9582 229.91 97.3481 229.625 97.6355C229.341 97.923 228.955 98.0844 228.553 98.0844C228.354 98.0846 228.157 98.045 227.973 97.9681C227.789 97.8911 227.621 97.7782 227.48 97.6359C227.339 97.4935 227.228 97.3245 227.151 97.1385C227.075 96.9525 227.036 96.7531 227.036 96.5517V86.8416Z" fill="#C5D2E4"/>
<path opacity="0.46" d="M230.067 86.563H226.989C226.836 86.563 226.713 86.6882 226.713 86.8426V87.3057C226.713 87.46 226.836 87.5852 226.989 87.5852H230.067C230.22 87.5852 230.343 87.46 230.343 87.3057V86.8426C230.343 86.6882 230.22 86.563 230.067 86.563Z" fill="#C5D2E4"/>
</g>
<path opacity="0.46" d="M207.385 89.3504H231.278C231.645 89.3504 231.997 89.4976 232.256 89.7596C232.515 90.0216 232.661 90.3769 232.661 90.7474V100.036H206.003V90.7474C206.003 90.3769 206.149 90.0216 206.408 89.7596C206.667 89.4976 207.018 89.3504 207.385 89.3504V89.3504Z" stroke="#C5D2E4" stroke-width="1.154" stroke-miterlimit="10"/>
</g>
<g opacity="0.46">
<path opacity="0.46" d="M250.258 102.296H265.943V81.8477H250.258V102.296Z" fill="#85A0C2"/>
<path opacity="0.46" d="M279.276 102.296H294.96V81.8477H279.276V102.296Z" fill="#85A0C2"/>
<g opacity="0.46">
<g opacity="0.46">
<path opacity="0.46" d="M272.577 102.182H262.196V89.9259C262.196 89.5881 262.261 89.2536 262.389 88.9415C262.517 88.6294 262.705 88.3459 262.941 88.107C263.177 87.8681 263.458 87.6787 263.767 87.5494C264.075 87.4201 264.406 87.3536 264.74 87.3536H270.032C270.707 87.3536 271.354 87.6246 271.832 88.107C272.309 88.5894 272.577 89.2437 272.577 89.9259V102.182Z" fill="#C5D2E4"/>
<path opacity="0.46" d="M264.678 87.3541H270.095V84.6166H264.678V87.3541Z" fill="#C5D2E4"/>
</g>
</g>
<g opacity="0.46">
<g opacity="0.46">
<path opacity="0.46" d="M286.887 102.182H276.506V89.9259C276.506 89.5881 276.572 89.2536 276.7 88.9415C276.827 88.6294 277.015 88.3459 277.251 88.107C277.487 87.8681 277.768 87.6787 278.077 87.5494C278.385 87.4201 278.716 87.3536 279.051 87.3536H284.342C285.017 87.3536 285.664 87.6246 286.142 88.107C286.619 88.5894 286.887 89.2437 286.887 89.9259V102.182Z" fill="#C5D2E4"/>
<path opacity="0.46" d="M278.988 87.3541H284.405V84.6166H278.988V87.3541Z" fill="#C5D2E4"/>
</g>
</g>
<g opacity="0.46">
<g opacity="0.46">
<path opacity="0.46" d="M300.8 102.182H290.419V89.9259C290.419 89.5881 290.485 89.2536 290.613 88.9415C290.74 88.6294 290.928 88.3459 291.164 88.107C291.4 87.8681 291.681 87.6787 291.99 87.5494C292.298 87.4201 292.629 87.3536 292.964 87.3536H298.255C298.93 87.3536 299.577 87.6246 300.055 88.107C300.532 88.5894 300.8 89.2437 300.8 89.9259V102.182Z" fill="#C5D2E4"/>
<path opacity="0.46" d="M292.901 87.3541H298.318V84.6166H292.901V87.3541Z" fill="#C5D2E4"/>
</g>
</g>
<g opacity="0.46">
<g opacity="0.46">
<path opacity="0.46" d="M314.712 102.182H304.331V89.9259C304.331 89.5881 304.396 89.2536 304.524 88.9415C304.652 88.6294 304.84 88.3459 305.076 88.107C305.312 87.8681 305.593 87.6787 305.902 87.5494C306.21 87.4201 306.541 87.3536 306.875 87.3536H312.167C312.842 87.3536 313.489 87.6246 313.967 88.107C314.444 88.5894 314.712 89.2437 314.712 89.9259V102.182Z" fill="#C5D2E4"/>
<path opacity="0.46" d="M306.813 87.3541H312.229V84.6166H306.813V87.3541Z" fill="#C5D2E4"/>
</g>
</g>
</g>
</g>
<g opacity="0.65">
<path opacity="0.65" d="M227.493 33.8003H208.412V60.3192H227.493V33.8003Z" fill="#85A0C2"/>
<path opacity="0.65" d="M278.372 33.8003H259.292V60.3192H278.372V33.8003Z" fill="#85A0C2"/>
<path opacity="0.65" d="M234.936 33.8003H228.685V60.3192H234.936V33.8003Z" fill="#85A0C2"/>
<g opacity="0.65">
<g opacity="0.68">
<g opacity="0.68">
<g opacity="0.68">
<path opacity="0.68" d="M244.475 60.2325H234.094V47.9768C234.094 47.639 234.16 47.3045 234.288 46.9924C234.416 46.6803 234.603 46.3968 234.839 46.1579C235.076 45.919 235.356 45.7296 235.665 45.6003C235.974 45.471 236.305 45.4045 236.639 45.4045H241.931C242.606 45.4045 243.253 45.6755 243.73 46.1579C244.207 46.6403 244.475 47.2946 244.475 47.9768V60.2325Z" fill="#C5D2E4"/>
<path opacity="0.68" d="M236.577 45.405H241.993V42.6675H236.577V45.405Z" fill="#C5D2E4"/>
</g>
</g>
<path opacity="0.49" d="M244.453 50.4081H234.117V56.4352H244.453V50.4081Z" fill="#FBFBFB" stroke="#FBFBFB" stroke-width="0.369" stroke-miterlimit="10"/>
</g>
<g opacity="0.68">
<g opacity="0.68">
<g opacity="0.68">
<path opacity="0.68" d="M252.668 60.2325H247.344V53.9486C247.344 53.7752 247.378 53.6034 247.443 53.4431C247.508 53.2828 247.604 53.1371 247.726 53.0144C247.847 52.8916 247.991 52.7942 248.149 52.7278C248.308 52.6614 248.478 52.6272 248.649 52.6272H251.363C251.534 52.6272 251.704 52.6614 251.863 52.7278C252.021 52.7942 252.165 52.8916 252.286 53.0144C252.408 53.1371 252.504 53.2828 252.569 53.4431C252.635 53.6034 252.668 53.7752 252.668 53.9486V60.2325Z" fill="#C5D2E4"/>
<path opacity="0.68" d="M248.618 52.6296H251.395V51.2257H248.618V52.6296Z" fill="#C5D2E4"/>
</g>
</g>
<path opacity="0.49" d="M252.656 55.1951H247.356V58.2857H252.656V55.1951Z" fill="#FBFBFB" stroke="#FBFBFB" stroke-width="0.189" stroke-miterlimit="10"/>
</g>
<g opacity="0.68">
<g opacity="0.68">
<g opacity="0.68">
<path opacity="0.68" d="M259.823 60.2325H254.499V53.9486C254.499 53.7752 254.532 53.6034 254.598 53.4431C254.663 53.2828 254.759 53.1371 254.88 53.0144C255.002 52.8916 255.146 52.7942 255.304 52.7278C255.463 52.6614 255.633 52.6272 255.804 52.6272H258.518C258.689 52.6272 258.859 52.6614 259.017 52.7278C259.176 52.7942 259.32 52.8916 259.441 53.0144C259.562 53.1371 259.658 53.2828 259.724 53.4431C259.789 53.6034 259.823 53.7752 259.823 53.9486V60.2325Z" fill="#C5D2E4"/>
<path opacity="0.68" d="M255.772 52.6296H258.55V51.2257H255.772V52.6296Z" fill="#C5D2E4"/>
</g>
</g>
<path opacity="0.49" d="M259.811 55.1951H254.511V58.2857H259.811V55.1951Z" fill="#FBFBFB" stroke="#FBFBFB" stroke-width="0.189" stroke-miterlimit="10"/>
</g>
<g opacity="0.68">
<g opacity="0.68">
<g opacity="0.68">
<path opacity="0.68" d="M266.978 60.2325H261.654V53.9486C261.654 53.7752 261.688 53.6034 261.753 53.4431C261.818 53.2828 261.915 53.1371 262.036 53.0144C262.157 52.8916 262.301 52.7942 262.459 52.7278C262.618 52.6614 262.788 52.6272 262.959 52.6272H265.673C265.844 52.6272 266.014 52.6614 266.173 52.7278C266.331 52.7942 266.475 52.8916 266.596 53.0144C266.718 53.1371 266.814 53.2828 266.879 53.4431C266.945 53.6034 266.978 53.7752 266.978 53.9486V60.2325Z" fill="#C5D2E4"/>
<path opacity="0.68" d="M262.928 52.6296H265.705V51.2257H262.928V52.6296Z" fill="#C5D2E4"/>
</g>
</g>
<path opacity="0.49" d="M266.966 55.1951H261.667V58.2857H266.966V55.1951Z" fill="#FBFBFB" stroke="#FBFBFB" stroke-width="0.189" stroke-miterlimit="10"/>
</g>
<path opacity="0.67" d="M275.519 48.6671H273.542C272.331 48.6671 271.35 49.6589 271.35 50.8823V57.9703C271.35 59.1937 272.331 60.1855 273.542 60.1855H275.519C276.729 60.1855 277.71 59.1937 277.71 57.9703V50.8823C277.71 49.6589 276.729 48.6671 275.519 48.6671Z" fill="#C5D2E4"/>
<path opacity="0.67" d="M283.734 48.6671H281.757C280.546 48.6671 279.565 49.6589 279.565 50.8823V57.9703C279.565 59.1937 280.546 60.1855 281.757 60.1855H283.734C284.944 60.1855 285.925 59.1937 285.925 57.9703V50.8823C285.925 49.6589 284.944 48.6671 283.734 48.6671Z" fill="#C5D2E4"/>
</g>
</g>
<g opacity="0.75">
<path opacity="0.26" d="M200.064 60.7111H230.614C235.215 54.1308 239.903 47.6138 244.678 41.16C250.687 33.0354 256.813 25.0016 263.056 17.0588H232.283C230.71 19.0233 229.147 20.9948 227.592 22.9735C217.991 35.2283 208.815 47.8075 200.064 60.7111Z" fill="#FBFBFB" stroke="#FBFBFB" stroke-width="0.378" stroke-miterlimit="10"/>
<path opacity="0.26" d="M256.851 101.972H284.407C288.557 96.037 292.786 90.1582 297.093 84.3362C302.512 77.0076 308.038 69.7609 313.671 62.596H285.913C284.494 64.368 283.084 66.1466 281.682 67.9319C273.021 78.9856 264.744 90.3325 256.851 101.972Z" fill="#FBFBFB" stroke="#FBFBFB" stroke-width="0.341" stroke-miterlimit="10"/>
<path opacity="0.26" d="M290.418 102.182C291.755 101.437 319.316 62.596 319.316 62.596H324.086L296.261 102.24L290.418 102.182Z" fill="#FBFBFB" stroke="#FBFBFB" stroke-width="0.341" stroke-miterlimit="10"/>
</g>
</g>
<g style="mix-blend-mode:multiply" opacity="0.81">
<g style="mix-blend-mode:multiply" opacity="0.5">
<path d="M172.056 0H109.419C105.789 0 102.847 2.97388 102.847 6.64234V167.513C102.847 171.182 105.789 174.155 109.419 174.155H172.056C175.685 174.155 178.627 171.182 178.627 167.513V6.64234C178.627 2.97388 175.685 0 172.056 0Z" fill="#DEE8F4"/>
</g>
<g style="mix-blend-mode:multiply" opacity="0.81">
<path d="M163.287 7.59277H117.269C114.377 7.59277 112.033 9.96242 112.033 12.8855V95.784C112.033 98.7071 114.377 101.077 117.269 101.077H163.287C166.179 101.077 168.524 98.7071 168.524 95.784V12.8855C168.524 9.96242 166.179 7.59277 163.287 7.59277Z" fill="#C8D5E4"/>
</g>
<g style="mix-blend-mode:multiply" opacity="0.19">
<path d="M112.051 84.7625C119.027 75.2679 125.9 65.6943 132.669 56.0418C139.415 46.4665 146.121 36.861 152.787 27.2253C157.17 20.9201 161.561 14.6201 165.959 8.32521C165.17 7.84537 164.266 7.59214 163.344 7.59277H141.518C140.351 9.19103 139.189 10.7928 138.031 12.3982C129.029 24.8962 120.363 37.6435 112.033 50.6401V84.7867L112.051 84.7625Z" fill="#FBFBFB"/>
<path d="M112.051 84.7625C119.027 75.2679 125.9 65.6943 132.669 56.0418C139.415 46.4665 146.121 36.861 152.787 27.2253C157.17 20.9201 161.561 14.6201 165.959 8.32521C165.17 7.84537 164.266 7.59214 163.344 7.59277H141.518C140.351 9.19103 139.189 10.7928 138.031 12.3982C129.029 24.8962 120.363 37.6435 112.033 50.6401V84.7867L112.051 84.7625Z" stroke="#FBFBFB" stroke-width="0.373" stroke-miterlimit="10"/>
</g>
<g style="mix-blend-mode:multiply" opacity="0.19">
<path d="M168.906 35.3417V20.1552C165.464 24.98 120.049 89.0821 114.156 99.8357C115.095 100.705 116.321 101.187 117.595 101.187H119.699C125.895 92.1087 159.243 48.6457 168.906 35.3417Z" fill="#FBFBFB"/>
<path d="M168.906 35.3417V20.1552C165.464 24.98 120.049 89.0821 114.156 99.8357C115.095 100.705 116.321 101.187 117.595 101.187H119.699C125.895 92.1087 159.243 48.6457 168.906 35.3417Z" stroke="#FBFBFB" stroke-width="0.373" stroke-miterlimit="10"/>
</g>
<g style="mix-blend-mode:multiply" opacity="0.62">
<path d="M102.847 114.839H178.627" stroke="#C1D3E8" stroke-width="1.169" stroke-miterlimit="10"/>
</g>
<g style="mix-blend-mode:multiply" opacity="0.62">
<path d="M102.847 130.024H178.627" stroke="#C1D3E8" stroke-width="1.169" stroke-miterlimit="10"/>
</g>
<g style="mix-blend-mode:multiply" opacity="0.62">
<path d="M102.847 145.209H178.627" stroke="#C1D3E8" stroke-width="1.169" stroke-miterlimit="10"/>
</g>
<g style="mix-blend-mode:multiply" opacity="0.5">
<path d="M31.2368 174.155H93.6815C97.3639 174.155 100.349 171.138 100.349 167.416L100.349 6.73972C100.349 3.01747 97.3639 0 93.6815 0H31.2368C27.5543 0 24.5691 3.01747 24.5691 6.73972L24.5691 167.416C24.5691 171.138 27.5543 174.155 31.2368 174.155Z" fill="#DEE8F4"/>
</g>
<g style="mix-blend-mode:multiply" opacity="0.81">
<path d="M39.9091 101.077H85.9274C88.8193 101.077 91.1636 98.7071 91.1636 95.784L91.1636 12.8855C91.1636 9.96241 88.8193 7.59277 85.9274 7.59277H39.9091C37.0172 7.59277 34.6729 9.96241 34.6729 12.8855L34.6729 95.784C34.6729 98.7071 37.0172 101.077 39.9091 101.077Z" fill="#C8D5E4"/>
</g>
<g style="mix-blend-mode:multiply" opacity="0.19">
<path d="M91.1458 84.7625C84.1697 75.2679 77.2971 65.6943 70.528 56.0418C63.7813 46.4665 57.075 36.861 50.4092 27.2253C46.026 20.9201 41.6354 14.6201 37.2373 8.32521C38.027 7.84535 38.9311 7.59213 39.8525 7.59277H61.6789C62.8454 9.19103 64.0075 10.7928 65.1654 12.3982C74.1674 24.8962 82.8334 37.6435 91.1635 50.6401V84.7867L91.1458 84.7625Z" fill="#FBFBFB"/>
<path d="M91.1458 84.7625C84.1697 75.2679 77.2971 65.6943 70.528 56.0418C63.7813 46.4665 57.075 36.861 50.4092 27.2253C46.026 20.9201 41.6354 14.6201 37.2373 8.32521C38.027 7.84535 38.9311 7.59213 39.8525 7.59277H61.6789C62.8454 9.19103 64.0075 10.7928 65.1654 12.3982C74.1674 24.8962 82.8334 37.6435 91.1635 50.6401V84.7867L91.1458 84.7625Z" stroke="#FBFBFB" stroke-width="0.373" stroke-miterlimit="10"/>
</g>
<g style="mix-blend-mode:multiply" opacity="0.19">
<path d="M34.6733 35.2308V20.0447C38.1152 24.8695 83.5307 88.9711 89.4234 99.7252C88.4845 100.594 87.2575 101.076 85.9844 101.077H83.8801C77.684 91.9982 44.3386 48.5353 34.6733 35.2308Z" fill="#FBFBFB"/>
<path d="M34.6733 35.2308V20.0447C38.1152 24.8695 83.5307 88.9711 89.4234 99.7252C88.4845 100.594 87.2575 101.076 85.9844 101.077H83.8801C77.684 91.9982 44.3386 48.5353 34.6733 35.2308Z" stroke="#FBFBFB" stroke-width="0.373" stroke-miterlimit="10"/>
</g>
<g style="mix-blend-mode:multiply" opacity="0.62">
<path d="M100.349 114.839H24.5691" stroke="#C1D3E8" stroke-width="1.169" stroke-miterlimit="10"/>
</g>
<g style="mix-blend-mode:multiply" opacity="0.62">
<path d="M100.349 130.024H24.5691" stroke="#C1D3E8" stroke-width="1.169" stroke-miterlimit="10"/>
</g>
<g style="mix-blend-mode:multiply" opacity="0.62">
<path d="M100.349 145.209H24.5691" stroke="#C1D3E8" stroke-width="1.169" stroke-miterlimit="10"/>
</g>
</g>
</g>
<path d="M223.646 114.768H149.772V180.866H223.646V114.768Z" fill="#7698C8"/>
<g opacity="0.52">
<g opacity="0.52">
<path opacity="0.67" d="M225.77 119.962H155.443V139.09H225.77V119.962Z" stroke="#B3C6E2" stroke-width="0.809" stroke-miterlimit="10"/>
<path opacity="0.67" d="M225.77 141.995H155.443V177.511H225.77V141.995Z" stroke="#B3C6E2" stroke-width="1.103" stroke-miterlimit="10"/>
<path opacity="0.52" d="M197.115 121.835H180.889C180.547 121.835 180.27 122.116 180.27 122.461V122.665C180.27 123.01 180.547 123.291 180.889 123.291H197.115C197.457 123.291 197.734 123.01 197.734 122.665V122.461C197.734 122.116 197.457 121.835 197.115 121.835Z" fill="#B3C6E2"/>
<path opacity="0.52" d="M197.115 144.076H180.889C180.547 144.076 180.27 144.356 180.27 144.702V144.905C180.27 145.251 180.547 145.531 180.889 145.531H197.115C197.457 145.531 197.734 145.251 197.734 144.905V144.702C197.734 144.356 197.457 144.076 197.115 144.076Z" fill="#B3C6E2"/>
</g>
</g>
<path d="M331.431 114.121H324.772V180.219H331.431V114.121Z" fill="#212121"/>
<path d="M148.822 114.121H142.163V180.219H148.822V114.121Z" fill="#1D3959"/>
<path d="M342.107 107.871H133.088V118.648H342.107V107.871Z" fill="#C5D9F6"/>
<path d="M263.708 76.2503L260.97 77.5529C260.021 78.0043 259.218 78.7195 258.656 79.6147C258.094 80.51 257.795 81.5484 257.795 82.6088V96.4268C257.795 97.9089 258.378 99.3303 259.415 100.378C260.451 101.426 261.858 102.015 263.324 102.015H281.645" stroke="#FBFBF6" stroke-width="2.806" stroke-miterlimit="10"/>
<path d="M269.722 93.23L274.57 92.225L273.697 87.9268L268.85 88.9318L269.722 93.23Z" fill="#FBFBF6" stroke="#FBFBF6" stroke-width="0.152061" stroke-miterlimit="10"/>
<path d="M267.081 90.2391L275.88 88.4169L275.592 86.9989L266.793 88.8211L267.081 90.2391Z" fill="#1D3959"/>
<path d="M269.368 93.6602L275.022 92.4894L274.917 91.9736L269.264 93.1444L269.368 93.6602Z" fill="#1D3959"/>
<path d="M264.752 89.2434L277.25 86.6551L272.587 72.1744L263.278 74.1024L264.752 89.2434Z" fill="#FBFBF6" stroke="#FBFBF6" stroke-width="0.152" stroke-miterlimit="10"/>
<path d="M261.345 76.8732C261.258 76.445 261.3 76.0005 261.463 75.5959C261.626 75.1913 261.905 74.8447 262.263 74.6001C262.621 74.3554 263.043 74.2236 263.476 74.2213C263.908 74.2191 264.331 74.3465 264.692 74.5874C265.053 74.8283 265.335 75.1719 265.503 75.5748C265.67 75.9777 265.716 76.4217 265.634 76.8508C265.552 77.2799 265.345 77.6748 265.041 77.9855C264.737 78.2962 264.349 78.5087 263.925 78.5963C263.644 78.6545 263.354 78.6561 263.072 78.6009C262.79 78.5458 262.522 78.4351 262.282 78.2751C262.042 78.1151 261.836 77.9089 261.675 77.6684C261.515 77.4278 261.402 77.1577 261.345 76.8732Z" fill="#FBFBF6" stroke="#FBFBF6" stroke-width="0.174" stroke-miterlimit="10"/>
<path d="M262.368 76.662C262.322 76.4382 262.344 76.2057 262.429 75.9941C262.514 75.7824 262.66 75.6011 262.847 75.473C263.034 75.3449 263.255 75.2758 263.481 75.2745C263.707 75.2731 263.928 75.3395 264.117 75.4654C264.306 75.5912 264.453 75.7708 264.541 75.9814C264.629 76.192 264.653 76.4242 264.61 76.6486C264.567 76.873 264.459 77.0795 264.3 77.242C264.141 77.4045 263.938 77.5157 263.717 77.5616C263.42 77.623 263.111 77.5627 262.858 77.394C262.605 77.2253 262.429 76.9621 262.368 76.662Z" fill="#1D3959"/>
<path d="M265.82 73.5315L269.603 72.748L269.211 70.8146L265.428 71.5981L265.82 73.5315Z" fill="#1D3959"/>
<path d="M265.254 71.753L269.475 70.881L269.397 69.1817L264.665 70.1616L265.254 71.753Z" fill="#FBFBF6" stroke="#FBFBF6" stroke-width="0.152" stroke-miterlimit="10"/>
<path d="M269.82 102.065H281.695V100.257H269.82V102.065Z" fill="#FBFBF6"/>
<path d="M265.528 105.888H273.497V102.737H265.528V105.888Z" fill="#1D3959"/>
<path d="M276.063 107.69H263.095C263.095 107.211 263.284 106.751 263.619 106.412C263.955 106.073 264.409 105.883 264.884 105.883H274.275C274.749 105.883 275.204 106.073 275.54 106.412C275.875 106.751 276.063 107.211 276.063 107.69V107.69Z" fill="#1D3959"/>
<path d="M265.265 105.832H274.01V105.296H265.265V105.832Z" fill="#FBFBF6" stroke="#FBFBF6" stroke-width="0.152" stroke-miterlimit="10"/>
<path d="M205.69 107.873H190.855V90.3599C190.855 89.3849 191.239 88.4499 191.921 87.7604C192.603 87.071 193.528 86.6837 194.492 86.6837H202.053C203.017 86.6837 203.942 87.071 204.624 87.7604C205.307 88.4499 205.69 89.3849 205.69 90.3599V107.873Z" fill="#1976D2"/>
<path d="M194.403 86.6842H202.143V82.7725H194.403V86.6842Z" fill="#0D47A1"/>
<path d="M190.856 102.983H206.012V92.8775H190.856V102.983Z" fill="#FBFBF6" stroke="#FBFBF6" stroke-width="0.395" stroke-miterlimit="10"/>
<path d="M197.496 100.258H199.048V95.2773H197.496V100.258Z" fill="#EF5350"/>
<path d="M200.736 98.5514V96.9834H195.809V98.5514H200.736Z" fill="#EF5350"/>
<path d="M132.375 184.892C152.235 184.892 168.334 183.794 168.334 182.44C168.334 181.085 152.235 179.987 132.375 179.987C112.515 179.987 96.416 181.085 96.416 182.44C96.416 183.794 112.515 184.892 132.375 184.892Z" fill="#212121"/>
<path d="M115.939 130.844H166.53C168.515 130.844 170.42 131.641 171.824 133.061C173.228 134.48 174.016 136.405 174.016 138.412V141.073H121.977C120.376 141.073 118.84 140.43 117.708 139.285C116.575 138.141 115.939 136.588 115.939 134.969V130.844Z" fill="white"/>
<path d="M139.803 141.072H106.802C103.468 141.072 101.873 138.965 101.873 135.594C101.796 135.001 101.845 134.399 102.017 133.827C102.189 133.255 102.48 132.727 102.87 132.277C103.26 131.828 103.741 131.468 104.279 131.221C104.818 130.975 105.403 130.847 105.994 130.847H132.316C134.301 130.847 136.205 131.644 137.609 133.062C139.013 134.481 139.802 136.405 139.803 138.411V141.072Z" fill="#212121"/>
<path d="M135.247 138.484H129.652V172.417H135.247V138.484Z" fill="#212121"/>
<path d="M118.812 179.605C118.812 178.646 118.999 177.696 119.362 176.81C119.725 175.923 120.257 175.118 120.929 174.44C121.6 173.761 122.396 173.223 123.273 172.856C124.15 172.489 125.09 172.3 126.039 172.3H138.394C140.31 172.3 142.149 173.07 143.504 174.44C144.859 175.81 145.621 177.668 145.621 179.605V179.605" stroke="#212121" stroke-width="3.291" stroke-miterlimit="10"/>
<path d="M121.724 182.911C123.274 181.539 123.429 179.157 122.07 177.592C120.712 176.026 118.355 175.87 116.805 177.242C115.256 178.614 115.101 180.995 116.459 182.561C117.818 184.126 120.175 184.283 121.724 182.911Z" fill="#212121"/>
<path d="M119.264 182.002C120.316 182.002 121.169 181.14 121.169 180.076C121.169 179.012 120.316 178.15 119.264 178.15C118.211 178.15 117.358 179.012 117.358 180.076C117.358 181.14 118.211 182.002 119.264 182.002Z" fill="#FBFBF6" stroke="#FBFBF6" stroke-width="0.386" stroke-miterlimit="10"/>
<path d="M147.894 182.961C149.47 181.621 149.673 179.243 148.346 177.65C147.02 176.057 144.666 175.852 143.089 177.192C141.513 178.532 141.31 180.91 142.637 182.503C143.964 184.096 146.317 184.301 147.894 182.961Z" fill="#1D3859"/>
<path d="M145.49 182.002C146.543 182.002 147.396 181.14 147.396 180.076C147.396 179.012 146.543 178.15 145.49 178.15C144.438 178.15 143.585 179.012 143.585 180.076C143.585 181.14 144.438 182.002 145.49 182.002Z" fill="#FBFBF6" stroke="#FBFBF6" stroke-width="0.386" stroke-miterlimit="10"/>
<path d="M129.884 144.847H135.246" stroke="#FBFBF6" stroke-width="0.386" stroke-miterlimit="10"/>
<path d="M129.884 148.735H135.246" stroke="#FBFBF6" stroke-width="0.386" stroke-miterlimit="10"/>
<path d="M129.884 152.624H135.246" stroke="#FBFBF6" stroke-width="0.386" stroke-miterlimit="10"/>
<path d="M129.884 156.512H135.246" stroke="#FBFBF6" stroke-width="0.386" stroke-miterlimit="10"/>
<path d="M129.884 160.4H135.246" stroke="#FBFBF6" stroke-width="0.386" stroke-miterlimit="10"/>
<path d="M129.884 164.288H135.246" stroke="#FBFBF6" stroke-width="0.386" stroke-miterlimit="10"/>
<path d="M129.884 168.176H135.246" stroke="#FBFBF6" stroke-width="0.386" stroke-miterlimit="10"/>
<path d="M146.545 169.425L144.395 182.165L159.07 183.258L152.428 177.168L154.745 170.297L146.545 169.425Z" fill="#FFD9CD"/>
<path d="M149.956 169.518L146.558 181.697L144.704 181.541L146.081 169.037L149.956 169.518Z" fill="#FFC5B2"/>
<path d="M158.98 180.592C158.98 180.592 160.506 183.397 160.04 183.402C160.04 183.402 144.362 183.702 144.317 183.495C143.934 181.699 144.302 180.474 144.781 179.747C144.936 179.513 149.889 179.034 150.819 178.355C155.833 174.701 158.763 180.421 158.98 180.592Z" fill="#FFA600"/>
<path d="M145.144 170.861C146.774 171.7 153.951 171.523 155.831 171.284C156.271 167.509 168.723 142.958 170.808 123.694C171.829 114.26 166.13 110.627 159.58 110.428C153.446 110.242 134.021 109.235 126.417 109.464L122.163 115.744C121.521 117.627 121.345 119.64 121.65 121.607C121.956 123.574 122.733 125.436 123.915 127.029C125.096 128.622 126.646 129.899 128.429 130.747C130.211 131.595 132.172 131.988 134.14 131.893L149.523 131.211C151.669 131.111 151.743 131.986 151.71 134.159L145.144 170.861Z" fill="#166EBB"/>
<path d="M144.876 172.816L145.459 166.925L158.048 166.336L154.9 173.994L144.876 172.816Z" fill="#E2E3E8"/>
<g style="mix-blend-mode:multiply" opacity="0.57">
<path d="M150.586 110.581L126.64 109.085C126.64 109.085 117.295 118.095 123.709 126.642C140.552 116.25 150.586 110.581 150.586 110.581Z" fill="#121B37"/>
</g>
<path d="M140.829 169.425L138.679 182.165L153.354 183.258L146.712 177.168L149.03 170.297L140.829 169.425Z" fill="#FFD9CD"/>
<path d="M144.24 169.518L140.842 181.697L138.988 181.541L140.364 169.035L144.24 169.518Z" fill="#FFC5B2"/>
<path d="M153.34 180.168C154.593 181.434 154.55 184.012 154.593 184.012C154.593 184.012 138.646 183.7 138.602 183.493C138.218 181.697 138.586 180.472 139.065 179.746C139.22 179.511 142.63 180.16 143.71 179.767C147.79 173.994 153.145 179.971 153.34 180.168Z" fill="#FFC800"/>
<path d="M139.729 170.49C141.407 171.324 147.832 171.756 149.772 171.519C150.225 167.767 164.02 142.754 166.168 123.607C167.219 114.23 161.348 110.618 154.602 110.421C148.283 110.236 128.275 109.235 120.439 109.462L117.97 112.982C113.902 118.778 115.503 127.014 121.642 130.476C123.651 131.604 125.934 132.14 128.23 132.021L143.979 131.8C146.19 131.701 146.524 131.851 146.491 134.009L139.729 170.49Z" fill="#1E88E5"/>
<g style="mix-blend-mode:multiply" opacity="0.57">
<path d="M144.462 110.581L121.36 109.163C121.36 109.163 111.446 117.934 117.861 126.483C134.705 116.09 144.462 110.581 144.462 110.581Z" fill="#5064B1"/>
</g>
<path d="M128.79 109.073C128.79 109.78 119.931 120.62 129.49 122.269C139.048 123.919 156.015 120.321 158.164 122.977C162.361 128.16 144.876 168.456 144.876 168.456" stroke="white" stroke-width="0.569" stroke-miterlimit="10"/>
<path d="M139.339 172.698L139.922 166.807L151.928 166.571L149.363 174.467L139.339 172.698Z" fill="white"/>
<g style="mix-blend-mode:multiply" opacity="0.57">
<path d="M137.03 78.0586C138.442 93.717 140.469 106.653 140.469 106.653C140.469 106.653 134.985 105.652 133.685 103.226L137.03 78.0586Z" fill="#DCBD72"/>
</g>
<path d="M137.391 56.3921C135.924 53.6352 133.774 53.0118 130.953 52.1534C124.148 50.0816 122.498 51.4059 121.189 55.4518C120.522 57.5272 120.59 59.7726 121.381 61.803C121.59 62.2535 121.624 62.7675 121.474 63.2417C121.324 63.7159 121.002 64.1152 120.573 64.3593C118.037 66.1269 116.201 66.9223 116.116 70.1917C116.03 73.461 119.001 72.4893 117.69 75.3173C116.378 78.1453 112.794 76.819 113.406 80.6192L116.728 81.591L119.438 77.8799L118.651 82.3849C118.651 82.3849 137.447 83.7103 141.643 81.1477C141.643 81.1477 142.342 77.8784 137.884 74.6081C133.426 71.3378 137.185 68.8644 137.185 67.0967C137.185 65.3291 137.391 56.3921 137.391 56.3921Z" fill="#0E1232" stroke="#0E1232" stroke-width="0.666" stroke-miterlimit="10"/>
<path d="M122.272 58.2561C122.525 57.7233 122.613 57.1262 122.525 56.5423C122.437 55.9583 122.178 55.4145 121.781 54.9814C120.963 54.1277 119.876 53.5894 118.707 53.4594C118.074 53.3423 117.422 53.3636 116.798 53.5219C116.043 53.7587 115.383 54.2342 114.916 54.8782C114.516 55.4097 114.239 56.0245 114.104 56.678C113.969 57.3314 113.98 58.0071 114.135 58.6558C114.291 59.3045 114.588 59.9101 115.004 60.4283C115.42 60.9466 115.946 61.3645 116.542 61.6518C117.298 61.9981 118.121 62.1697 118.952 62.1542C119.535 62.1785 120.116 62.0568 120.642 61.8001C121.614 61.2701 122.075 60.1395 122.463 59.0946" fill="#0E1232"/>
<path d="M179.323 107.952C179.639 107.468 176.889 106.975 177.597 106.853C178.306 106.731 181.491 107.095 181.553 106.538C181.604 106.071 177.941 106.078 177.86 105.675C177.778 105.272 181.967 105.803 182.122 105.433C182.558 104.392 177.765 104.67 177.71 103.979C177.642 104.067 181.855 104.181 181.647 103.398C181.552 103.037 178.38 102.858 175.362 102.771C175.315 102.769 175.27 102.753 175.233 102.725C175.196 102.696 175.169 102.656 175.155 102.611C175.142 102.566 175.142 102.518 175.157 102.473C175.172 102.429 175.201 102.39 175.239 102.363C176.283 101.609 177.423 100.771 176.618 100.527C171.084 101.663 169.931 102.685 169.931 102.685L169.927 102.714L149.74 98.3683C149.094 98.3426 148.753 96.6244 148.429 96.0349C145.186 90.1172 140.659 80.3111 140.298 80.6832C139.73 81.2693 137.443 83.2612 138.031 83.5572C132.273 92.2671 138.812 101.328 141.266 105.077C144.454 109.947 170.504 107.475 170.504 107.475V107.444C171.9 107.861 179.037 108.391 179.323 107.952Z" fill="#FFD9CD"/>
<path d="M140.491 103.464L138.615 98.908L134.91 76.554C137.656 76.977 140.156 78.3923 141.948 80.5374C144.044 82.9852 146.456 88.1796 146.456 88.1796L139.98 95.2879" fill="#FF9500"/>
<path d="M134.526 56.4642C133.701 56.1373 129.739 55.3666 126.442 62.0864C126.428 62.1175 126.408 62.1453 126.383 62.1679C126.357 62.1905 126.327 62.2075 126.295 62.2176C126.263 62.2278 126.229 62.2309 126.195 62.2268C126.162 62.2228 126.129 62.2115 126.1 62.1939C125.593 61.8708 124.302 61.2542 123.369 62.6052C122.427 63.9713 123.748 66.3159 124.906 65.9477C125.158 65.8678 125.271 66.3406 125.327 66.6157C125.5 67.4601 125.544 76.0498 124.994 76.401L123.107 77.8595C123.559 78.1594 126.441 81.9829 129.049 82.1224C129.809 82.2353 132.52 83.3184 133.158 83.271C134.376 83.301 136.234 81.5435 136.129 81.062C136.38 80.963 136.584 80.77 136.698 80.5232C136.812 80.2764 136.827 79.9947 136.741 79.7367L133.76 76.2905C133.264 73.9343 132.982 71.783 132.828 70.4838C133.79 70.2847 137.411 71.4042 138.004 64.6223C138.549 58.4203 135.504 56.8518 134.526 56.4642Z" fill="#FFD9CD"/>
<path d="M132.854 70.4048L131.133 70.1834L133.353 74.6716L132.854 70.4048Z" fill="#FFC5B2"/>
<path d="M117.781 81.451C117.781 81.451 122.759 76.742 125.209 75.7591C136.224 82.2987 133.864 76.0241 133.864 76.0241C134.308 76.398 135.123 76.0338 135.787 77.2613C137.328 80.1087 142.086 87.67 142.648 90.5024C143.408 94.3293 140.245 108.102 140.245 109.604L113.232 110.399C113.232 110.399 116.101 86.6047 117.781 81.451Z" fill="#FFC800"/>
<g style="mix-blend-mode:multiply" opacity="0.57">
<path d="M126.226 80.7956L139.018 110.132L120.995 109.715C120.995 109.715 126.111 86.0341 126.226 80.7956Z" fill="#FF7500"/>
</g>
<path d="M125.817 63.9543C124.679 61.2934 123.75 63.4306 123.75 63.4306L125.817 63.9543Z" fill="#FFC5B2"/>
<path d="M131.938 63.8216C132.246 63.8922 132.526 64.0536 132.744 64.2854C132.961 64.5172 133.106 64.809 133.159 65.1238C133.213 65.4386 133.172 65.7623 133.044 66.0541C132.915 66.3458 132.704 66.5925 132.436 66.7628C132.169 66.9331 131.858 67.0196 131.542 67.0111C131.226 67.0026 130.92 66.8997 130.662 66.7153C130.404 66.5309 130.206 66.2733 130.093 65.9751C129.979 65.6768 129.956 65.3514 130.026 65.0399C130.072 64.833 130.159 64.6374 130.28 64.4642C130.401 64.291 130.555 64.1436 130.732 64.0304C130.91 63.9173 131.108 63.8406 131.314 63.8048C131.521 63.769 131.733 63.7747 131.938 63.8216Z" fill="#FFB2B2"/>
<path d="M137.57 66.9892C137.235 66.8355 136.962 66.5697 136.798 66.2367C136.635 65.9036 136.59 65.5236 136.671 65.161C136.803 64.5743 137.458 64.2096 137.99 64.0468C137.99 64.0463 138.123 65.8958 137.57 66.9892Z" fill="#FFB2B2"/>
<path d="M136.017 64.1238C135.609 64.0647 131.704 65.0665 131.704 65.0665L127.526 62.4453C126.945 62.0807 126.267 61.9056 125.585 61.944L131.536 65.9162L131.037 68.4376L124.907 65.9477C125.155 66.5171 125.61 66.9682 126.177 67.2072L130.888 69.1933C130.888 69.1933 133.161 70.9604 135.492 70.3714C137.824 69.7823 137.94 64.9512 137.94 64.9512C137.321 64.6257 136.678 64.3491 136.017 64.1238Z" fill="white"/>
<path d="M126.576 62.0031C126.576 62.0031 130.596 61.2449 134.735 56.1416C134.735 56.1411 127.391 49.9851 126.576 62.0031Z" fill="#0E1232" stroke="#0E1232" stroke-width="0.695" stroke-miterlimit="10"/>
<path d="M121.622 80.7956C114.663 81.544 112.571 105.695 117.425 109.604C119.524 112.961 140.665 120.467 142.545 120.738C144.579 121.919 146.829 122.67 149.158 122.947C151.781 123.301 154.822 123.054 154.8 122.644C154.771 122.099 150.979 121.407 151.158 121.278C151.337 121.149 155.333 122.121 155.499 121.719C155.665 121.317 151.874 120.625 151.857 120.352C151.84 120.079 155.844 121.187 156.002 120.649C156.16 120.11 152.168 119.139 152.339 118.873C152.511 118.607 156.153 119.974 156.5 119.443C156.846 118.912 150.896 116.502 150.701 116.359C150.505 116.215 153.507 115.113 153.701 114.994C154.452 114.536 152.934 114.505 152.934 114.505C151.981 113.964 149.033 114.826 146.709 114.817C137.879 111.548 131.235 106.835 123.892 102.358C122.953 101.783 128.091 81.1492 121.622 80.7956Z" fill="#FFD9CD"/>
<path d="M125.119 98.1159C128.703 85.756 125.993 79.3821 122.873 77.5926C122.873 77.5926 114.453 76.2009 112.18 97.4087C113.279 98.1702 124.536 98.3514 125.119 98.1159Z" fill="#FFC800"/>
<path d="M232.3 186C252.16 186 268.259 184.903 268.259 183.548C268.259 182.194 252.16 181.096 232.3 181.096C212.441 181.096 196.341 182.194 196.341 183.548C196.341 184.903 212.441 186 232.3 186Z" fill="#212121"/>
<path d="M214.679 176.969L215.75 174.829L222.134 175.062L222.278 176.969L219.279 182.229L213.88 178.022L214.679 176.969Z" fill="#FFD9CD"/>
<path d="M218.573 175.044L218.841 180.014C220.123 179.231 221.328 178.324 222.437 177.306L222.171 174.493L218.573 175.044Z" fill="#FFC5B3"/>
<path d="M214.293 176.896C214.293 176.896 216.168 176.86 218.35 178.532C219.649 179.528 221.612 177.474 222.213 176.943C222.335 176.835 222.5 176.932 222.522 177.124L223.277 184.07H204.281C204.16 184.052 204.051 183.987 203.976 183.889C203.902 183.791 203.868 183.667 203.881 183.544V182.083C203.876 181.982 203.898 181.881 203.946 181.793C203.995 181.705 204.067 181.632 204.155 181.584L214.293 176.896Z" fill="white"/>
<path d="M213.226 177.26L216.284 179.048" stroke="#212121" stroke-width="0.563" stroke-miterlimit="10"/>
<path d="M211.894 177.949L214.952 179.737" stroke="#212121" stroke-width="0.563" stroke-miterlimit="10"/>
<path d="M245.628 176.969L246.699 174.829L252.558 173.94L253.226 176.969L250.226 182.229L244.828 178.022L245.628 176.969Z" fill="#FFD9CD"/>
<path d="M250.158 174.906L249.626 179.599C250.909 178.817 252.114 177.91 253.223 176.892L252.691 174.492L250.158 174.906Z" fill="#FFC5B3"/>
<path d="M245.242 176.896C245.242 176.896 247.117 176.86 249.299 178.532C250.598 179.528 252.558 177.474 253.162 176.943C253.284 176.835 253.449 176.932 253.471 177.124L254.226 184.07H235.23C235.109 184.052 235 183.987 234.925 183.889C234.85 183.791 234.817 183.667 234.83 183.544V182.083C234.825 181.982 234.847 181.881 234.895 181.793C234.944 181.705 235.016 181.632 235.104 181.584L245.242 176.896Z" fill="white"/>
<path d="M243.745 177.398L246.803 179.186" stroke="#212121" stroke-width="0.563" stroke-miterlimit="10"/>
<path d="M242.413 178.088L245.471 179.876" stroke="#212121" stroke-width="0.563" stroke-miterlimit="10"/>
<path d="M215.865 92.8959C215.865 92.8959 213.421 122.434 213.192 130.595C212.963 138.756 214.582 175.138 214.582 175.138L224.745 175.321C224.745 175.321 231.844 114.284 241.714 94.601L215.865 92.8959Z" fill="#212121"/>
<path d="M228.19 94.4552C228.19 94.4552 221.238 128.578 221.238 133.818C221.238 139.057 220.212 175.06 220.212 175.06" stroke="white" stroke-width="0.563" stroke-miterlimit="10" stroke-dasharray="6 6"/>
<path d="M215.844 92.8959C215.844 92.8959 221.493 117.518 227.229 134.938C231.866 149.014 242.134 175.971 242.134 175.971L253.529 175.684L243.632 135.356C243.105 133.253 242.772 131.105 242.638 128.94C242.129 120.761 243.792 104.232 244.488 93.6409L215.844 92.8959Z" fill="#212121"/>
<path d="M235.635 93.3546C235.635 93.3546 232.967 125.269 235.363 130.235C237.759 135.202 249.46 175.613 249.46 175.613" stroke="white" stroke-width="0.563" stroke-miterlimit="10" stroke-dasharray="6 6"/>
<path d="M173.498 67.6974C173.718 66.8487 178.792 68.7704 178.954 68.5272C179.116 68.284 173.664 66.7489 173.827 66.1536C173.989 65.5582 179.037 67.2653 179.28 67.0769C179.522 66.8884 174.424 64.9091 174.937 64.3157C175.449 63.7223 183.775 65.907 184.354 65.6522C184.932 65.3974 182.141 62.8465 181.947 61.4755C181.753 60.1046 188.081 65.8353 188.081 65.8353C188.465 66.0182 188.861 66.1756 189.265 66.3066L189.281 66.2127L202.599 66.1642C202.599 66.1642 208.631 35.9118 220.227 42.0538C226.708 45.4864 216.163 78.3914 212.688 82.1708L201.022 78.6041C195.315 77.2555 186.559 74.5897 186.559 74.5897C186.559 74.5897 174.706 70.4441 174.776 69.7257C174.846 69.0073 178.058 70.0439 178.058 70.0439C177.608 69.498 173.258 68.6275 173.498 67.6974Z" fill="#FFD9CD"/>
<path d="M191.705 66.2035L189.283 66.2127L189.266 66.3067C188.862 66.1758 188.466 66.0182 188.083 65.8348C188.083 65.8348 181.753 60.1047 181.948 61.4751C182.143 62.8455 184.933 65.3989 184.355 65.6517C183.777 65.9046 175.451 63.7213 174.938 64.3152C174.425 64.9091 179.524 66.8884 179.281 67.0764C179.038 67.2644 173.992 65.5573 173.828 66.1531C173.664 66.7489 179.117 68.2845 178.956 68.5267C178.795 68.7689 173.719 66.8482 173.499 67.6969C173.26 68.6256 177.609 69.4961 178.063 70.041C178.063 70.041 174.852 69.0044 174.78 69.7228C174.709 70.4412 186.563 74.5868 186.563 74.5868C186.563 74.5868 188.131 75.064 190.369 75.716C190.773 72.5411 191.211 69.3677 191.705 66.2035Z" fill="#ABD8FF"/>
<path d="M182.757 65.5132L185.598 68.6299C185.598 68.6299 184.383 65.9894 184.532 65.6784L182.757 65.5132Z" fill="#6B9FCC"/>
<path d="M202.04 65.3204C202.04 65.3204 208.633 35.9104 220.229 42.0523C226.71 45.4849 219.801 73.1234 216.325 76.9028L202.04 65.3204Z" fill="#16A75C"/>
<path d="M205.325 68.052L216.325 76.9009C219.801 73.1224 219.495 47.2613 213.014 43.8287L205.325 68.052Z" fill="black" fill-opacity="0.4"/>
<path d="M202.954 61.7638L218.249 72.56" stroke="white" stroke-width="0.5" stroke-miterlimit="10"/>
<path d="M240.491 49.9813C237.466 40.2973 229.137 38.1615 229.137 38.1615L224.606 36.8792L224.549 36.964L218.494 44.9264L216.812 41.9559L216.698 40.7638L214.795 41.86C213.945 42.1415 210.93 46.447 210.304 48.8662C209.596 51.8618 209.341 54.9487 209.548 58.0217L215.274 101.632L250.208 97.0386C250.208 97.0386 243.681 60.1962 240.491 49.9813Z" fill="#16A75C"/>
<path d="M214.956 97.7284L249.191 92.5945" stroke="white" stroke-width="0.5" stroke-miterlimit="10"/>
<path d="M215.415 41.5243L217.779 50.4802L226.746 37.2682" stroke="white" stroke-width="0.5" stroke-miterlimit="10"/>
<path d="M219.667 28.3767C223.921 28.6562 222.05 15.9611 219.536 15.4762C218.204 15.4142 217.915 14.0714 216.9 14.1518C212.385 10.556 204.714 14.5427 201.683 17.3974C201.281 18.5929 205.762 21.2204 206.98 21.5634C206.98 21.5634 207.054 24.9456 208.769 25.8704C210.483 26.7951 217.347 25.5434 217.347 25.5434L218.166 26.7409" fill="#0F1532"/>
<path d="M207.836 22.028C207.836 22.028 208.59 33.2229 212.312 36.7194C213.236 37.2392 215.2 36.3512 216.18 36.2074C216.16 35.7583 216.52 37.6485 216.193 41.1C216.407 41.9947 218.129 47.7675 218.129 47.7675L225.093 37.1481L221.786 28.1651C221.786 28.1651 222.427 28.2237 222.827 27.2088C222.981 26.6925 223.028 26.1496 222.966 25.6139C222.904 25.0783 222.734 24.5613 222.465 24.095C221.812 23.021 219.634 23.5374 219.422 24.6535C219.354 25.0086 219.043 25.4286 218.539 25.0149C218.107 24.6617 216.701 19.8612 215.302 20.272C212.277 21.1604 210.568 21.7165 209.085 21.9345C208.674 22.0219 208.254 22.0533 207.836 22.028Z" fill="#FFD9CD"/>
<path d="M220.555 25.2542C220.532 25.3753 221.561 23.9409 222.29 25.787L220.555 25.2542Z" fill="#FFC5B3"/>
<path d="M215.445 36.3759L217.951 33.7562L216.289 41.596L215.445 36.3759Z" fill="#FFC5B3"/>
<path d="M217.576 34.3205C217.576 34.3205 215.432 30.7281 215.44 29.2584L209.085 30.4583C209.085 30.4583 210.251 37.0333 211.65 37.2464C213.05 37.4596 216.185 36.404 216.691 36.0107C217.196 35.6173 217.576 34.3205 217.576 34.3205Z" fill="white"/>
<path d="M212.965 36.7639C213.597 36.4639 214.156 36.0267 214.602 35.4836C215.047 34.9404 215.369 34.3047 215.544 33.6215C215.659 33.331 215.745 33.0297 215.801 32.7219C215.922 31.9567 215.882 31.1742 215.685 30.4253C216.205 31.775 216.837 33.0775 217.576 34.3186C217.576 34.3186 217.196 35.6168 216.691 36.0097C216.185 36.4026 213.048 37.46 211.65 37.245C211.459 37.1978 211.29 37.085 211.171 36.9257C211.771 37.0729 212.401 37.016 212.965 36.7639Z" fill="#E2E3E8"/>
<path d="M215.309 29.331C215.309 29.331 218.817 23.9055 219.973 23.875C219.973 23.875 216.404 28.4794 215.455 29.8406C215.369 29.8334 215.309 29.331 215.309 29.331Z" fill="white"/>
<path d="M222.13 28.1016C222.13 28.1016 217.932 33.9069 217.577 34.3196L217.282 33.7901L221.791 28.1563L222.13 28.1016Z" fill="white"/>
<path d="M227.407 59.7476L229.258 79.9406L249.36 92.596C249.36 92.596 245.774 76.6959 245.229 68.58L227.407 59.7476Z" fill="black" fill-opacity="0.4"/>
<path d="M208.217 84.8555C208.017 84.6864 202.279 83.5907 202.192 82.9512C202.062 81.9902 208.439 83.3276 208.548 83.3451C210.191 83.6086 202.397 82.305 202.15 81.6666C201.904 81.0281 205.499 81.3759 205.627 81.3842C205.627 81.3842 208.688 81.8647 208.77 81.6462C208.852 81.4277 201.96 79.6393 202.526 79.1757C203.092 78.7121 207.661 79.1757 208.778 79.4412C209.896 79.7066 211.232 79.4765 212.096 79.5865C213.287 79.7391 208.396 76.5918 209.804 75.5983C209.804 75.5983 214.443 77.722 215.88 78.9766C216.635 79.6364 230.703 76.1331 230.703 76.1331C232.173 75.7746 232.273 75.4859 231.956 73.9915L228.638 52.7027C228.638 52.7027 227.722 42.9548 232.136 43.8892C238.718 45.2819 247.181 56.6779 245.512 80.6318C245.134 86.0675 241.822 89.1329 234.607 89.2027L228.523 88.617L228.538 88.7594C221.262 88.2586 214.032 87.2175 206.907 85.6446C206.082 85.4775 203.653 84.7111 203.615 84.3638C203.53 83.5689 208.417 85.0241 208.217 84.8555Z" fill="#FFD9CD"/>
<path d="M219.292 78.6743C217.471 79.0037 216.101 79.1694 215.88 78.9761C214.442 77.7215 209.804 75.5978 209.804 75.5978C208.396 76.5913 213.287 79.7381 212.096 79.586C211.234 79.4751 209.896 79.7037 208.778 79.4407C207.661 79.1777 203.092 78.7102 202.526 79.1752C201.96 79.6403 207.568 81.2684 207.487 81.4869C207.405 81.7053 205.627 81.3847 205.627 81.3847C205.499 81.3745 201.904 81.0281 202.15 81.6666C202.397 82.305 210.191 83.6091 208.548 83.3456C208.439 83.3281 202.062 81.9892 202.192 82.9517C202.279 83.5912 208.017 84.6869 208.217 84.856C208.416 85.0251 203.53 83.5694 203.616 84.3638C203.654 84.7112 206.082 85.478 206.908 85.6446C207.944 85.8553 212.25 86.8896 219.198 87.8012C219.263 84.7586 219.308 81.717 219.292 78.6743Z" fill="#ABD8FF"/>
<path d="M231.214 38.2637C231.214 38.2637 216.959 34.3884 229.35 68.2869L247.978 68.8493C247.978 68.8493 242.47 38.0651 231.214 38.2637Z" fill="#16A75C"/>
<path d="M228.474 64.4673L247.543 64.9372" stroke="white" stroke-width="0.5" stroke-miterlimit="10"/>
<path d="M175.877 52.4538L174.092 47.2036" stroke="white" stroke-width="1.044" stroke-miterlimit="10"/>
<path d="M174.005 55.2289L179.355 53.3777C179.448 53.3454 179.547 53.3321 179.646 53.3383C179.744 53.3445 179.84 53.3703 179.929 53.4141C180.018 53.4578 180.097 53.5188 180.162 53.5935C180.227 53.6682 180.278 53.7551 180.31 53.8493L184.189 65.2281L177.418 67.5707L173.539 56.1918C173.475 56.0016 173.487 55.7933 173.574 55.6127C173.662 55.4321 173.817 55.2941 174.005 55.2289V55.2289Z" fill="#FFC800"/>
<path d="M174.732 52.8543L177.338 51.9498C177.464 51.9062 177.601 51.9148 177.721 51.9737C177.84 52.0326 177.931 52.137 177.974 52.2639L179.971 58.1366L176.418 59.3697L174.421 53.497C174.378 53.3701 174.387 53.2311 174.445 53.1106C174.503 52.9901 174.607 52.8979 174.732 52.8543V52.8543Z" fill="#42A5F5"/>
<path d="M184.952 65.6479L177.206 68.3368C177.136 68.3613 177.062 68.3715 176.988 68.3669C176.914 68.3623 176.841 68.343 176.774 68.3101C176.707 68.2772 176.648 68.2313 176.599 68.175C176.549 68.1188 176.512 68.0533 176.487 67.9823C176.463 67.9113 176.453 67.8361 176.458 67.7612C176.462 67.6862 176.481 67.6129 176.514 67.5454C176.546 67.4779 176.592 67.4176 176.647 67.3679C176.703 67.3181 176.768 67.28 176.838 67.2556L184.584 64.5666C184.654 64.5421 184.729 64.5319 184.803 64.5364C184.877 64.541 184.95 64.5603 185.016 64.5932C185.083 64.6262 185.143 64.6721 185.192 64.7284C185.241 64.7847 185.279 64.8502 185.303 64.9212C185.327 64.9922 185.337 65.0673 185.333 65.1423C185.328 65.2173 185.309 65.2906 185.277 65.3581C185.244 65.4256 185.199 65.4859 185.143 65.5356C185.087 65.5854 185.023 65.6235 184.952 65.6479Z" fill="#1E88E5"/>
<path d="M184.729 69.7678L179.888 71.4483C179.844 71.4635 179.798 71.4699 179.752 71.4671C179.705 71.4642 179.66 71.4521 179.619 71.4316C179.577 71.411 179.54 71.3823 179.509 71.3472C179.478 71.3121 179.455 71.2712 179.44 71.2269C179.425 71.1826 179.418 71.1357 179.421 71.0889C179.424 71.0421 179.436 70.9964 179.456 70.9543C179.477 70.9122 179.505 70.8745 179.54 70.8435C179.574 70.8125 179.615 70.7887 179.659 70.7735L184.499 69.0925C184.588 69.0618 184.685 69.068 184.769 69.1096C184.853 69.1512 184.917 69.2249 184.948 69.3144C184.978 69.4039 184.972 69.5019 184.931 69.5869C184.89 69.6719 184.817 69.737 184.729 69.7678Z" fill="#1565C0"/>
<path d="M174.827 55.7808L179.018 54.3267C179.201 54.2634 179.401 54.2759 179.574 54.3615C179.747 54.4472 179.88 54.5989 179.943 54.7834L181.522 59.4293C181.554 59.5235 181.567 59.6231 181.561 59.7226C181.555 59.822 181.53 59.9192 181.486 60.0087C181.443 60.0982 181.383 60.1782 181.309 60.2441C181.235 60.31 181.149 60.3606 181.056 60.393L176.909 61.832C176.815 61.8644 176.717 61.8778 176.618 61.8717C176.52 61.8655 176.424 61.8398 176.335 61.7961C176.247 61.7523 176.167 61.6914 176.102 61.6167C176.037 61.542 175.987 61.4551 175.955 61.3609L174.376 56.715C174.313 56.5306 174.325 56.3285 174.41 56.1533C174.495 55.9781 174.645 55.8441 174.827 55.7808V55.7808Z" fill="white"/>
<path d="M181.984 70.432L178.899 61.3506" stroke="#1565C0" stroke-width="2" stroke-miterlimit="10"/>
<path d="M174.99 57.1873C175.322 57.042 175.912 56.8749 176.244 56.73" stroke="#42A5F5" stroke-width="0.5" stroke-miterlimit="10"/>
<path d="M175.141 58.1508C175.46 58.0104 176.036 57.8466 176.355 57.7061" stroke="#42A5F5" stroke-width="0.5" stroke-miterlimit="10"/>
<path d="M174.847 53.3456L175.24 54.3629" stroke="white" stroke-width="1.044" stroke-miterlimit="10"/>
<path d="M175.691 59.2529C175.967 59.156 176.499 59.0388 176.775 58.9429" stroke="#42A5F5" stroke-width="0.5" stroke-miterlimit="10"/>
<path d="M176.031 60.5129L177.167 60.1016" stroke="#42A5F5" stroke-width="0.5" stroke-miterlimit="10"/>
<g style="mix-blend-mode:multiply">
<g style="mix-blend-mode:multiply">
<g style="mix-blend-mode:multiply">
<g style="mix-blend-mode:multiply">
<g style="mix-blend-mode:multiply">
<path d="M178.696 33.7542C178.663 33.7402 178.634 33.7197 178.609 33.694C178.584 33.6683 178.564 33.6378 178.551 33.6044C178.538 33.571 178.531 33.5352 178.532 33.4992C178.532 33.4632 178.54 33.4277 178.554 33.3947C178.568 33.3616 178.589 33.3318 178.614 33.3068C178.64 33.2818 178.67 33.2622 178.703 33.2491C178.737 33.236 178.772 33.2297 178.808 33.2305C178.843 33.2313 178.878 33.2393 178.911 33.2538L181.587 34.4256C181.924 34.3603 182.272 34.4115 182.577 34.571C182.693 34.6593 182.772 34.7886 182.799 34.9331C182.825 35.0777 182.797 35.2271 182.72 35.3518C182.358 36.0494 181.73 35.3945 181.401 34.9415L178.696 33.7542Z" fill="#BDBDBD"/>
</g>
<g style="mix-blend-mode:multiply">
<path d="M177.638 35.5398C177.692 35.4931 177.763 35.4701 177.834 35.476C177.906 35.4819 177.972 35.5162 178.018 35.5713L180.402 38.4109C180.67 38.5054 180.988 38.4879 181.164 38.7563C181.239 38.8899 181.265 39.0461 181.236 39.1971C181.207 39.348 181.127 39.4837 181.008 39.5798C180.894 39.687 180.75 39.7574 180.596 39.7819C180.442 39.8064 180.284 39.7839 180.143 39.7174C179.885 39.5207 179.951 39.077 180.002 38.7767L177.606 35.9225C177.561 35.8673 177.538 35.7962 177.544 35.7245C177.55 35.6529 177.584 35.5865 177.638 35.5398Z" fill="#BDBDBD"/>
</g>
<g style="mix-blend-mode:multiply">
<path d="M176.329 36.2689C176.362 36.2547 176.397 36.2472 176.432 36.2467C176.468 36.2462 176.503 36.2528 176.536 36.266C176.569 36.2793 176.599 36.299 176.624 36.324C176.65 36.349 176.67 36.3788 176.684 36.4118C176.711 36.4747 177.024 37.3922 177.218 37.9595C177.315 37.9879 177.402 38.0425 177.47 38.1173C177.538 38.192 177.585 38.2842 177.605 38.3838C177.61 38.4992 177.578 38.6131 177.514 38.7089C177.45 38.8047 177.358 38.8775 177.25 38.9167C177.154 38.9768 177.038 38.9966 176.928 38.9719C176.809 38.9259 176.71 38.8377 176.651 38.7239C176.594 38.6321 176.567 38.5237 176.577 38.4155C176.587 38.3072 176.631 38.2052 176.704 38.1251C176.492 37.5061 176.215 36.6961 176.187 36.6234C176.16 36.5572 176.159 36.483 176.186 36.4166C176.213 36.3503 176.264 36.2973 176.329 36.2689Z" fill="#BDBDBD"/>
</g>
<g style="mix-blend-mode:multiply">
<path d="M172.509 27.6903C172.529 27.7201 172.542 27.7536 172.549 27.7887C172.556 27.8239 172.556 27.8601 172.549 27.8952C172.542 27.9303 172.528 27.9637 172.509 27.9935C172.489 28.0232 172.463 28.0488 172.434 28.0686C172.396 28.0939 172.353 28.1092 172.307 28.1132C172.259 28.1173 172.211 28.1082 172.167 28.0869C172.124 28.0656 172.086 28.0328 172.06 27.9921L170.778 26.0389C170.461 25.9465 170.182 25.7546 169.981 25.491C169.909 25.3774 169.881 25.2413 169.902 25.1082C169.922 24.9751 169.99 24.8541 170.092 24.7679C170.195 24.6816 170.325 24.636 170.458 24.6396C170.591 24.6431 170.718 24.6956 170.816 24.7872C171.074 25.0139 171.094 25.3767 171.208 25.6795C171.213 25.6936 171.217 25.7085 171.218 25.7235L172.509 27.6903Z" fill="#BDBDBD"/>
</g>
<g style="mix-blend-mode:multiply">
<path d="M180.257 25.9938L178.052 28.755C178.007 28.8114 177.942 28.8474 177.871 28.8551C177.8 28.8628 177.728 28.8416 177.673 28.7962C177.617 28.7508 177.581 28.6849 177.574 28.6129C177.566 28.541 177.587 28.4689 177.632 28.4125L179.697 25.8214C179.714 25.3856 179.835 24.9604 180.05 24.5822C180.299 24.2393 180.735 24.4544 180.979 24.6903C181.104 24.7912 181.188 24.9359 181.213 25.0961C181.239 25.2562 181.204 25.42 181.115 25.5554C180.893 25.8049 180.587 25.9613 180.257 25.9938Z" fill="#BDBDBD"/>
</g>
<g style="mix-blend-mode:multiply">
<path d="M181.938 30.3585C181.822 30.3877 181.702 30.3923 181.585 30.3719C181.467 30.3516 181.355 30.3068 181.256 30.2403C180.609 30.544 179.94 30.7966 179.254 30.996C179.23 30.998 179.206 30.9957 179.182 30.9892C179.121 30.974 179.066 30.9374 179.028 30.8856C178.991 30.8338 178.972 30.7703 178.977 30.7062C178.981 30.6421 179.007 30.5815 179.051 30.5352C179.095 30.4889 179.154 30.4597 179.217 30.4529C179.361 30.4117 180.097 30.1226 180.876 29.8062C181.054 29.5723 181.331 29.1794 181.633 29.1087C181.956 29.0331 182.168 29.4114 182.241 29.6764C182.288 29.8077 182.283 29.9522 182.226 30.0795C182.17 30.2067 182.066 30.3068 181.938 30.3585Z" fill="#BDBDBD"/>
</g>
<g style="mix-blend-mode:multiply">
<path d="M177.295 25.4721L176.672 28.1364C176.659 28.1924 176.628 28.2427 176.585 28.2803C176.542 28.3179 176.489 28.3408 176.432 28.3457C176.404 28.3482 176.375 28.346 176.347 28.3394C176.278 28.3228 176.217 28.279 176.18 28.2175C176.142 28.156 176.13 28.0818 176.147 28.0114L176.748 25.4343C176.744 25.072 176.609 24.683 176.819 24.3521C176.898 24.2291 177.02 24.1409 177.161 24.1053C177.302 24.0698 177.451 24.0896 177.577 24.1608C177.702 24.2361 177.795 24.3536 177.842 24.4923C177.888 24.631 177.885 24.7819 177.831 24.9179C177.725 25.1623 177.534 25.3593 177.295 25.4721Z" fill="#BDBDBD"/>
</g>
<g style="mix-blend-mode:multiply">
<path d="M174.144 24.7334C174.166 24.6191 174.225 24.5155 174.312 24.4393C174.399 24.3631 174.509 24.3189 174.624 24.3139C174.741 24.321 174.852 24.3671 174.94 24.4451C175.028 24.5231 175.088 24.6284 175.11 24.7445C175.129 24.8773 175.121 25.0125 175.085 25.1418C175.05 25.2712 174.989 25.3918 174.906 25.4963L174.959 27.0218C174.962 27.0918 174.937 27.16 174.891 27.2124C174.845 27.2648 174.781 27.2973 174.712 27.3032H174.699C174.628 27.3058 174.558 27.2797 174.506 27.2304C174.453 27.1812 174.422 27.1129 174.42 27.0407L174.365 25.4779C174.278 25.3772 174.213 25.2586 174.174 25.1301C174.136 25.0016 174.126 24.8662 174.144 24.7334Z" fill="#BDBDBD"/>
</g>
<g style="mix-blend-mode:multiply">
<path d="M172.062 23.2903C172.059 23.1265 172.106 22.9657 172.195 22.8288C172.284 22.6919 172.412 22.5854 172.562 22.523C172.697 22.4728 172.845 22.4764 172.978 22.5331C173.11 22.5898 173.216 22.6953 173.274 22.8282C173.375 23.2434 173.332 23.681 173.153 24.0683C173.148 24.0833 173.141 24.0973 173.131 24.1099L173.81 27.0649C173.826 27.1356 173.814 27.2098 173.776 27.2713C173.738 27.3328 173.677 27.3765 173.607 27.3928C173.537 27.4092 173.464 27.3967 173.403 27.3583C173.342 27.3199 173.299 27.2586 173.282 27.1879L172.571 24.0877C172.375 23.8028 172.055 23.6977 172.062 23.2903Z" fill="#BDBDBD"/>
</g>
<g style="mix-blend-mode:multiply">
<path d="M166.108 28.2076C166.126 28.0694 166.198 27.9441 166.307 27.8586C166.416 27.7731 166.554 27.7342 166.691 27.7503C166.975 27.8266 167.218 28.0135 167.367 28.2701L171.532 30.014C171.588 30.0375 171.634 30.0792 171.664 30.1325C171.693 30.1858 171.704 30.2476 171.695 30.308C171.686 30.3684 171.657 30.4239 171.612 30.4655C171.568 30.5072 171.511 30.5326 171.451 30.5377C171.408 30.5414 171.365 30.5346 171.326 30.5178L167.359 28.8563C167.077 28.9401 166.778 28.9479 166.492 28.879C166.355 28.8382 166.239 28.7458 166.167 28.6208C166.096 28.4959 166.074 28.348 166.108 28.2076Z" fill="#BDBDBD"/>
</g>
<g style="mix-blend-mode:multiply">
<path d="M167.968 32.8634C168.222 32.7762 168.498 32.7871 168.743 32.8939C169.374 32.6657 170.588 32.2278 170.66 32.2031C170.694 32.1915 170.729 32.1867 170.765 32.189C170.8 32.1913 170.835 32.2006 170.866 32.2164C170.898 32.2322 170.927 32.2542 170.95 32.2811C170.973 32.3079 170.991 32.3392 171.003 32.3731C171.014 32.4071 171.019 32.4429 171.017 32.4787C171.015 32.5144 171.005 32.5494 170.99 32.5815C170.974 32.6137 170.952 32.6424 170.926 32.6661C170.899 32.6898 170.868 32.7079 170.835 32.7195C170.776 32.7399 169.803 33.0906 169.035 33.3681C168.977 33.5036 168.888 33.6228 168.774 33.7152C168.661 33.8076 168.527 33.8704 168.383 33.8981C168.245 33.9215 168.103 33.8963 167.981 33.8266C167.859 33.757 167.764 33.6471 167.712 33.5154C167.668 33.394 167.669 33.26 167.716 33.1396C167.763 33.0191 167.853 32.9206 167.968 32.8634Z" fill="#BDBDBD"/>
</g>
<g style="mix-blend-mode:multiply">
<path d="M169.785 38.0689L171.985 35.299C172.031 35.2486 172.094 35.2176 172.162 35.2125C172.23 35.2073 172.297 35.2283 172.351 35.2712C172.404 35.3141 172.439 35.3757 172.449 35.4438C172.459 35.5119 172.444 35.5813 172.405 35.6381L170.332 38.2487C170.337 38.2704 170.339 38.2929 170.336 38.315C170.312 38.6445 170.188 38.9584 169.98 39.2136C169.746 39.4447 169.45 39.2916 169.228 39.1279C169.113 39.0637 169.028 38.9572 168.989 38.8308C168.951 38.7044 168.962 38.5678 169.021 38.4497C169.221 38.2327 169.493 38.0973 169.785 38.0689Z" fill="#BDBDBD"/>
</g>
<g style="mix-blend-mode:multiply">
<path d="M172.151 38.7626L173.253 36.1032C173.267 36.0701 173.287 36.0401 173.312 36.0149C173.337 35.9896 173.367 35.9697 173.4 35.9561C173.433 35.9425 173.468 35.9356 173.503 35.9357C173.539 35.9358 173.574 35.943 173.607 35.9569C173.639 35.9707 173.669 35.9909 173.694 36.0163C173.719 36.0418 173.739 36.0719 173.752 36.1051C173.766 36.1382 173.772 36.1737 173.772 36.2096C173.772 36.2454 173.765 36.2808 173.751 36.3139L172.658 38.952C172.754 39.2043 172.76 39.4825 172.675 39.7387C172.551 40.0705 172.231 39.9707 171.972 39.8666C171.847 39.8339 171.736 39.758 171.66 39.6519C171.584 39.5458 171.547 39.4161 171.555 39.2853C171.608 38.9806 171.891 38.8435 172.151 38.7626Z" fill="#BDBDBD"/>
</g>
</g>
<g style="mix-blend-mode:multiply">
<path d="M169.865 32.2811C169.779 31.2417 170 30.1998 170.5 29.2872C170.999 28.3747 171.756 27.6324 172.673 27.1544C173.59 26.6763 174.627 26.4839 175.652 26.6014C176.677 26.719 177.645 27.1412 178.433 27.8148C179.221 28.4883 179.794 29.3829 180.079 30.3855C180.364 31.388 180.348 32.4534 180.034 33.447C179.72 34.4406 179.121 35.3177 178.314 35.9674C177.507 36.6172 176.527 37.0103 175.499 37.0972C174.12 37.2137 172.752 36.7718 171.695 35.8686C170.638 34.9654 169.98 33.6749 169.865 32.2811Z" fill="#BDBDBD"/>
</g>
<g style="mix-blend-mode:multiply">
<path d="M170.362 31.7613C170.291 30.9015 170.474 30.0396 170.888 29.2848C171.301 28.53 171.927 27.916 172.685 27.5206C173.444 27.1252 174.302 26.966 175.15 27.0633C175.998 27.1606 176.799 27.5099 177.451 28.0671C178.102 28.6243 178.576 29.3643 178.812 30.1937C179.047 31.023 179.034 31.9043 178.775 32.7262C178.515 33.5481 178.02 34.2736 177.352 34.8111C176.684 35.3485 175.874 35.6738 175.023 35.7457C174.458 35.7934 173.89 35.7282 173.35 35.5538C172.81 35.3794 172.309 35.0992 171.876 34.7292C171.444 34.3592 171.087 33.9067 170.827 33.3975C170.568 32.8882 170.41 32.3323 170.362 31.7613Z" fill="#EEEEEE"/>
</g>
<g style="mix-blend-mode:multiply">
<path d="M176.116 30.1831C176.134 30.4001 176.389 30.5556 176.685 30.5309C176.981 30.5062 177.207 30.3095 177.19 30.0949C177.172 29.8803 176.917 29.7219 176.62 29.7466C176.323 29.7713 176.098 29.9656 176.116 30.1831Z" fill="#E0E0E0"/>
</g>
<g style="mix-blend-mode:multiply">
<path d="M175.03 30.8496C175.044 30.9042 175.078 30.9514 175.125 30.9813C175.172 31.0111 175.229 31.0214 175.284 31.01C175.416 30.9988 175.516 30.9092 175.508 30.8094C175.494 30.7547 175.46 30.7073 175.413 30.6773C175.366 30.6473 175.309 30.637 175.254 30.6486C175.123 30.6598 175.022 30.7499 175.03 30.8496Z" fill="#E0E0E0"/>
</g>
<g style="mix-blend-mode:multiply">
<path d="M175.497 28.9435C175.506 29.0568 175.647 29.1372 175.812 29.1232C175.977 29.1092 176.103 29.0065 176.093 28.8936C176.084 28.7807 175.943 28.6998 175.778 28.7139C175.614 28.7279 175.488 28.8282 175.497 28.9435Z" fill="#E0E0E0"/>
</g>
<g style="mix-blend-mode:multiply">
<path d="M171.589 29.5025C171.74 29.7612 172.171 29.7873 172.553 29.5606C172.935 29.3339 173.122 28.9401 172.971 28.6809C172.82 28.4217 172.389 28.3956 172.007 28.6223C171.626 28.849 171.438 29.2433 171.589 29.5025Z" fill="#E0E0E0"/>
</g>
</g>
</g>
<g style="mix-blend-mode:multiply">
<g style="mix-blend-mode:multiply">
<g style="mix-blend-mode:multiply">
<g style="mix-blend-mode:multiply">
<path d="M98.5337 109.688C98.4572 109.653 98.3976 109.588 98.3675 109.509C98.3374 109.429 98.3393 109.341 98.3727 109.263C98.4062 109.185 98.4685 109.123 98.5465 109.091C98.6244 109.059 98.7117 109.059 98.7896 109.091L101.981 110.489C102.382 110.41 102.798 110.47 103.161 110.659C103.3 110.765 103.395 110.919 103.427 111.091C103.459 111.264 103.426 111.442 103.334 111.591C102.902 112.422 102.153 111.639 101.761 111.101L98.5337 109.688Z" fill="#BDBDBD"/>
</g>
<g style="mix-blend-mode:multiply">
<path d="M97.2718 111.817C97.3368 111.761 97.4211 111.734 97.5061 111.741C97.5911 111.748 97.6698 111.789 97.7251 111.854L100.567 115.241C100.888 115.353 101.267 115.332 101.478 115.653C101.568 115.812 101.599 115.999 101.565 116.18C101.531 116.36 101.434 116.522 101.292 116.637C101.156 116.765 100.985 116.849 100.801 116.878C100.618 116.907 100.43 116.88 100.261 116.801C99.9531 116.566 100.035 116.037 100.094 115.679L97.2363 112.275C97.1809 112.21 97.1535 112.125 97.1602 112.039C97.1668 111.953 97.207 111.873 97.2718 111.817Z" fill="#BDBDBD"/>
</g>
<g style="mix-blend-mode:multiply">
<path d="M95.7127 112.686C95.7516 112.669 95.7934 112.66 95.8357 112.66C95.878 112.659 95.92 112.667 95.9593 112.683C95.9986 112.699 96.0344 112.723 96.0646 112.752C96.0949 112.782 96.119 112.818 96.1356 112.857C96.1678 112.932 96.5418 114.026 96.7724 114.702C96.8876 114.736 96.9916 114.802 97.073 114.891C97.1544 114.98 97.2103 115.09 97.2346 115.209C97.2401 115.346 97.202 115.482 97.1258 115.597C97.0496 115.711 96.9392 115.798 96.8107 115.845C96.6962 115.917 96.5586 115.94 96.4272 115.911C96.2854 115.856 96.1681 115.751 96.0968 115.616C96.0283 115.506 95.9973 115.377 96.0086 115.248C96.02 115.118 96.073 114.997 96.1596 114.901C95.9079 114.163 95.5771 113.197 95.543 113.109C95.5109 113.03 95.5107 112.941 95.5425 112.862C95.5742 112.783 95.6353 112.72 95.7127 112.686Z" fill="#BDBDBD"/>
</g>
<g style="mix-blend-mode:multiply">
<path d="M91.1567 102.457C91.2037 102.529 91.2206 102.617 91.2036 102.702C91.1866 102.786 91.1372 102.86 91.0661 102.908C91.0211 102.939 90.9692 102.957 90.9152 102.962C90.8576 102.966 90.7998 102.955 90.7479 102.93C90.696 102.904 90.6518 102.865 90.62 102.816L89.0912 100.487C88.714 100.377 88.3813 100.148 88.1413 99.8341C88.0569 99.6986 88.0241 99.5367 88.0488 99.3785C88.0736 99.2203 88.1543 99.0766 88.276 98.974C88.3976 98.8715 88.552 98.817 88.7104 98.8208C88.8688 98.8246 89.0205 98.8864 89.1372 98.9946C89.4449 99.2649 89.4684 99.6975 89.6049 100.06C89.611 100.077 89.6151 100.095 89.6169 100.113L91.1567 102.457Z" fill="#BDBDBD"/>
</g>
<g style="mix-blend-mode:multiply">
<path d="M100.394 100.434L97.7687 103.728C97.7422 103.762 97.7095 103.789 97.6724 103.81C97.6353 103.83 97.5946 103.843 97.5526 103.848C97.5106 103.852 97.4681 103.849 97.4276 103.837C97.387 103.825 97.3492 103.805 97.3163 103.778C97.2834 103.751 97.256 103.718 97.2357 103.68C97.2155 103.643 97.2027 103.602 97.1982 103.559C97.1936 103.517 97.1974 103.474 97.2093 103.433C97.2212 103.392 97.2409 103.354 97.2674 103.321L99.7307 100.23C99.7498 99.7107 99.8939 99.2036 100.151 98.7529C100.448 98.3441 100.965 98.6008 101.258 98.8813C101.408 99.0018 101.507 99.1745 101.538 99.3655C101.568 99.5565 101.526 99.752 101.421 99.9136C101.155 100.211 100.789 100.397 100.394 100.434Z" fill="#BDBDBD"/>
</g>
<g style="mix-blend-mode:multiply">
<path d="M102.399 105.638C102.261 105.673 102.117 105.679 101.977 105.655C101.837 105.631 101.703 105.577 101.584 105.498C100.813 105.86 100.015 106.162 99.1979 106.399C99.169 106.401 99.14 106.399 99.1121 106.391C99.0388 106.372 98.9742 106.328 98.9297 106.267C98.8851 106.205 98.8634 106.13 98.8684 106.053C98.8733 105.977 98.9047 105.905 98.9568 105.85C99.009 105.795 99.0787 105.76 99.1538 105.751C99.3282 105.703 100.202 105.357 101.132 104.981C101.344 104.702 101.675 104.233 102.034 104.148C102.418 104.058 102.673 104.51 102.76 104.827C102.815 104.983 102.809 105.155 102.742 105.306C102.674 105.457 102.552 105.577 102.399 105.638Z" fill="#BDBDBD"/>
</g>
<g style="mix-blend-mode:multiply">
<path d="M96.8631 99.8138L96.1217 102.993C96.106 103.059 96.0697 103.12 96.018 103.164C95.9664 103.209 95.902 103.236 95.8342 103.242C95.8004 103.245 95.7664 103.242 95.7335 103.234C95.6924 103.225 95.6536 103.207 95.6192 103.182C95.5849 103.157 95.5558 103.125 95.5336 103.089C95.5113 103.053 95.4964 103.012 95.4896 102.97C95.4827 102.928 95.4842 102.885 95.4939 102.843L96.2104 99.7707C96.2051 99.3386 96.0445 98.8745 96.2957 98.4802C96.3894 98.3333 96.5349 98.228 96.7027 98.1856C96.8704 98.1431 97.0479 98.1667 97.199 98.2515C97.3472 98.3414 97.4589 98.4815 97.5143 98.6469C97.5697 98.8123 97.5651 98.9922 97.5014 99.1545C97.3746 99.4451 97.1478 99.6793 96.8631 99.8138Z" fill="#BDBDBD"/>
</g>
<g style="mix-blend-mode:multiply">
<path d="M93.1056 98.9312C93.1312 98.7943 93.2021 98.6703 93.3067 98.5795C93.4112 98.4887 93.5432 98.4364 93.681 98.4313C93.8201 98.44 93.9525 98.4952 94.0573 98.5881C94.1621 98.681 94.2335 98.8065 94.2602 98.9448C94.2827 99.1031 94.2727 99.2644 94.2309 99.4186C94.1891 99.5729 94.1163 99.7168 94.0171 99.8414L94.0808 101.66C94.0837 101.743 94.0547 101.825 93.9998 101.887C93.9449 101.95 93.8684 101.989 93.786 101.996H93.7706C93.6853 101.999 93.6023 101.967 93.5398 101.909C93.4773 101.85 93.4405 101.768 93.4374 101.682L93.3722 99.8187C93.2671 99.6989 93.1889 99.5575 93.1429 99.4044C93.0969 99.2512 93.0841 99.0898 93.1056 98.9312Z" fill="#BDBDBD"/>
</g>
<g style="mix-blend-mode:multiply">
<path d="M90.6232 97.211C90.6198 97.0156 90.6748 96.8237 90.781 96.6604C90.8872 96.497 91.0396 96.3699 91.2184 96.2955C91.3792 96.2356 91.5565 96.2399 91.7142 96.3075C91.872 96.3751 91.9984 96.5008 92.0676 96.6593C92.1877 97.1544 92.137 97.6761 91.9238 98.1382C91.9177 98.1556 91.909 98.1719 91.898 98.1866L92.7064 101.712C92.7257 101.796 92.7113 101.884 92.6664 101.957C92.6215 102.031 92.5497 102.083 92.4668 102.103C92.451 102.106 92.435 102.109 92.4189 102.11C92.3419 102.116 92.2652 102.094 92.2029 102.048C92.1405 102.002 92.0966 101.935 92.0791 101.859L91.2313 98.1619C90.9956 97.8214 90.6174 97.6964 90.6232 97.211Z" fill="#BDBDBD"/>
</g>
<g style="mix-blend-mode:multiply">
<path d="M83.5229 103.074C83.545 102.91 83.6303 102.76 83.7603 102.658C83.8903 102.556 84.0548 102.51 84.2183 102.529C84.5573 102.62 84.847 102.843 85.0244 103.149L89.9907 105.232C90.0297 105.248 90.0652 105.272 90.095 105.302C90.1249 105.332 90.1486 105.368 90.1647 105.408C90.1809 105.447 90.1892 105.489 90.1892 105.532C90.1892 105.575 90.1808 105.617 90.1647 105.656C90.1485 105.696 90.1248 105.732 90.0949 105.762C90.065 105.792 90.0296 105.816 89.9906 105.832C89.9515 105.849 89.9097 105.857 89.8675 105.857C89.8252 105.857 89.7834 105.849 89.7444 105.832L85.0124 103.846C84.676 103.946 84.3197 103.955 83.9787 103.873C83.816 103.824 83.6781 103.714 83.5933 103.566C83.5086 103.417 83.4834 103.241 83.5229 103.074Z" fill="#BDBDBD"/>
</g>
<g style="mix-blend-mode:multiply">
<path d="M85.7407 108.626C86.0423 108.522 86.3715 108.535 86.6642 108.662C87.4171 108.39 88.8648 107.868 88.9492 107.839C88.9892 107.825 89.0315 107.819 89.0736 107.822C89.1158 107.825 89.157 107.836 89.1949 107.855C89.2328 107.874 89.2667 107.9 89.2946 107.932C89.3225 107.964 89.3439 108.001 89.3575 108.042C89.3711 108.082 89.3767 108.125 89.374 108.167C89.3713 108.21 89.3603 108.252 89.3416 108.29C89.323 108.328 89.2971 108.363 89.2653 108.391C89.2336 108.419 89.1967 108.441 89.1567 108.454C89.0867 108.479 87.927 108.897 87.0107 109.229C86.9419 109.39 86.8352 109.532 86.6999 109.642C86.5646 109.752 86.4047 109.826 86.2343 109.859C86.069 109.888 85.899 109.858 85.7529 109.775C85.6067 109.692 85.4933 109.56 85.4316 109.403C85.3783 109.258 85.3804 109.098 85.4375 108.954C85.4947 108.81 85.6028 108.693 85.7407 108.626Z" fill="#BDBDBD"/>
</g>
<g style="mix-blend-mode:multiply">
<path d="M87.9075 114.831L90.5304 111.528C90.5569 111.495 90.5896 111.467 90.6266 111.446C90.6637 111.426 90.7044 111.413 90.7464 111.408C90.7884 111.404 90.8309 111.407 90.8714 111.419C90.912 111.431 90.9498 111.451 90.9828 111.478C91.0157 111.505 91.0432 111.538 91.0635 111.575C91.0838 111.613 91.0966 111.654 91.1012 111.696C91.1058 111.739 91.102 111.782 91.0902 111.823C91.0783 111.864 91.0586 111.902 91.0322 111.935L88.5602 115.048C88.5666 115.074 88.568 115.101 88.5645 115.127C88.5358 115.52 88.3877 115.894 88.1404 116.199C87.861 116.474 87.5083 116.292 87.2433 116.097C87.1064 116.02 87.0042 115.893 86.9583 115.742C86.9123 115.591 86.9262 115.428 86.997 115.287C87.2349 115.027 87.559 114.865 87.9075 114.831Z" fill="#BDBDBD"/>
</g>
<g style="mix-blend-mode:multiply">
<path d="M90.732 115.66L92.0461 112.489C92.0809 112.412 92.1438 112.352 92.2217 112.321C92.2996 112.29 92.3863 112.291 92.4634 112.324C92.5405 112.357 92.6021 112.419 92.635 112.496C92.668 112.574 92.6697 112.662 92.6399 112.74L91.3363 115.886C91.4504 116.187 91.4575 116.518 91.3565 116.824C91.2089 117.219 90.8264 117.1 90.5188 116.977C90.3688 116.938 90.237 116.847 90.146 116.72C90.0551 116.593 90.0106 116.438 90.0204 116.282C90.0817 115.92 90.4186 115.756 90.732 115.66Z" fill="#BDBDBD"/>
</g>
</g>
<g style="mix-blend-mode:multiply">
<path d="M100.27 108.8C101.031 105.414 98.9316 102.044 95.5809 101.275C92.2302 100.506 88.8971 102.628 88.1361 106.015C87.3752 109.402 89.4746 112.771 92.8253 113.54C96.176 114.309 99.5091 112.187 100.27 108.8Z" fill="#BDBDBD"/>
</g>
<g style="mix-blend-mode:multiply">
<path d="M88.596 107.312C88.5112 106.286 88.7291 105.259 89.2221 104.359C89.7151 103.459 90.461 102.727 91.3656 102.255C92.2702 101.783 93.2928 101.593 94.3041 101.709C95.3155 101.825 96.2701 102.241 97.0474 102.906C97.8246 103.57 98.3896 104.452 98.6708 105.441C98.9521 106.43 98.9369 107.481 98.6274 108.461C98.3178 109.441 97.7277 110.306 96.9317 110.947C96.1356 111.588 95.1694 111.976 94.1552 112.062C93.4815 112.119 92.8033 112.042 92.1594 111.834C91.5154 111.626 90.9182 111.292 90.402 110.851C89.8857 110.41 89.4605 109.87 89.1506 109.263C88.8408 108.656 88.6523 107.993 88.596 107.312Z" fill="#EEEEEE"/>
</g>
<g style="mix-blend-mode:multiply">
<path d="M95.457 105.43C95.4781 105.688 95.7821 105.874 96.1355 105.844C96.4889 105.814 96.7588 105.58 96.7372 105.322C96.7157 105.063 96.4117 104.877 96.0583 104.906C95.7049 104.936 95.4354 105.17 95.457 105.43Z" fill="#E0E0E0"/>
</g>
<g style="mix-blend-mode:multiply">
<path d="M94.1625 106.225C94.1787 106.29 94.2192 106.346 94.2755 106.381C94.3318 106.417 94.3995 106.429 94.4645 106.416C94.6218 106.403 94.7412 106.295 94.7316 106.176C94.7152 106.111 94.6746 106.055 94.6183 106.019C94.5619 105.984 94.4942 105.971 94.4291 105.985C94.2718 105.998 94.1524 106.105 94.1625 106.225Z" fill="#E0E0E0"/>
</g>
<g style="mix-blend-mode:multiply">
<path d="M94.719 103.949C94.73 104.084 94.8983 104.18 95.0949 104.163C95.2915 104.147 95.4411 104.024 95.4305 103.889C95.42 103.754 95.2512 103.658 95.0546 103.675C94.858 103.691 94.7065 103.814 94.719 103.949Z" fill="#E0E0E0"/>
</g>
<g style="mix-blend-mode:multiply">
<path d="M90.0579 104.618C90.2377 104.927 90.7527 104.957 91.2087 104.688C91.6647 104.418 91.8876 103.947 91.7078 103.639C91.528 103.33 91.0131 103.3 90.5571 103.569C90.1011 103.838 89.8791 104.309 90.0579 104.618Z" fill="#E0E0E0"/>
</g>
</g>
</g>
<g style="mix-blend-mode:multiply">
<g style="mix-blend-mode:multiply">
<g style="mix-blend-mode:multiply">
<g style="mix-blend-mode:multiply">
<path d="M129.362 20.1799C129.305 20.1548 129.253 20.1186 129.21 20.0733C129.167 20.028 129.132 19.9745 129.109 19.9159C129.087 19.8572 129.075 19.7946 129.076 19.7316C129.077 19.6685 129.091 19.6063 129.115 19.5484C129.14 19.4906 129.176 19.4382 129.221 19.3944C129.266 19.3505 129.318 19.316 129.377 19.2928C129.435 19.2696 129.496 19.2582 129.559 19.2592C129.621 19.2602 129.683 19.2737 129.74 19.2987L134.452 21.3623C135.044 21.3541 135.686 21.2306 136.194 21.6142C136.399 21.7697 136.54 21.9972 136.587 22.2519C136.634 22.5066 136.585 22.7699 136.45 22.99C135.811 24.2175 134.706 23.0646 134.127 22.2667L129.362 20.1799Z" fill="#BDBDBD"/>
</g>
<g style="mix-blend-mode:multiply">
<path d="M127.498 23.3242C127.546 23.2833 127.601 23.2522 127.661 23.2329C127.72 23.2135 127.783 23.2062 127.845 23.2114C127.908 23.2165 127.968 23.2341 128.024 23.263C128.08 23.2919 128.129 23.3317 128.169 23.3799L132.366 28.3791C132.839 28.5462 133.399 28.5148 133.707 28.9875C133.841 29.223 133.886 29.499 133.836 29.7655C133.786 30.0321 133.643 30.2716 133.433 30.4408C133.071 30.7494 132.333 31.0061 131.91 30.683C131.455 30.3367 131.575 29.5553 131.663 29.0268L127.444 24.0024C127.403 23.9543 127.372 23.8985 127.353 23.8384C127.334 23.7782 127.327 23.7149 127.332 23.6519C127.337 23.5889 127.354 23.5275 127.383 23.4713C127.411 23.4151 127.451 23.3651 127.498 23.3242Z" fill="#BDBDBD"/>
</g>
<g style="mix-blend-mode:multiply">
<path d="M125.194 24.607C125.31 24.5571 125.441 24.5557 125.557 24.603C125.674 24.6503 125.768 24.7425 125.817 24.8593C125.865 24.9698 126.416 26.5853 126.757 27.5837C126.927 27.634 127.081 27.7302 127.201 27.862C127.321 27.9938 127.403 28.1561 127.439 28.3316C127.447 28.5348 127.391 28.7354 127.279 28.9043C127.167 29.0732 127.005 29.2016 126.816 29.2709C126.646 29.3765 126.443 29.4112 126.248 29.3678C126.039 29.287 125.866 29.132 125.761 28.9318C125.66 28.7701 125.614 28.5793 125.631 28.3887C125.648 28.1982 125.726 28.0184 125.854 27.8773C125.482 26.7868 124.991 25.3617 124.943 25.2328C124.895 25.1161 124.895 24.985 124.942 24.8678C124.989 24.7507 125.08 24.657 125.194 24.607Z" fill="#BDBDBD"/>
</g>
<g style="mix-blend-mode:multiply">
<path d="M118.47 9.50427C118.539 9.61046 118.565 9.74036 118.54 9.86541C118.515 9.99046 118.442 10.1004 118.337 10.1711C118.232 10.2417 118.104 10.2673 117.98 10.2422C117.856 10.2171 117.747 10.1433 117.677 10.0371L115.42 6.59776C114.863 6.43468 114.372 6.09673 114.018 5.6328C113.892 5.4328 113.843 5.19338 113.879 4.95926C113.915 4.72513 114.034 4.51229 114.214 4.36048C114.394 4.20867 114.623 4.12827 114.857 4.13429C115.091 4.1403 115.316 4.23233 115.488 4.39318C115.942 4.79234 115.977 5.4308 116.178 5.96463C116.188 5.9896 116.193 6.01564 116.196 6.04214L118.47 9.50427Z" fill="#BDBDBD"/>
</g>
<g style="mix-blend-mode:multiply">
<path d="M132.11 6.51493L128.233 11.3785C128.154 11.4777 128.039 11.5411 127.914 11.5547C127.788 11.5684 127.663 11.5312 127.565 11.4514C127.467 11.3715 127.404 11.2556 127.39 11.129C127.377 11.0024 127.414 10.8755 127.493 10.7764L131.129 6.21411C131.158 5.44737 131.371 4.6992 131.749 4.03423C132.189 3.43064 132.956 3.80945 133.385 4.22412C133.606 4.4021 133.753 4.65704 133.797 4.93891C133.841 5.22077 133.78 5.50921 133.625 5.74761C133.269 6.264 132.677 6.37397 132.11 6.51493Z" fill="#BDBDBD"/>
</g>
<g style="mix-blend-mode:multiply">
<path d="M135.07 14.2012C134.866 14.2526 134.654 14.2606 134.447 14.2248C134.24 14.1891 134.043 14.1102 133.868 13.9934C131.181 15.0925 130.569 15.3042 130.344 15.3236C130.302 15.3277 130.259 15.3236 130.218 15.3115C130.109 15.285 130.013 15.2205 129.946 15.1293C129.88 15.0381 129.848 14.9262 129.855 14.8133C129.862 14.7003 129.909 14.5937 129.987 14.5121C130.064 14.4305 130.168 14.3792 130.279 14.3673C130.537 14.2956 131.828 13.786 133.2 13.2294C133.513 12.8172 134.001 12.125 134.533 12.0005C135.101 11.8672 135.475 12.5333 135.603 13.0003C135.686 13.2314 135.676 13.4858 135.577 13.7098C135.477 13.9339 135.295 14.1101 135.07 14.2012Z" fill="#BDBDBD"/>
</g>
<g style="mix-blend-mode:multiply">
<path d="M126.894 5.59842L125.799 10.2934C125.776 10.392 125.723 10.4807 125.647 10.5468C125.571 10.613 125.476 10.6531 125.376 10.6616C125.326 10.666 125.276 10.6623 125.227 10.6504C125.167 10.636 125.109 10.6096 125.059 10.5728C125.008 10.5359 124.965 10.4894 124.932 10.4357C124.899 10.3821 124.877 10.3225 124.867 10.2602C124.857 10.198 124.86 10.1344 124.874 10.073L125.932 5.53593C125.925 4.89795 125.687 4.21299 126.058 3.63072C126.197 3.41371 126.411 3.25794 126.659 3.19498C126.907 3.13201 127.169 3.16656 127.392 3.29163C127.611 3.42424 127.776 3.63129 127.858 3.87572C127.94 4.12015 127.933 4.386 127.838 4.62571C127.65 5.05488 127.315 5.40052 126.894 5.59842Z" fill="#BDBDBD"/>
</g>
<g style="mix-blend-mode:multiply">
<path d="M121.348 4.29724C121.386 4.09555 121.49 3.91275 121.644 3.77873C121.798 3.64472 121.992 3.56742 122.195 3.55948C122.401 3.57236 122.596 3.65378 122.751 3.79098C122.906 3.92818 123.011 4.11339 123.051 4.31759C123.085 4.55138 123.07 4.78968 123.009 5.01768C122.948 5.24569 122.841 5.45852 122.695 5.64296L122.79 8.32857C122.795 8.45176 122.752 8.57189 122.671 8.66413C122.59 8.75636 122.477 8.81364 122.356 8.82413H122.332C122.27 8.8264 122.208 8.81622 122.149 8.79419C122.091 8.77217 122.037 8.73871 121.991 8.69575C121.946 8.65278 121.909 8.60115 121.883 8.5438C121.857 8.48644 121.843 8.4245 121.841 8.36151L121.745 5.61002C121.589 5.43314 121.472 5.22419 121.404 4.99756C121.335 4.77094 121.316 4.53201 121.348 4.29724Z" fill="#BDBDBD"/>
</g>
<g style="mix-blend-mode:multiply">
<path d="M117.682 1.75746C117.678 1.46896 117.759 1.18572 117.916 0.944588C118.072 0.703454 118.297 0.515593 118.561 0.40545C118.799 0.317032 119.061 0.323425 119.293 0.423327C119.526 0.523228 119.713 0.709126 119.815 0.943154C120.088 1.60826 119.824 2.48505 119.602 3.12691C119.592 3.15295 119.58 3.17757 119.564 3.20006L120.758 8.40416C120.786 8.5282 120.765 8.65857 120.698 8.76665C120.631 8.87473 120.525 8.95168 120.402 8.98061C120.38 8.98582 120.357 8.98938 120.334 8.99127C120.22 9.00086 120.107 8.96873 120.015 8.90076C119.923 8.83279 119.858 8.73353 119.832 8.62118L118.58 3.16227C118.232 2.65896 117.674 2.4744 117.682 1.75746Z" fill="#BDBDBD"/>
</g>
<g style="mix-blend-mode:multiply">
<path d="M107.198 10.415C107.231 10.1716 107.357 9.95089 107.549 9.80033C107.741 9.64977 107.984 9.58138 108.225 9.60988C108.726 9.74391 109.154 10.0727 109.415 10.5245L116.748 13.5981C116.861 13.649 116.95 13.7427 116.996 13.8591C117.042 13.9756 117.041 14.1056 116.994 14.2214C116.946 14.3372 116.856 14.4296 116.742 14.479C116.628 14.5283 116.499 14.5307 116.384 14.4855L109.397 11.5568C108.9 11.7041 108.374 11.7177 107.87 11.5965C107.63 11.5238 107.427 11.3609 107.302 11.1411C107.177 10.9213 107.14 10.6614 107.198 10.415Z" fill="#BDBDBD"/>
</g>
<g style="mix-blend-mode:multiply">
<path d="M110.473 18.6118C110.919 18.4581 111.405 18.4773 111.837 18.6656C112.949 18.264 115.086 17.4923 115.211 17.4492C115.33 17.4082 115.461 17.4167 115.574 17.4729C115.687 17.5292 115.773 17.6285 115.814 17.7491C115.854 17.8696 115.846 18.0016 115.79 18.1159C115.735 18.2301 115.636 18.3174 115.517 18.3585C115.414 18.3938 113.701 19.0119 112.349 19.5007C112.248 19.7391 112.09 19.9488 111.89 20.1113C111.69 20.2739 111.454 20.3844 111.202 20.4332C110.958 20.4756 110.707 20.4318 110.491 20.3091C110.275 20.1863 110.108 19.9922 110.017 19.7594C109.938 19.545 109.942 19.3087 110.026 19.0966C110.11 18.8845 110.27 18.7117 110.473 18.6118Z" fill="#BDBDBD"/>
</g>
<g style="mix-blend-mode:multiply">
<path d="M113.673 27.7765L117.545 22.8999C117.626 22.8069 117.739 22.7491 117.861 22.7384C117.983 22.7278 118.104 22.7651 118.2 22.8426C118.295 22.9201 118.357 23.0319 118.373 23.1546C118.389 23.2773 118.357 23.4014 118.285 23.501L114.634 28.0977C114.644 28.1358 114.646 28.1755 114.641 28.2144C114.599 28.7944 114.38 29.347 114.015 29.7961C113.603 30.203 113.081 29.9336 112.69 29.6449C112.488 29.532 112.337 29.3444 112.27 29.1215C112.202 28.8986 112.222 28.6578 112.326 28.4499C112.678 28.066 113.157 27.8263 113.673 27.7765Z" fill="#BDBDBD"/>
</g>
<g style="mix-blend-mode:multiply">
<path d="M117.843 28.9977L119.783 24.3158C119.832 24.1983 119.925 24.1052 120.042 24.0569C120.158 24.0086 120.289 24.0092 120.405 24.0584C120.521 24.1076 120.614 24.2014 120.661 24.3193C120.709 24.4372 120.709 24.5694 120.66 24.6869L118.735 29.331C118.904 29.7755 118.914 30.2652 118.765 30.7165C118.547 31.3002 117.982 31.1243 117.528 30.9417C117.307 30.8838 117.112 30.7498 116.978 30.5626C116.844 30.3755 116.778 30.1469 116.792 29.9162C116.883 29.3795 117.38 29.1402 117.843 28.9977Z" fill="#BDBDBD"/>
</g>
</g>
<g style="mix-blend-mode:multiply">
<path d="M131.545 20.1392C133.363 15.3512 130.996 9.98038 126.259 8.1431C121.522 6.30583 116.209 8.69788 114.391 13.4859C112.574 18.2739 114.94 23.6447 119.677 25.482C124.414 27.3193 129.727 24.9272 131.545 20.1392Z" fill="#BDBDBD"/>
</g>
<g style="mix-blend-mode:multiply">
<path d="M129.745 17.3615C130.472 13.1835 127.71 9.20114 123.577 8.4667C119.444 7.73226 115.504 10.5238 114.777 14.7018C114.051 18.8798 116.812 22.8621 120.946 23.5966C125.079 24.331 129.019 21.5395 129.745 17.3615Z" fill="#EEEEEE"/>
</g>
<g style="mix-blend-mode:multiply">
<path d="M124.819 13.8921C124.851 14.2748 125.298 14.549 125.821 14.5049C126.343 14.4608 126.74 14.1149 126.708 13.7327C126.677 13.3505 126.229 13.0764 125.706 13.1204C125.183 13.1645 124.788 13.5099 124.819 13.8921Z" fill="#E0E0E0"/>
</g>
<g style="mix-blend-mode:multiply">
<path d="M122.908 15.0659C122.932 15.1621 122.991 15.2454 123.075 15.2981C123.158 15.3508 123.258 15.369 123.354 15.3488C123.586 15.3294 123.762 15.171 123.748 14.9951C123.724 14.8989 123.664 14.8156 123.581 14.7629C123.498 14.7102 123.398 14.692 123.301 14.7122C123.069 14.7316 122.893 14.89 122.908 15.0659Z" fill="#E0E0E0"/>
</g>
<g style="mix-blend-mode:multiply">
<path d="M123.729 11.7064C123.746 11.9055 123.995 12.0455 124.284 12.0228C124.574 12 124.796 11.8169 124.779 11.6178C124.763 11.4187 124.515 11.2787 124.225 11.301C123.935 11.3233 123.713 11.5069 123.729 11.7064Z" fill="#E0E0E0"/>
</g>
<g style="mix-blend-mode:multiply">
<path d="M116.847 12.6942C117.112 13.15 117.872 13.196 118.544 12.7968C119.216 12.3977 119.545 11.704 119.28 11.2467C119.015 10.7894 118.255 10.7444 117.583 11.1435C116.911 11.5427 116.583 12.2378 116.847 12.6942Z" fill="#E0E0E0"/>
</g>
</g>
</g>
<g style="mix-blend-mode:multiply">
<g style="mix-blend-mode:multiply">
<g style="mix-blend-mode:multiply">
<g style="mix-blend-mode:multiply">
<path d="M270.815 39.8778C270.758 39.8527 270.706 39.8164 270.662 39.7711C270.619 39.7258 270.585 39.6722 270.562 39.6136C270.539 39.5549 270.528 39.4923 270.529 39.4292C270.53 39.3662 270.543 39.3039 270.568 39.2461C270.593 39.1882 270.629 39.1359 270.674 39.092C270.718 39.0482 270.771 39.0137 270.829 38.9905C270.887 38.9673 270.949 38.956 271.012 38.957C271.074 38.9581 271.136 38.9715 271.193 38.9966L275.905 41.0602C276.497 41.052 277.139 40.9285 277.647 41.3121C277.852 41.4673 277.992 41.6948 278.04 41.9495C278.087 42.2041 278.038 42.4675 277.902 42.6874C277.263 43.9149 276.159 42.7625 275.58 41.9641L270.815 39.8778Z" fill="#BDBDBD"/>
</g>
<g style="mix-blend-mode:multiply">
<path d="M268.952 43.0216C268.999 42.9806 269.054 42.9494 269.114 42.93C269.173 42.9106 269.236 42.9032 269.298 42.9083C269.361 42.9135 269.421 42.931 269.477 42.9599C269.533 42.9888 269.582 43.0286 269.623 43.0768L273.819 48.0765C274.292 48.2432 274.852 48.2117 275.161 48.6849C275.295 48.9203 275.34 49.1963 275.29 49.4629C275.24 49.7294 275.097 49.969 274.887 50.1382C274.526 50.4468 273.788 50.7035 273.364 50.3804C272.91 50.0341 273.028 49.2527 273.117 48.7237L268.899 43.6983C268.818 43.6016 268.777 43.476 268.787 43.349C268.797 43.2221 268.856 43.1044 268.952 43.0216Z" fill="#BDBDBD"/>
</g>
<g style="mix-blend-mode:multiply">
<path d="M266.647 44.3048C266.705 44.28 266.766 44.2669 266.829 44.2661C266.891 44.2653 266.953 44.277 267.011 44.3004C267.068 44.3237 267.121 44.3584 267.166 44.4024C267.21 44.4464 267.246 44.4988 267.27 44.5567C267.318 44.6677 267.87 46.2827 268.21 47.2811C268.38 47.3315 268.534 47.4277 268.654 47.5595C268.774 47.6912 268.856 47.8535 268.892 48.029C268.901 48.2322 268.845 48.4327 268.733 48.6016C268.621 48.7705 268.458 48.8989 268.269 48.9683C268.1 49.0742 267.896 49.109 267.702 49.0652C267.492 48.9845 267.319 48.8295 267.215 48.6292C267.114 48.4675 267.068 48.2768 267.085 48.0863C267.102 47.8958 267.18 47.7162 267.308 47.5751C266.936 46.4847 266.445 45.0591 266.397 44.9307C266.349 44.8141 266.348 44.683 266.395 44.5658C266.442 44.4487 266.533 44.3549 266.647 44.3048Z" fill="#BDBDBD"/>
</g>
<g style="mix-blend-mode:multiply">
<path d="M259.922 29.2017C259.957 29.2542 259.981 29.3131 259.993 29.375C260.005 29.4369 260.004 29.5005 259.992 29.5624C259.98 29.6242 259.955 29.6829 259.921 29.7352C259.886 29.7875 259.841 29.8324 259.789 29.8672C259.723 29.9121 259.646 29.9391 259.567 29.9457C259.482 29.9531 259.396 29.9372 259.32 29.8997C259.243 29.8621 259.178 29.8044 259.131 29.7326L256.873 26.2932C256.316 26.1305 255.825 25.7927 255.471 25.3287C255.346 25.1287 255.297 24.8894 255.333 24.6556C255.369 24.4218 255.489 24.2093 255.668 24.0577C255.848 23.9061 256.076 23.8257 256.311 23.8315C256.545 23.8373 256.769 23.9288 256.941 24.0891C257.395 24.4883 257.43 25.1267 257.631 25.6601C257.64 25.6849 257.646 25.711 257.649 25.7376L259.922 29.2017Z" fill="#BDBDBD"/>
</g>
<g style="mix-blend-mode:multiply">
<path d="M273.563 26.2143L269.686 31.0783C269.647 31.1274 269.598 31.1683 269.544 31.1985C269.489 31.2287 269.429 31.2477 269.367 31.2545C269.305 31.2612 269.242 31.2556 269.182 31.2378C269.122 31.22 269.066 31.1905 269.018 31.151C268.969 31.1114 268.929 31.0625 268.899 31.0072C268.869 30.9518 268.85 30.8911 268.844 30.8284C268.837 30.7657 268.842 30.7023 268.86 30.6417C268.878 30.5812 268.907 30.5248 268.946 30.4757L272.582 25.9134C272.611 25.1467 272.824 24.3986 273.203 23.7336C273.642 23.13 274.408 23.5088 274.838 23.9235C275.059 24.1015 275.206 24.3565 275.25 24.6385C275.294 24.9204 275.233 25.209 275.077 25.4474C274.722 25.9614 274.13 26.0714 273.563 26.2143Z" fill="#BDBDBD"/>
</g>
<g style="mix-blend-mode:multiply">
<path d="M276.522 33.899C276.319 33.9503 276.107 33.9582 275.9 33.9224C275.693 33.8865 275.496 33.8076 275.321 33.6908C272.633 34.7899 272.021 35.0021 271.797 35.021C271.754 35.025 271.712 35.021 271.671 35.0093C271.562 34.9828 271.466 34.9183 271.399 34.8272C271.333 34.736 271.301 34.6241 271.308 34.5112C271.315 34.3982 271.362 34.2915 271.439 34.2099C271.517 34.1283 271.621 34.0771 271.732 34.0652C271.99 33.993 273.28 33.4839 274.652 32.9268C274.965 32.5151 275.454 31.8228 275.985 31.6983C276.554 31.5651 276.928 32.2312 277.056 32.6977C277.139 32.9288 277.129 33.1833 277.03 33.4075C276.93 33.6317 276.748 33.808 276.522 33.899Z" fill="#BDBDBD"/>
</g>
<g style="mix-blend-mode:multiply">
<path d="M268.347 25.2963L267.252 29.9893C267.229 30.088 267.176 30.1768 267.1 30.243C267.024 30.3092 266.929 30.3494 266.829 30.358C266.779 30.3619 266.729 30.3582 266.681 30.3468C266.558 30.3175 266.452 30.2401 266.386 30.1318C266.319 30.0234 266.298 29.8929 266.327 29.7689L267.386 25.2324C267.378 24.5944 267.141 23.9094 267.511 23.3267C267.649 23.1095 267.864 22.9537 268.112 22.8907C268.36 22.8277 268.622 22.8624 268.845 22.9876C269.064 23.1202 269.229 23.3271 269.311 23.5713C269.392 23.8155 269.386 24.0811 269.291 24.3207C269.104 24.7509 268.768 25.0977 268.347 25.2963Z" fill="#BDBDBD"/>
</g>
<g style="mix-blend-mode:multiply">
<path d="M262.801 23.9952C262.839 23.7935 262.943 23.6108 263.097 23.4768C263.251 23.3427 263.445 23.2652 263.648 23.2569C263.853 23.2699 264.049 23.3514 264.204 23.4885C264.359 23.6257 264.464 23.8108 264.504 24.015C264.537 24.2488 264.522 24.4869 264.46 24.7147C264.399 24.9424 264.291 25.1549 264.145 25.3389L264.24 28.0241C264.245 28.1473 264.202 28.2674 264.121 28.3596C264.04 28.4519 263.927 28.5091 263.805 28.5196H263.782C263.656 28.5241 263.533 28.4778 263.441 28.3909C263.349 28.3041 263.295 28.1838 263.29 28.0565L263.194 25.3055C263.039 25.1286 262.924 24.92 262.856 24.6938C262.788 24.4676 262.769 24.2293 262.801 23.9952Z" fill="#BDBDBD"/>
</g>
<g style="mix-blend-mode:multiply">
<path d="M259.135 21.4549C259.131 21.1664 259.212 20.8831 259.369 20.642C259.525 20.401 259.75 20.2132 260.014 20.1033C260.252 20.015 260.513 20.0214 260.746 20.1212C260.979 20.221 261.166 20.4067 261.268 20.6405C261.541 21.3057 261.277 22.1829 261.055 22.8243C261.046 22.8505 261.033 22.8751 261.016 22.8975L262.211 28.103C262.225 28.1644 262.227 28.2281 262.217 28.2903C262.206 28.3525 262.184 28.412 262.151 28.4655C262.118 28.519 262.075 28.5654 262.024 28.6021C261.973 28.6387 261.916 28.6648 261.855 28.679C261.794 28.6936 261.731 28.6959 261.67 28.6857C261.608 28.6755 261.549 28.653 261.496 28.6196C261.443 28.5861 261.397 28.5424 261.361 28.4909C261.325 28.4394 261.299 28.3812 261.285 28.3195L260.033 22.8606C259.685 22.3554 259.127 22.1718 259.135 21.4549Z" fill="#BDBDBD"/>
</g>
<g style="mix-blend-mode:multiply">
<path d="M248.651 30.1124C248.684 29.8691 248.81 29.6485 249.002 29.498C249.194 29.3475 249.437 29.279 249.678 29.3073C250.179 29.4414 250.606 29.7701 250.868 30.2218L258.2 33.296C258.258 33.3201 258.31 33.3555 258.354 33.4001C258.399 33.4447 258.433 33.4976 258.457 33.5558C258.481 33.6141 258.493 33.6765 258.493 33.7396C258.493 33.8026 258.481 33.865 258.457 33.9233C258.433 33.9815 258.398 34.0344 258.354 34.079C258.31 34.1236 258.258 34.1589 258.2 34.183C258.142 34.2071 258.081 34.2195 258.018 34.2195C257.956 34.2195 257.894 34.2071 257.837 34.1829L250.849 31.2541C250.353 31.4017 249.827 31.4154 249.323 31.2939C249.083 31.2213 248.879 31.0584 248.754 30.8386C248.629 30.6188 248.592 30.3589 248.651 30.1124Z" fill="#BDBDBD"/>
</g>
<g style="mix-blend-mode:multiply">
<path d="M251.926 38.3097C252.371 38.1558 252.857 38.1748 253.29 38.363C254.401 37.9614 256.539 37.1897 256.664 37.1471C256.723 37.1258 256.786 37.1167 256.849 37.1202C256.912 37.1237 256.973 37.1397 257.03 37.1674C257.086 37.1951 257.137 37.2339 257.178 37.2815C257.22 37.3291 257.252 37.3846 257.272 37.4447C257.293 37.5049 257.301 37.5685 257.297 37.6319C257.292 37.6953 257.276 37.7572 257.248 37.8141C257.219 37.8709 257.18 37.9216 257.133 37.9631C257.085 38.0046 257.03 38.0361 256.97 38.0558C256.867 38.0917 255.154 38.7098 253.801 39.1981C253.7 39.4365 253.543 39.6461 253.343 39.8088C253.143 39.9714 252.907 40.0821 252.655 40.1311C252.411 40.1733 252.16 40.1294 251.944 40.0067C251.728 39.884 251.561 39.69 251.469 39.4573C251.391 39.2428 251.394 39.0065 251.479 38.7944C251.563 38.5822 251.723 38.4094 251.926 38.3097Z" fill="#BDBDBD"/>
</g>
<g style="mix-blend-mode:multiply">
<path d="M255.126 47.4744L258.998 42.5977C259.037 42.5486 259.085 42.5077 259.14 42.4773C259.195 42.447 259.255 42.4279 259.317 42.421C259.379 42.4141 259.441 42.4197 259.501 42.4374C259.561 42.455 259.617 42.4844 259.666 42.5239C259.714 42.5633 259.755 42.6121 259.785 42.6674C259.815 42.7227 259.834 42.7834 259.841 42.8461C259.847 42.9088 259.842 42.9722 259.824 43.0327C259.807 43.0933 259.778 43.1497 259.739 43.1989L256.089 47.7956C256.098 47.8335 256.1 47.873 256.095 47.9118C256.053 48.4918 255.834 49.0443 255.469 49.4934C255.057 49.9003 254.536 49.6315 254.144 49.3428C253.942 49.23 253.791 49.0424 253.723 48.8195C253.656 48.5966 253.676 48.3557 253.78 48.1477C254.132 47.7641 254.611 47.5244 255.126 47.4744Z" fill="#BDBDBD"/>
</g>
<g style="mix-blend-mode:multiply">
<path d="M259.296 48.6956L261.236 44.0137C261.26 43.9555 261.295 43.9027 261.339 43.8583C261.384 43.8139 261.436 43.7787 261.494 43.7548C261.552 43.7309 261.614 43.7187 261.676 43.719C261.738 43.7192 261.8 43.7319 261.858 43.7563C261.915 43.7806 261.968 43.8162 262.011 43.861C262.055 43.9057 262.09 43.9588 262.114 44.0172C262.138 44.0756 262.15 44.1381 262.149 44.2011C262.149 44.2642 262.137 44.3266 262.112 44.3848L260.188 49.0289C260.356 49.4735 260.367 49.9633 260.218 50.4148C259.999 50.9985 259.435 50.8222 258.981 50.6396C258.759 50.5817 258.565 50.4476 258.43 50.2605C258.296 50.0733 258.231 49.8447 258.245 49.6141C258.336 49.0793 258.833 48.8376 259.296 48.6956Z" fill="#BDBDBD"/>
</g>
</g>
<g style="mix-blend-mode:multiply">
<path d="M255.267 37.2837C255.115 35.4535 255.504 33.6191 256.384 32.0124C257.264 30.4057 258.596 29.0989 260.211 28.2572C261.826 27.4155 263.651 27.0768 265.457 27.2838C267.262 27.4908 268.966 28.2342 270.353 29.4202C271.74 30.6061 272.749 32.1812 273.25 33.9463C273.752 35.7115 273.725 37.5873 273.172 39.3367C272.619 41.0861 271.565 42.6305 270.144 43.7745C268.722 44.9185 266.997 45.6108 265.187 45.7639C263.984 45.8656 262.774 45.7269 261.625 45.3558C260.476 44.9846 259.41 44.3883 258.489 43.6008C257.568 42.8133 256.809 41.8501 256.256 40.7662C255.703 39.6823 255.367 38.499 255.267 37.2837Z" fill="#BDBDBD"/>
</g>
<g style="mix-blend-mode:multiply">
<path d="M269.639 40.5386C272.267 37.2312 271.744 32.3966 268.472 29.7404C265.2 27.0841 260.417 27.6121 257.789 30.9195C255.162 34.227 255.684 39.0616 258.956 41.7178C262.228 44.3741 267.011 43.8461 269.639 40.5386Z" fill="#EEEEEE"/>
</g>
<g style="mix-blend-mode:multiply">
<path d="M266.273 33.59C266.305 33.9722 266.753 34.2464 267.275 34.2023C267.798 34.1582 268.194 33.8148 268.163 33.4301C268.131 33.0455 267.683 32.7737 267.161 32.8178C266.639 32.8619 266.24 33.2063 266.273 33.59Z" fill="#E0E0E0"/>
</g>
<g style="mix-blend-mode:multiply">
<path d="M264.361 34.7637C264.385 34.8599 264.445 34.943 264.528 34.9957C264.611 35.0483 264.711 35.0664 264.807 35.0462C265.039 35.0268 265.215 34.8684 265.201 34.6925C265.177 34.5963 265.117 34.5132 265.034 34.4604C264.951 34.4077 264.851 34.3895 264.755 34.4096C264.523 34.4295 264.346 34.5879 264.361 34.7637Z" fill="#E0E0E0"/>
</g>
<g style="mix-blend-mode:multiply">
<path d="M265.182 31.4038C265.199 31.6029 265.447 31.7429 265.737 31.7202C266.027 31.6974 266.249 31.5143 266.232 31.3152C266.216 31.1161 265.967 30.9761 265.678 30.9989C265.388 31.0216 265.166 31.2047 265.182 31.4038Z" fill="#E0E0E0"/>
</g>
<g style="mix-blend-mode:multiply">
<path d="M258.301 32.3916C258.567 32.8479 259.327 32.8939 259.998 32.4947C260.67 32.0956 261 31.4019 260.735 30.9446C260.47 30.4873 259.71 30.4423 259.038 30.8419C258.365 31.2416 258.036 31.9352 258.301 32.3916Z" fill="#E0E0E0"/>
</g>
</g>
</g>
</g>
</g>
<defs>
<clipPath id="clip0">
<rect width="359" height="186" fill="white"/>
</clipPath>
</defs>
</svg>
