<svg width="253" height="209" viewBox="0 0 253 209" fill="none" xmlns="http://www.w3.org/2000/svg">
<g clip-path="url(#clip0)">
<path d="M253 199.584V200.882C252.999 201.572 252.854 202.255 252.574 202.886C252.294 203.517 251.886 204.083 251.374 204.547C250.863 205.011 250.261 205.364 249.605 205.582C248.95 205.8 248.256 205.879 247.569 205.814C237.399 204.849 227.277 203.052 217.073 203.366C198.262 203.94 179.295 211.63 161.086 206.879C155.951 205.539 150.873 203.21 145.589 203.712C140.849 204.161 136.63 206.84 132.038 208.097C118.071 211.929 103.849 202.245 89.3708 202.637C79.8275 202.896 70.6893 207.541 61.1564 207.024C55.6314 206.728 50.3688 204.708 44.9789 203.465C31.5601 200.365 17.7412 202.097 3.91449 203.172C3.41561 203.21 2.9142 203.145 2.44164 202.98C1.96908 202.816 1.53552 202.556 1.1681 202.217C0.800682 201.877 0.507299 201.465 0.306307 201.008C0.105315 200.55 0.00103816 200.055 0 199.555V198.444C0 197.48 0.383135 196.555 1.06512 195.874C1.74711 195.192 2.67208 194.809 3.63655 194.809L248.044 194.612C248.696 194.613 249.341 194.742 249.944 194.993C250.546 195.243 251.092 195.61 251.553 196.071C252.013 196.533 252.378 197.081 252.626 197.684C252.874 198.286 253.001 198.932 253 199.584Z" fill="#3F3D56"/>
<path opacity="0.1" d="M253 199.584V200.882C252.999 201.572 252.854 202.255 252.574 202.886C252.294 203.517 251.886 204.083 251.374 204.547C250.863 205.011 250.261 205.364 249.605 205.582C248.95 205.8 248.256 205.879 247.569 205.814C237.399 204.849 227.277 203.052 217.073 203.366C198.262 203.94 179.295 211.63 161.086 206.879C155.951 205.539 150.873 203.21 145.589 203.712C140.849 204.161 136.63 206.84 132.038 208.097C118.071 211.929 103.849 202.245 89.3708 202.637C79.8275 202.896 70.6893 207.541 61.1564 207.024C55.6314 206.728 50.3688 204.708 44.9789 203.465C31.5601 200.365 17.7412 202.097 3.91449 203.172C3.41561 203.21 2.9142 203.145 2.44164 202.98C1.96908 202.816 1.53552 202.556 1.1681 202.217C0.800682 201.877 0.507299 201.465 0.306307 201.008C0.105315 200.55 0.00103816 200.055 0 199.555V198.444C0 197.48 0.383135 196.555 1.06512 195.874C1.74711 195.192 2.67208 194.809 3.63655 194.809L248.044 194.612C248.696 194.613 249.341 194.742 249.944 194.993C250.546 195.243 251.092 195.61 251.553 196.071C252.013 196.533 252.378 197.081 252.626 197.684C252.874 198.286 253.001 198.932 253 199.584Z" fill="black"/>
<path d="M253 197.211V198.509C253 198.689 252.99 198.869 252.971 199.049C252.833 200.347 252.188 201.538 251.177 202.364C250.165 203.191 248.869 203.585 247.569 203.462C237.399 202.494 227.277 200.697 217.074 201.011C198.262 201.588 179.295 209.278 161.086 204.524C155.951 203.184 150.873 200.856 145.589 201.357C140.849 201.806 136.63 204.485 132.038 205.744C118.071 209.566 103.85 199.882 89.3709 200.272C79.8275 200.531 70.6894 205.176 61.1564 204.662C55.6315 204.363 50.3689 202.346 44.979 201.1C31.5627 198.002 17.7412 199.734 3.91453 200.809C3.01526 200.878 2.12228 200.611 1.40898 200.06C0.695686 199.508 0.21298 198.711 0.0545938 197.823C0.0172162 197.613 -0.0010404 197.399 4.57476e-05 197.185V196.073C4.57476e-05 195.109 0.38318 194.185 1.06517 193.503C1.74715 192.822 2.67212 192.439 3.6366 192.439L64.8943 192.389L190.046 192.286L248.044 192.239C248.696 192.24 249.342 192.369 249.944 192.62C250.546 192.87 251.092 193.237 251.553 193.698C252.013 194.16 252.378 194.708 252.626 195.311C252.874 195.913 253.001 196.559 253 197.211Z" fill="#3F3D56"/>
<path opacity="0.1" d="M193.15 193.031C193.15 193.605 192.018 194.155 189.929 194.672C181.568 196.736 157.93 198.223 130.03 198.223C102.582 198.223 79.2277 196.782 70.5467 194.768C68.2089 194.225 66.9102 193.641 66.9102 193.031C66.9102 192.818 67.066 192.608 67.3725 192.4L192.524 192.296C192.937 192.537 193.15 192.771 193.15 193.031Z" fill="black"/>
<g opacity="0.5">
<path opacity="0.5" d="M242.863 0H148.328C145.598 0 143.385 2.21198 143.385 4.94059V26.4735C143.385 29.2022 145.598 31.4141 148.328 31.4141H242.863C245.593 31.4141 247.806 29.2022 247.806 26.4735V4.94059C247.806 2.21198 245.593 0 242.863 0Z" fill="#B7D1B3"/>
<path opacity="0.5" d="M180.27 6.75012H156.113V12.2022H180.27V6.75012Z" fill="#5AAA4E"/>
<path opacity="0.3" d="M230.143 15.5773H156.113V18.4331H230.143V15.5773Z" fill="#5AAA4E"/>
<path opacity="0.3" d="M185.725 21.8082H156.113V24.6641H185.725V21.8082Z" fill="#5AAA4E"/>
</g>
<g opacity="0.5">
<path opacity="0.5" d="M111.947 25.5752H17.4119C14.6819 25.5752 12.4688 27.7872 12.4688 30.5158V52.0487C12.4688 54.7773 14.6819 56.9893 17.4119 56.9893H111.947C114.677 56.9893 116.89 54.7773 116.89 52.0487V30.5158C116.89 27.7872 114.677 25.5752 111.947 25.5752Z" fill="#B7D1B3"/>
<path opacity="0.5" d="M49.3543 32.3253H25.1973V37.7774H49.3543V32.3253Z" fill="#3F8634"/>
<path opacity="0.5" d="M99.227 41.1523H25.1973V44.0082H99.227V41.1523Z" fill="#3F8634"/>
<path opacity="0.5" d="M54.8092 47.3833H25.1973V50.2391H54.8092V47.3833Z" fill="#3F8634"/>
</g>
<path d="M175.489 54.9202H174.001C173.673 54.9202 173.406 55.1863 173.406 55.5147V76.3986C173.406 76.727 173.673 76.9931 174.001 76.9931H175.489C175.818 76.9931 176.084 76.727 176.084 76.3986V55.5147C176.084 55.1863 175.818 54.9202 175.489 54.9202Z" fill="#3F3D56"/>
<path d="M85.4718 37.6268H84.7471C84.5319 37.6268 84.3574 37.8012 84.3574 38.0163V44.5042C84.3574 44.7193 84.5319 44.8936 84.7471 44.8936H85.4718C85.687 44.8936 85.8614 44.7193 85.8614 44.5042V38.0163C85.8614 37.8012 85.687 37.6268 85.4718 37.6268Z" fill="#3F3D56"/>
<path d="M85.5574 50.9298H84.7417C84.4993 50.9298 84.3027 51.1262 84.3027 51.3686V63.1398C84.3027 63.3821 84.4993 63.5785 84.7417 63.5785H85.5574C85.7998 63.5785 85.9963 63.3821 85.9963 63.1398V51.3686C85.9963 51.1262 85.7998 50.9298 85.5574 50.9298Z" fill="#3F3D56"/>
<path d="M85.523 68.0051H84.7463C84.5154 68.0051 84.3281 68.1923 84.3281 68.4231V80.3449C84.3281 80.5758 84.5154 80.7629 84.7463 80.7629H85.523C85.754 80.7629 85.9412 80.5758 85.9412 80.3449V68.4231C85.9412 68.1923 85.754 68.0051 85.523 68.0051Z" fill="#3F3D56"/>
<path d="M165.581 13.6119H94.4815C89.3615 13.6119 85.2109 17.7604 85.2109 22.8778V186.436C85.2109 191.554 89.3615 195.702 94.4815 195.702H165.581C170.701 195.702 174.852 191.554 174.852 186.436V22.8778C174.852 17.7604 170.701 13.6119 165.581 13.6119Z" fill="#3F3D56"/>
<path d="M133.241 19.051H122.043C121.678 19.051 121.383 19.3463 121.383 19.7105V20.9333C121.383 21.2975 121.678 21.5927 122.043 21.5927H133.241C133.605 21.5927 133.9 21.2975 133.9 20.9333V19.7105C133.9 19.3463 133.605 19.051 133.241 19.051Z" fill="#E6E8EC"/>
<path d="M137.237 21.7614C138.033 21.7614 138.678 21.1163 138.678 20.3205C138.678 19.5247 138.033 18.8796 137.237 18.8796C136.44 18.8796 135.795 19.5247 135.795 20.3205C135.795 21.1163 136.44 21.7614 137.237 21.7614Z" fill="#E6E8EC"/>
<path d="M169.314 25.4714V183.84C169.314 185.727 168.563 187.536 167.228 188.87C165.893 190.204 164.082 190.954 162.195 190.954H97.864C95.9761 190.954 94.1656 190.204 92.8304 188.87C91.4953 187.536 90.7448 185.727 90.7441 183.84V25.4714C90.7441 23.5841 91.4943 21.7741 92.8295 20.4395C94.1647 19.105 95.9757 18.3552 97.864 18.3552H107.49V19.604C107.491 21.1579 108.109 22.6479 109.208 23.7466C110.308 24.8454 111.798 25.463 113.353 25.4636H146.082C147.635 25.4602 149.123 24.8413 150.219 23.7428C151.316 22.6443 151.932 21.1558 151.932 19.604V18.3682H162.195C164.081 18.3682 165.89 19.1162 167.224 20.4479C168.559 21.7796 169.311 23.5863 169.314 25.4714Z" fill="#CDCDD0"/>
<path d="M101.045 33.4911H92.9922V34.5296H101.045V33.4911Z" fill="#3F3D56"/>
<path d="M101.045 35.3085H92.9922V36.347H101.045V35.3085Z" fill="#3F3D56"/>
<path d="M101.045 37.1259H92.9922V38.1643H101.045V37.1259Z" fill="#3F3D56"/>
<path d="M101.045 33.4911H92.9922V34.5296H101.045V33.4911Z" fill="#3F3D56"/>
<path d="M101.045 35.3085H92.9922V36.347H101.045V35.3085Z" fill="#3F3D56"/>
<path d="M101.045 37.1259H92.9922V38.1643H101.045V37.1259Z" fill="#3F3D56"/>
<path d="M165.634 36.0873H165.398L165.307 36.012C165.606 35.6563 165.769 35.2068 165.769 34.7425C165.767 34.3604 165.652 33.9876 165.438 33.6711C165.224 33.3546 164.921 33.1087 164.567 32.9644C164.213 32.8201 163.824 32.7839 163.45 32.8605C163.075 32.937 162.732 33.1228 162.463 33.3944C162.194 33.666 162.012 34.0111 161.939 34.3862C161.867 34.7613 161.907 35.1495 162.055 35.5016C162.204 35.8538 162.453 36.1541 162.772 36.3647C163.091 36.5752 163.465 36.6865 163.847 36.6844C164.31 36.6811 164.758 36.5179 165.115 36.2223L165.203 36.2976V36.5364L166.694 38.0293L167.141 37.5827L165.634 36.0873ZM163.847 36.0873C163.581 36.0883 163.32 36.0103 163.098 35.8632C162.876 35.716 162.703 35.5064 162.6 35.2607C162.498 35.0151 162.47 34.7445 162.522 34.4833C162.573 34.2221 162.701 33.982 162.889 33.7934C163.077 33.6048 163.316 33.4762 163.578 33.4239C163.839 33.3715 164.11 33.3979 164.356 33.4995C164.602 33.6011 164.812 33.7735 164.96 33.9948C165.109 34.216 165.188 34.4763 165.188 34.7425C165.189 34.9189 165.155 35.0938 165.088 35.2571C165.021 35.4204 164.922 35.5688 164.798 35.6939C164.673 35.8189 164.525 35.918 164.362 35.9855C164.199 36.053 164.024 36.0876 163.847 36.0873Z" fill="#3F3D56"/>
<path d="M117.149 51.9242H92.9922V57.3762H117.149V51.9242Z" fill="#5AAA4E"/>
<path opacity="0.3" d="M167.022 60.7513H92.9922V63.6072H167.022V60.7513Z" fill="#3F8634"/>
<path opacity="0.3" d="M122.604 66.9822H92.9922V69.838H122.604V66.9822Z" fill="#3F8634"/>
<path d="M117.149 115.272H92.9922V120.724H117.149V115.272Z" fill="#5AAA4E"/>
<path opacity="0.3" d="M167.022 124.099H92.9922V126.955H167.022V124.099Z" fill="#3F8634"/>
<path opacity="0.3" d="M122.604 130.33H92.9922V133.186H122.604V130.33Z" fill="#3F8634"/>
<path d="M117.149 146.945H92.9922V152.397H117.149V146.945Z" fill="#5AAA4E"/>
<path opacity="0.3" d="M167.022 155.772H92.9922V158.628H167.022V155.772Z" fill="#3F8634"/>
<path opacity="0.3" d="M122.604 162.003H92.9922V164.859H122.604V162.003Z" fill="#3F8634"/>
<path d="M153.775 184.331C158.653 184.331 162.607 180.379 162.607 175.504C162.607 170.629 158.653 166.677 153.775 166.677C148.897 166.677 144.943 170.629 144.943 175.504C144.943 180.379 148.897 184.331 153.775 184.331Z" fill="#5AAA4E"/>
<path d="M230.817 193.462C231.597 192.031 230.714 190.276 229.703 189.001C228.693 187.727 227.467 186.405 227.493 184.772C227.532 182.436 230.012 181.057 231.994 179.816C233.466 178.898 234.823 177.808 236.036 176.568C236.544 176.092 236.965 175.529 237.277 174.907C237.688 173.993 237.678 172.954 237.652 171.955C237.563 168.621 237.398 165.29 237.155 161.962" stroke="#3F3D56" stroke-width="4" stroke-miterlimit="10"/>
<path d="M240.923 161.78C240.896 161.17 240.715 160.576 240.397 160.055C240.079 159.533 239.635 159.099 239.105 158.795L238.289 160.409L238.315 158.454C237.925 158.34 237.519 158.291 237.113 158.309C236.395 158.345 235.704 158.592 235.127 159.019C234.55 159.447 234.113 160.036 233.87 160.711C233.627 161.387 233.59 162.12 233.764 162.816C233.937 163.513 234.313 164.143 234.844 164.626C235.375 165.11 236.038 165.425 236.748 165.533C237.458 165.641 238.184 165.535 238.835 165.231C239.485 164.926 240.031 164.436 240.403 163.822C240.775 163.208 240.957 162.497 240.926 161.78H240.923Z" fill="#5AAA4E"/>
<path d="M234.423 186.442C234.041 187.182 233.415 187.769 232.651 188.104C231.887 188.439 231.032 188.501 230.228 188.28C229.423 188.059 228.72 187.568 228.234 186.891C227.749 186.213 227.511 185.389 227.561 184.557C227.611 183.725 227.946 182.935 228.509 182.32C229.073 181.705 229.83 181.303 230.655 181.18C231.48 181.057 232.322 181.221 233.04 181.645C233.758 182.069 234.309 182.727 234.6 183.508L232.322 185.359L234.828 184.78C234.827 185.358 234.688 185.928 234.423 186.442Z" fill="#5AAA4E"/>
<path d="M232.621 179.367C231.716 179.431 230.819 179.154 230.107 178.59C229.395 178.027 228.92 177.217 228.775 176.321C228.63 175.425 228.826 174.508 229.324 173.748C229.822 172.989 230.586 172.444 231.465 172.22L231.445 173.72L232.271 172.087C232.749 172.064 233.227 172.135 233.678 172.297C234.129 172.459 234.543 172.708 234.897 173.03C235.251 173.352 235.538 173.741 235.741 174.175C235.944 174.608 236.06 175.077 236.081 175.556C236.103 175.976 236.05 176.397 235.925 176.799C235.706 177.515 235.271 178.146 234.68 178.606C234.089 179.065 233.37 179.331 232.621 179.367Z" fill="#5AAA4E"/>
<path d="M241.473 173.481C240.914 173.502 240.357 173.393 239.846 173.163C239.336 172.933 238.885 172.589 238.53 172.156C238.174 171.724 237.924 171.215 237.797 170.67C237.671 170.125 237.672 169.558 237.801 169.013C237.929 168.468 238.182 167.961 238.54 167.53C238.897 167.099 239.349 166.756 239.861 166.529C240.372 166.301 240.93 166.194 241.489 166.217C242.049 166.24 242.595 166.392 243.086 166.661L242.442 168.426L243.767 167.154C244.477 167.802 244.902 168.705 244.949 169.665C244.966 170.002 244.935 170.341 244.858 170.67C244.679 171.444 244.251 172.138 243.639 172.645C243.028 173.153 242.267 173.447 241.473 173.481Z" fill="#5AAA4E"/>
<path opacity="0.1" d="M240.433 162.751C239.591 162.842 238.773 163.104 237.929 163.156C237.085 163.208 236.157 163.008 235.622 162.351C235.336 161.998 235.191 161.552 234.949 161.165C234.719 160.805 234.403 160.509 234.03 160.3C233.81 160.76 233.689 161.26 233.675 161.77C233.661 162.279 233.755 162.785 233.949 163.256C234.144 163.727 234.435 164.152 234.805 164.503C235.174 164.854 235.613 165.123 236.093 165.294C236.574 165.464 237.084 165.532 237.592 165.493C238.101 165.453 238.595 165.307 239.043 165.065C239.491 164.822 239.883 164.488 240.194 164.084C240.504 163.68 240.726 163.215 240.846 162.72C240.709 162.725 240.571 162.736 240.433 162.751Z" fill="black"/>
<path opacity="0.1" d="M241.473 173.481C240.844 173.513 240.218 173.381 239.656 173.099C239.093 172.816 238.614 172.392 238.264 171.869C237.915 171.346 237.707 170.741 237.662 170.113C237.616 169.486 237.735 168.857 238.005 168.289C238.295 168.483 238.544 168.732 238.738 169.021C238.998 169.413 239.156 169.867 239.46 170.226C240.029 170.893 240.998 171.111 241.878 171.072C242.759 171.033 243.608 170.781 244.476 170.701C244.598 170.701 244.72 170.683 244.845 170.68C244.664 171.45 244.237 172.14 243.629 172.646C243.02 173.151 242.264 173.444 241.473 173.481Z" fill="black"/>
<path opacity="0.1" d="M232.623 179.367C232 179.398 231.38 179.269 230.821 178.992C230.263 178.715 229.785 178.298 229.434 177.783C229.083 177.268 228.87 176.671 228.816 176.05C228.763 175.429 228.869 174.805 229.127 174.237C229.429 174.434 229.693 174.685 229.906 174.977C230.189 175.377 230.366 175.839 230.698 176.207C231.314 176.89 232.348 177.132 233.278 177.111C234.208 177.09 235.052 176.869 235.948 176.799C235.728 177.519 235.29 178.152 234.694 178.612C234.099 179.072 233.375 179.335 232.623 179.367Z" fill="black"/>
<path opacity="0.1" d="M234.422 186.442C234.027 187.323 233.299 188.011 232.397 188.355C231.495 188.699 230.492 188.671 229.611 188.277C228.73 187.883 228.041 187.155 227.696 186.253C227.352 185.351 227.38 184.35 227.775 183.469C228.075 183.666 228.345 183.906 228.575 184.183C228.923 184.603 229.151 185.084 229.551 185.481C230.297 186.213 231.499 186.519 232.572 186.543C233.19 186.546 233.808 186.512 234.422 186.442Z" fill="black"/>
<path d="M225.318 191.813C225.318 191.813 228.196 191.725 229.064 191.107C229.932 190.489 233.48 189.754 233.703 190.744C233.927 191.733 238.028 195.676 234.781 195.692C231.534 195.708 227.233 195.188 226.365 194.653C225.498 194.119 225.318 191.813 225.318 191.813Z" fill="#656380"/>
<path opacity="0.2" d="M234.838 195.349C231.589 195.375 227.29 194.843 226.425 194.311C225.765 193.908 225.503 192.47 225.414 191.805H225.318C225.318 191.805 225.5 194.126 226.357 194.661C227.215 195.196 231.524 195.718 234.773 195.7C235.711 195.7 236.033 195.36 236.015 194.866C235.893 195.157 235.537 195.341 234.838 195.349Z" fill="black"/>
<path d="M166.761 85.9423V107.475C166.761 108.783 166.241 110.038 165.316 110.963C164.39 111.888 163.135 112.408 161.826 112.408H90.7441V80.9939H161.826C162.475 80.9939 163.118 81.122 163.718 81.3709C164.318 81.6197 164.863 81.9845 165.321 82.4442C165.78 82.9039 166.143 83.4495 166.39 84.0498C166.637 84.6501 166.763 85.2932 166.761 85.9423Z" fill="#3F3D56"/>
<path d="M153.507 76.5881H58.9724C56.2424 76.5881 54.0293 78.8001 54.0293 81.5287V103.062C54.0293 105.79 56.2424 108.002 58.9724 108.002H153.507C156.237 108.002 158.45 105.79 158.45 103.062V81.5287C158.45 78.8001 156.237 76.5881 153.507 76.5881Z" fill="#F2F2F2"/>
<path d="M153.507 76.5881H58.9724C56.2424 76.5881 54.0293 78.8001 54.0293 81.5287V103.062C54.0293 105.79 56.2424 108.002 58.9724 108.002H153.507C156.237 108.002 158.45 105.79 158.45 103.062V81.5287C158.45 78.8001 156.237 76.5881 153.507 76.5881Z" fill="#F2F2F2"/>
<path d="M90.9129 83.3384H66.7559V88.7904H90.9129V83.3384Z" fill="#5AAA4E"/>
<path opacity="0.3" d="M140.786 92.1654H66.7559V95.0212H140.786V92.1654Z" fill="#3F8634"/>
<path opacity="0.3" d="M96.3678 98.3964H66.7559V101.252H96.3678V98.3964Z" fill="#3F8634"/>
<path d="M23.9854 73.3662C29.114 73.3662 33.2716 69.2108 33.2716 64.0848C33.2716 58.9588 29.114 54.8033 23.9854 54.8033C18.8568 54.8033 14.6992 58.9588 14.6992 64.0848C14.6992 69.2108 18.8568 73.3662 23.9854 73.3662Z" fill="#3F3D56"/>
<path d="M18.5984 136.285C19.5569 143.007 18.388 149.861 16.5671 156.401C16.2268 157.618 15.8606 158.846 15.2242 159.939C14.5878 161.032 13.702 161.972 12.954 163C11.3954 165.145 10.4811 167.674 9.62651 170.176C7.27044 177.102 5.29167 184.149 3.69893 191.289C3.60296 191.581 3.60296 191.897 3.69893 192.19C3.92492 192.709 4.61067 192.776 5.17433 192.774L12.463 192.735C12.7228 192.236 12.2422 191.696 11.9435 191.219C10.9045 189.604 11.902 187.506 12.8189 185.816C15.0474 181.711 16.7725 177.353 17.9568 172.835C18.4555 170.932 18.8608 168.987 19.6712 167.193C20.6505 165.018 22.1856 163.146 23.4324 161.11C24.8818 158.745 25.939 156.178 26.9884 153.599C28.4534 150.022 29.9314 146.4 30.5081 142.579C31.051 138.991 30.7834 135.335 30.4302 131.724C30.4466 131.616 30.4372 131.507 30.4028 131.403C30.3684 131.3 30.31 131.207 30.2324 131.131C30.1547 131.055 30.0601 130.998 29.9563 130.966C29.8525 130.934 29.7425 130.926 29.6353 130.945L19.8556 130.441C17.8399 130.337 17.362 129.896 17.6685 131.874C17.8815 133.352 18.3854 134.79 18.5984 136.285Z" fill="#3F3D56"/>
<path opacity="0.1" d="M18.5984 136.285C19.5569 143.007 18.388 149.861 16.5671 156.401C16.2268 157.618 15.8606 158.846 15.2242 159.939C14.5878 161.032 13.702 161.972 12.954 163C11.3954 165.145 10.4811 167.674 9.62651 170.176C7.27044 177.102 5.29167 184.149 3.69893 191.289C3.60296 191.581 3.60296 191.897 3.69893 192.19C3.92492 192.709 4.61067 192.776 5.17433 192.774L12.463 192.735C12.7228 192.236 12.2422 191.696 11.9435 191.219C10.9045 189.604 11.902 187.506 12.8189 185.816C15.0474 181.711 16.7725 177.353 17.9568 172.835C18.4555 170.932 18.8608 168.987 19.6712 167.193C20.6505 165.018 22.1856 163.146 23.4324 161.11C24.8818 158.745 25.939 156.178 26.9884 153.599C28.4534 150.022 29.9314 146.4 30.5081 142.579C31.051 138.991 30.7834 135.335 30.4302 131.724C30.4466 131.616 30.4372 131.507 30.4028 131.403C30.3684 131.3 30.31 131.207 30.2324 131.131C30.1547 131.055 30.0601 130.998 29.9563 130.966C29.8525 130.934 29.7425 130.926 29.6353 130.945L19.8556 130.441C17.8399 130.337 17.362 129.896 17.6685 131.874C17.8815 133.352 18.3854 134.79 18.5984 136.285Z" fill="black"/>
<path d="M20.5214 119.942C18.5343 122.798 16.451 126.085 17.1108 129.504C17.6121 132.1 19.5915 134.112 21.4591 135.995C28.9244 143.487 36.2651 151.811 38.8054 162.079C39.46 164.732 39.7769 167.456 40.3406 170.127C41.364 174.982 43.1979 179.624 45.0161 184.237L49.8787 196.538C51.39 196.575 52.8762 196.147 54.1355 195.311C55.3948 194.475 56.3663 193.272 56.9181 191.865C56.2791 191.816 55.4453 191.198 55.0712 190.679C52.9932 187.805 52.5672 184.108 52.0347 180.603C51.4451 176.729 50.658 172.887 49.8683 169.047L46.3876 152.063C45.985 150.102 45.5824 148.14 45.0577 146.211C43.0264 138.726 39.1769 131.672 38.5821 123.933C38.4937 122.796 38.4392 121.547 37.6677 120.703C36.8573 119.812 35.5273 119.665 34.3247 119.594C29.4595 119.272 25.2619 118.797 20.5214 119.942Z" fill="#3F3D56"/>
<path d="M7.39453 191.115C6.86476 190.989 6.32322 190.919 5.77886 190.907C5.25715 190.925 4.74694 191.065 4.28881 191.315C3.83067 191.566 3.43722 191.919 3.13976 192.348C2.8363 192.834 2.59789 193.358 2.43064 193.906L1.7267 195.925C1.5189 196.517 1.31629 197.2 1.6254 197.743C1.85369 198.084 2.18494 198.343 2.5709 198.483C4.27489 199.241 6.19447 199.282 8.05171 199.464C9.85439 199.641 11.6415 199.957 13.4208 200.292C14.0338 200.407 14.6443 200.523 15.2651 200.586C16.6521 200.726 18.0496 200.586 19.4367 200.461L20.8679 200.323C21.347 200.303 21.8209 200.215 22.2758 200.064C22.5031 199.987 22.7123 199.864 22.8909 199.704C23.0695 199.544 23.2137 199.349 23.3148 199.132C23.6681 198.257 22.9096 197.221 21.9823 197.055C21.6056 196.98 21.216 197.013 20.8342 196.964C20.4014 196.89 19.9792 196.763 19.577 196.588C17.7457 195.868 15.8963 195.141 14.2858 194.009C13.839 193.695 13.3715 193.257 13.4208 192.711C13.4672 192.478 13.545 192.252 13.652 192.039C13.8704 191.482 13.8778 190.864 13.6728 190.302C13.5845 190.063 13.413 189.811 13.1715 189.783C12.4857 189.7 12.5688 190.699 12.4675 191.081C12.3298 191.6 12.0805 191.647 11.5921 191.6C10.1895 191.45 8.78681 191.38 7.39453 191.115Z" fill="#F2F2F2"/>
<path d="M48.4029 198.08C48.4154 199.095 48.7644 200.076 49.3951 200.871C49.588 201.108 49.8287 201.302 50.1017 201.44C50.5086 201.607 50.9487 201.677 51.3875 201.645C52.6239 201.618 53.8457 201.371 54.9954 200.915C55.4005 200.732 55.8169 200.575 56.2422 200.445C56.7775 200.336 57.3187 200.258 57.8631 200.212C60.0113 199.903 61.8971 198.636 63.9725 197.995C64.5926 197.841 65.2004 197.641 65.7908 197.397C66.6116 197.011 67.2766 196.359 67.9286 195.728C68.3123 195.388 68.6432 194.992 68.9104 194.555C69.2923 193.843 69.3156 192.997 69.3312 192.192C69.3452 192.067 69.3236 191.94 69.2689 191.826C69.2096 191.744 69.1286 191.68 69.0351 191.642C68.4039 191.33 67.6558 191.486 66.9571 191.608C64.4323 192.057 61.8477 191.974 59.284 191.891C59.0407 191.924 58.7933 191.877 58.58 191.755C58.3668 191.633 58.1997 191.445 58.1047 191.219L57.1306 189.661C56.8527 189.214 56.4111 188.703 55.9072 188.856C55.5046 188.978 55.3409 189.471 55.3565 189.894C55.3721 190.318 55.5019 190.738 55.4214 191.151C55.364 191.378 55.2606 191.591 55.1177 191.777C54.9747 191.963 54.7952 192.117 54.5902 192.231C54.181 192.453 53.7444 192.621 53.2915 192.73C51.8576 193.135 50.19 193.594 49.0808 194.648C48.2782 195.406 48.3535 197.081 48.4029 198.08Z" fill="#F2F2F2"/>
<path d="M47.8983 95.0887C48.4576 94.6615 48.9376 94.1396 49.3165 93.5466C49.6429 92.8775 49.8479 92.1558 49.9217 91.4151L50.3296 88.8396C50.5555 87.4195 50.8205 85.9163 51.7686 84.8337C52.7167 83.7511 54.6051 83.3642 55.5688 84.4339C55.9896 84.8986 56.1558 85.5373 56.2597 86.1578C56.5561 88.008 56.4342 89.9012 55.9029 91.6982C55.3716 93.4952 54.4444 95.1505 53.1894 96.5426C52.0232 97.8199 50.5919 98.8351 49.3581 100.042C48.2827 101.081 47.3502 102.272 46.3579 103.402C43.9584 106.13 41.2099 108.53 38.1835 110.541C38.2198 108.61 38.4666 106.538 38.1835 104.619C37.9731 103.233 37.4042 102.485 38.7471 101.579C41.8642 99.4607 45.0098 97.5447 47.8983 95.0887Z" fill="#FBBEBE"/>
<path d="M21.705 76.0897C21.6037 77.4709 21.0296 78.8832 19.8867 79.6802C23.1232 80.8122 26.3156 82.0601 29.4638 83.424C28.856 82.8398 28.6716 81.9441 28.643 81.103C28.5625 78.904 29.3236 76.7413 30.4353 74.8461C30.6122 74.6057 30.7143 74.3185 30.7288 74.0205C30.6925 73.4078 29.9652 73.1248 29.3677 72.982C27.3294 72.4878 25.2492 72.1862 23.1544 72.0811C22.2583 72.0526 21.1959 71.7696 21.3985 72.9093C21.5907 73.9738 21.7855 75.0122 21.705 76.0897Z" fill="#FBBEBE"/>
<path d="M27.9656 76.8297C32.1589 76.8297 35.5582 73.4321 35.5582 69.2409C35.5582 65.0498 32.1589 61.6522 27.9656 61.6522C23.7724 61.6522 20.373 65.0498 20.373 69.2409C20.373 73.4321 23.7724 76.8297 27.9656 76.8297Z" fill="#FBBEBE"/>
<path d="M35.4828 89.7379C35.2177 89.1681 34.8948 88.627 34.5191 88.1231C33.1424 86.1474 31.7293 84.1743 29.963 82.5387C28.625 81.346 27.1769 80.2829 25.6381 79.3635C24.8078 78.7946 23.8949 78.3568 22.9315 78.0654C22.3598 77.9387 21.7785 77.8597 21.1937 77.8291L19.2222 77.6682C19.0493 77.6453 18.8739 77.6505 18.7027 77.6837C18.1676 77.8187 17.9234 78.4834 18.0377 79.0208C18.152 79.5582 18.5572 79.9944 18.9157 80.402C19.004 84.4235 17.2143 88.3905 16.9727 92.4068C16.5493 99.4166 20.8379 105.962 21.1807 112.99C21.2161 113.307 21.1824 113.629 21.082 113.932C21.0249 114.077 20.9392 114.21 20.8742 114.353C20.6716 114.794 20.6794 115.295 20.6431 115.781C20.5015 117.512 19.743 119.135 18.5053 120.355C18.8269 120.754 19.2405 121.069 19.7105 121.274C20.5391 121.635 21.5288 121.666 22.4094 121.918C24.7056 122.588 27.059 123.263 29.4461 123.12C29.7427 122.475 29.9263 121.784 29.989 121.077C30.3267 120.866 30.7163 121.316 30.7682 121.71C30.8202 122.105 30.7449 122.564 31.028 122.85C31.3111 123.136 31.6696 123.091 32.0151 123.047C33.4723 122.863 34.8723 122.372 36.301 122.043C37.7296 121.713 39.257 121.554 40.6467 122.027C40.9272 121.671 40.8077 121.144 40.5791 120.755C40.3505 120.365 40.0259 120.023 39.896 119.589C39.8306 119.339 39.8026 119.081 39.8129 118.823C39.8129 116.604 40.27 114.36 39.8362 112.182C39.709 111.544 39.5063 110.92 39.3765 110.279C39.1167 109.036 39.1557 107.753 39.1894 106.483C39.2232 105.214 39.07 103.841 39.044 102.553C39.0432 102.021 39.0085 101.489 38.9401 100.961C38.8518 100.408 38.6803 99.8684 38.6336 99.3102C38.4933 97.8926 39.0648 96.4855 38.979 95.0628C38.8362 92.9027 36.3244 91.7292 35.4828 89.7379Z" fill="#5AAA4E"/>
<path d="M18.346 88.7202C16.507 93.5959 15.6082 98.7675 14.7095 103.903L12.6314 115.965C12.0418 119.374 11.4496 122.803 11.4729 126.261C11.4729 127.232 11.5353 128.221 11.2807 129.159C10.9482 130.389 10.1222 131.415 9.49622 132.534C8.22601 134.819 7.8029 137.478 8.30135 140.045C8.51435 141.122 9.0962 142.345 10.1898 142.469C11.0885 142.568 11.8652 141.854 12.3899 141.117C13.5951 139.427 14.1926 137.386 14.7277 135.377C16.4502 128.81 17.6549 122.118 18.3304 115.362C18.3947 114.507 18.5153 113.657 18.6915 112.818C18.9209 111.953 19.2144 111.106 19.5695 110.284C20.3643 108.315 21.16 106.345 21.9566 104.375C23.7931 99.8242 25.6399 95.2522 28.1621 91.0412C25.6685 90.3246 23.0735 89.4835 20.5799 88.7747C19.8604 88.5618 19.0889 88.689 18.346 88.7202Z" fill="#FBBEBE"/>
<path d="M22.6693 92.4172C20.9238 92.0408 19.1185 92.1576 17.3366 92.1135C17.0835 92.1319 16.8315 92.0661 16.6197 91.9265C16.2586 91.6176 16.4119 91.0386 16.5937 90.5999L17.4561 88.5229C17.5976 88.0936 17.8337 87.7014 18.147 87.3754C18.586 86.986 19.2042 86.8899 19.7861 86.8198C21.6797 86.6017 23.6278 86.529 25.4643 87.0405C27.3007 87.5519 29.0281 88.715 29.8489 90.4363C30.1918 91.1529 30.3502 92.0563 29.8957 92.708C29.2203 93.6764 27.706 94.759 26.576 94.2294C25.2227 93.5959 24.1863 92.7469 22.6693 92.4172Z" fill="#3F8634"/>
<path d="M31.9506 57.454C30.4522 57.4382 28.9821 57.8615 27.7218 58.6716C26.5275 57.5405 25.0539 56.7469 23.4519 56.3719C21.8499 55.9969 20.177 56.0541 18.6044 56.5376C18.4369 55.5809 18.0099 54.6885 17.3698 53.9578C16.7297 53.2271 15.9012 52.6861 14.9746 52.3937C14.0479 52.1014 13.0588 52.0689 12.115 52.2999C11.1712 52.5309 10.3089 53.0164 9.62225 53.7036C8.93559 54.3908 8.45088 55.2532 8.22098 56.1968C7.99108 57.1405 8.02481 58.1291 8.3185 59.0548C8.61218 59.9806 9.15454 60.808 9.88644 61.4469C10.6183 62.0857 11.5117 62.5114 12.469 62.6776C12.0747 63.861 11.9231 65.1118 12.0233 66.3551C12.1234 67.5984 12.4733 68.8088 13.0519 69.914C13.6306 71.0191 14.4262 71.9963 15.3912 72.7872C16.3563 73.5782 17.4709 74.1666 18.6685 74.5173C19.8662 74.868 21.1223 74.9738 22.3617 74.8284C23.6012 74.6831 24.7987 74.2895 25.8825 73.6712C26.9664 73.0529 27.9145 72.2226 28.6701 71.2299C29.4257 70.2372 29.9734 69.1024 30.2803 67.8934C30.8283 68.0055 31.3861 68.062 31.9454 68.0621C35.6079 68.0621 38.5795 65.6866 38.5795 62.7581C38.5795 59.8295 35.6079 57.454 31.9506 57.454Z" fill="#3F3D56"/>
<path opacity="0.1" d="M33.2713 65.4089C32.7119 65.4105 32.1539 65.3539 31.6063 65.2402C31.3461 66.1898 30.9357 67.0916 30.3906 67.9117C30.9043 68.0106 31.4261 68.061 31.9491 68.0623C35.3727 68.0623 38.1832 65.9853 38.5443 63.3268C37.3261 64.5937 35.4169 65.4089 33.2713 65.4089Z" fill="black"/>
<path opacity="0.1" d="M22.6586 72.0473C21.2056 72.0452 19.7734 71.7029 18.4767 71.0477C17.18 70.3925 16.0549 69.4428 15.1917 68.2746C14.3286 67.1064 13.7512 65.7524 13.5061 64.321C13.261 62.8896 13.3549 61.4207 13.7802 60.0321C12.5511 59.8159 11.4376 59.1738 10.6352 58.2185C9.83287 57.2632 9.39302 56.0558 9.39296 54.8085C9.39243 54.4898 9.42112 54.1717 9.47868 53.8583C8.8308 54.5579 8.38354 55.419 8.18393 56.3512C7.98432 57.2833 8.03975 58.252 8.34438 59.1554C8.64901 60.0587 9.19159 60.8633 9.91504 61.4845C10.6385 62.1057 11.5161 62.5205 12.4555 62.6854C11.7403 65.0323 11.984 67.5668 13.1331 69.7347C14.2823 71.9026 16.2435 73.5276 18.588 74.2543C20.9324 74.9811 23.4694 74.7505 25.6443 73.613C27.8191 72.4755 29.4549 70.5237 30.194 68.1842C29.3355 69.3802 28.2041 70.3545 26.8936 71.0263C25.5831 71.6981 24.1314 72.0481 22.6586 72.0473Z" fill="black"/>
</g>
<defs>
<clipPath id="clip0">
<rect width="253" height="209" fill="white"/>
</clipPath>
</defs>
</svg>
